<svg version="1.1" viewBox="0.0 0.0 802.2309711286089 487.7979002624672" fill="none" stroke="none" stroke-linecap="square" stroke-miterlimit="10" xmlns:xlink="http://www.w3.org/1999/xlink" xmlns="http://www.w3.org/2000/svg"><clipPath id="p.0"><path d="m0 0l802.23096 0l0 487.7979l-802.23096 0l0 -487.7979z" clip-rule="nonzero"/></clipPath><g clip-path="url(#p.0)"><defs><radialGradient id="p.1" gradientUnits="userSpaceOnUse" gradientTransform="matrix(21.666722188501446 0.0 0.0 21.666722188501446 0.0 0.0)" spreadMethod="pad" cx="18.512974970306168" cy="11.256845775253955" fx="18.512974970306168" fy="11.256845775253955" r="21.66672134399414"><stop offset="0.0" stop-color="#4d4d4d"/><stop offset="1.0" stop-color="#000000"/></radialGradient></defs><path fill="url(#p.1)" d="m0 0l802.23096 0l0 487.7979l-802.23096 0z" fill-rule="evenodd"/><path fill="#000000" fill-opacity="0.0" d="m-12.548556 43.595802l833.8583 0l0 156.78741l-833.8583 0z" fill-rule="evenodd"/><path fill="#efefef" d="m312.75937 176.75705q-9.84375 0 -18.296875 -3.453125q-8.453125 -3.453125 -14.65625 -9.65625q-6.203125 -6.21875 -9.671875 -14.65625q-3.453125 -8.453125 -3.453125 -18.3125q0 -9.859367 3.453125 -18.296867q3.46875 -8.453125 9.671875 -14.65625q6.203125 -6.21875 14.65625 -9.671875q8.453125 -3.453125 18.296875 -3.453125q6.796875 0 13.125 1.59375q6.34375 1.59375 11.328125 4.796875q0.890625 0.640625 1.34375 1.484375q0.453125 0.828125 0.453125 1.71875q0 1.796875 -1.15625 2.890625q-1.15625 1.078125 -2.4375 1.078125q-0.640625 0 -1.21875 -0.1875q-0.5625 -0.203125 -1.078125 -0.453125q-4.359375 -2.4375 -9.484375 -3.84375q-5.109375 -1.40625 -10.875 -1.40625q-11.0 0 -19.578125 5.0q-8.578125 4.984375 -13.4375 13.6875q-4.859375 8.703125 -4.859375 19.718742q0 11.0 4.859375 19.703125q4.859375 8.703125 13.4375 13.703125q8.578125 4.984375 19.578125 4.984375q5.765625 0 11.578125 -1.65625q5.828125 -1.671875 10.0625 -4.484375l-0.640625 2.6875l0 -29.4375l1.921875 1.796875l-22.15625 0q-1.65625 0 -2.8125 -1.15625q-1.140625 -1.15625 -1.140625 -2.6875q0 -1.796875 1.140625 -2.8125q1.15625 -1.03125 2.8125 -1.03125l24.453125 0q1.671875 0 2.75 1.09375q1.09375 1.078125 1.09375 2.75l0 30.84375q0 1.03125 -0.515625 1.921875q-0.515625 0.890625 -1.40625 1.53125q-5.625 3.84375 -12.609375 6.09375q-6.96875 2.234375 -14.53125 2.234375z" fill-rule="nonzero"/><path fill="#efefef" d="m396.92252 126.41331q1.25 0 2.0625 0.875q0.8125 0.8593674 0.8125 2.1093674l0 43.203125q0 1.140625 -0.859375 2.015625q-0.859375 0.859375 -2.015625 0.859375q-1.34375 0 -2.109375 -0.859375q-0.765625 -0.875 -0.765625 -2.015625l0 -11.421875l1.625 -0.78125q0 2.6875 -1.484375 5.484375q-1.484375 2.78125 -4.078125 5.1875q-2.59375 2.390625 -6.09375 3.875q-3.5 1.484375 -7.640625 1.484375q-6.421875 0 -11.5625 -3.359375q-5.140625 -3.359375 -8.078125 -9.203125q-2.921875 -5.859375 -2.921875 -13.15625q0 -7.484375 2.96875 -13.203125q2.984375 -5.71875 8.078125 -8.96875q5.09375 -3.2656174 11.421875 -3.2656174q4.125 0 7.71875 1.4375q3.609375 1.4374924 6.296875 3.9374924q2.6875 2.484375 4.21875 5.703125q1.546875 3.21875 1.546875 6.671875l-2.015625 -1.4375l0 -12.1875q0 -1.25 0.765625 -2.1093674q0.765625 -0.875 2.109375 -0.875zm-19.96875 44.640617q5.09375 0 9.03125 -2.640625q3.9375 -2.640625 6.1875 -7.296875q2.25 -4.65625 2.25 -10.40625q0 -5.671875 -2.25 -10.171875q-2.25 -4.515625 -6.1875 -7.203125q-3.9375 -2.6875 -9.03125 -2.6875q-4.984375 0 -8.96875 2.59375q-3.984375 2.59375 -6.25 7.109375q-2.25 4.5 -2.25 10.359375q0 5.75 2.203125 10.40625q2.21875 4.65625 6.203125 7.296875q3.984375 2.640625 9.0625 2.640625zm59.995117 -45.015617q5.953125 0 10.171875 3.1249924q4.234375 3.109375 5.765625 9.25l-1.34375 0.390625l0.578125 -1.734375q1.25 -2.875 4.171875 -5.421875q2.9375 -2.546875 6.671875 -4.0781174q3.75 -1.53125 7.59375 -1.53125q6.046875 0 9.734375 2.5937424q3.703125 2.59375 5.375 6.96875q1.6875 4.359375 1.6875 9.828125l0 27.171875q0 1.140625 -0.8125 2.015625q-0.8125 0.859375 -2.0625 0.859375q-1.25 0 -2.078125 -0.859375q-0.8125 -0.875 -0.8125 -2.015625l0 -26.890625q0 -3.9375 -1.25 -7.1875q-1.234375 -3.265625 -3.921875 -5.1875q-2.6875 -1.921875 -7.203125 -1.921875q-3.9375 0 -7.546875 1.921875q-3.59375 1.921875 -5.859375 5.1875q-2.25 3.25 -2.25 7.1875l0 26.890625q0 1.140625 -0.8125 2.015625q-0.8125 0.859375 -2.0625 0.859375q-1.25 0 -2.0625 -0.859375q-0.8125 -0.875 -0.8125 -2.015625l0 -27.171875q0 -3.9375 -1.15625 -7.09375q-1.15625 -3.171875 -3.75 -5.046875q-2.578125 -1.875 -7.0 -1.875q-3.9375 0 -7.453125 1.875q-3.5 1.875 -5.65625 5.046875q-2.15625 3.15625 -2.15625 7.09375l0 27.171875q0 1.140625 -0.875 2.015625q-0.859375 0.859375 -2.0 0.859375q-1.34375 0 -2.125 -0.859375q-0.765625 -0.875 -0.765625 -2.015625l0 -43.015625q0 -1.15625 0.8125 -2.0156174q0.828125 -0.859375 2.078125 -0.859375q1.25 0 2.0625 0.859375q0.8125 0.8593674 0.8125 2.0156174l0 8.9375l-2.59375 3.546875q0.296875 -2.875 1.875 -5.75q1.578125 -2.890625 4.171875 -5.1875q2.59375 -2.3125 5.90625 -3.7031174q3.3125 -1.390625 6.953125 -1.390625zm87.27066 50.390617q-7.390625 0 -13.0624695 -3.15625q-5.65625 -3.171875 -8.828125 -8.828125q-3.171875 -5.671875 -3.171875 -13.25q0 -8.171875 3.21875 -13.921875q3.21875 -5.765625 8.359375 -8.875q5.1405945 -3.1249924 10.8905945 -3.1249924q4.234375 0 8.203125 1.484375q3.984375 1.4843674 7.0625 4.4218674q3.078125 2.921875 4.984375 7.15625q1.921875 4.21875 2.03125 9.78125q0 1.15625 -0.875 1.96875q-0.859375 0.8125 -2.015625 0.8125l-38.484344 0l-1.15625 -5.1875l37.828094 0l-1.25 1.15625l0 -1.921875q-0.484375 -4.515625 -2.984375 -7.671875q-2.5 -3.171875 -6.0 -4.796875q-3.5 -1.640625 -7.34375 -1.640625q-2.875 0 -5.90625 1.15625q-3.015625 1.140625 -5.4687195 3.59375q-2.453125 2.453125 -3.984375 6.25q-1.53125 3.78125 -1.53125 8.96875q0 5.65625 2.296875 10.265625q2.3125 4.609375 6.6249695 7.296875q4.328125 2.6875 10.46875 2.6875q3.265625 0 5.953125 -0.953125q2.6875 -0.96875 4.75 -2.546875q2.0625 -1.578125 3.40625 -3.3125q1.0625 -0.859375 2.015625 -0.859375q1.0625 0 1.78125 0.765625q0.71875 0.765625 0.71875 1.734375q0 1.140625 -0.96875 2.015625q-2.875 3.453125 -7.484375 6.0q-4.609375 2.53125 -10.078125 2.53125z" fill-rule="nonzero"/><path fill="#efefef" d="m275.46252 295.88205q0 7.578125 -2.359375 13.875q-2.34375 6.28125 -6.671875 10.9375q-4.3125 4.65625 -10.21875 7.203125q-5.890625 2.53125 -12.90625 2.53125q-7.0 0 -12.90625 -2.53125q-5.90625 -2.546875 -10.234375 -7.203125q-4.3125 -4.65625 -6.671875 -10.9375q-2.34375 -6.296875 -2.34375 -13.875q0 -7.59375 2.34375 -13.875q2.359375 -6.296875 6.671875 -10.953125q4.328125 -4.65625 10.234375 -7.1875q5.90625 -2.546875 12.90625 -2.546875q7.015625 0 12.90625 2.546875q5.90625 2.53125 10.21875 7.1875q4.328125 4.65625 6.671875 10.953125q2.359375 6.28125 2.359375 13.875zm-6.140625 0q0 -8.546875 -3.3125 -15.03125q-3.3125 -6.484375 -9.171875 -10.125q-5.84375 -3.65625 -13.53125 -3.65625q-7.578125 0 -13.484375 3.65625q-5.90625 3.640625 -9.21875 10.125q-3.3125 6.484375 -3.3125 15.03125q0 8.53125 3.3125 15.015625q3.3125 6.484375 9.21875 10.140625q5.90625 3.640625 13.484375 3.640625q7.6875 0 13.53125 -3.640625q5.859375 -3.65625 9.171875 -10.140625q3.3125 -6.484375 3.3125 -15.015625zm36.09848 -37.0625q1.4375 0 3.109375 0.296875q1.6875 0.28125 2.9375 1.0q1.25 0.71875 1.25 2.15625q0 1.0625 -0.765625 1.875q-0.765625 0.8125 -1.734375 0.8125q-0.953125 0 -2.40625 -0.515625q-1.4375 -0.53125 -3.0625 -0.53125q-2.015625 0 -3.453125 0.90625q-1.4375 0.90625 -2.21875 2.59375q-0.765625 1.671875 -0.765625 4.078125l0 55.109375q0 1.140625 -0.8125 2.015625q-0.8125 0.859375 -2.0625 0.859375q-1.25 0 -2.0625 -0.859375q-0.8125 -0.875 -0.8125 -2.015625l0 -55.109375q0 -6.140625 3.59375 -9.40625q3.609375 -3.265625 9.265625 -3.265625zm3.640625 22.5625q1.15625 0 1.921875 0.765625q0.78125 0.765625 0.78125 1.921875q0 1.15625 -0.78125 1.921875q-0.765625 0.765625 -1.921875 0.765625l-23.515625 0q-1.046875 0 -1.875 -0.8125q-0.8125 -0.828125 -0.8125 -1.875q0 -1.25 0.8125 -1.96875q0.828125 -0.71875 1.875 -0.71875l23.515625 0z" fill-rule="nonzero"/><path fill="#efefef" d="m388.6882 239.88205q9.46875 0 16.5625 3.578125q7.109375 3.578125 11.71875 9.921875q4.609375 6.328125 6.84375 14.40625q2.25 8.0625 2.25 16.890625q0 12.28125 -4.03125 22.46875q-4.03125 10.171875 -12.296875 16.25q-8.25 6.078125 -21.046875 6.078125l-32.640625 0q-1.53125 0 -2.6875 -1.140625q-1.15625 -1.15625 -1.15625 -2.703125l0 -81.921875q0 -1.53125 1.15625 -2.671875q1.15625 -1.15625 2.6875 -1.15625l32.640625 0zm-1.28125 82.046875q10.875 0 17.53125 -4.984375q6.65625 -5.0 9.796875 -13.515625q3.140625 -8.515625 3.140625 -18.75q0 -7.421875 -1.734375 -14.140625q-1.734375 -6.71875 -5.390625 -11.90625q-3.640625 -5.1875 -9.46875 -8.1875q-5.8125 -3.015625 -13.875 -3.015625l-28.03125 0l0.890625 -1.15625l0 76.9375l-0.765625 -1.28125l27.90625 0z" fill-rule="nonzero"/><path fill="#efefef" d="m442.67337 329.4758q-1.34375 0 -2.125 -0.859375q-0.765625 -0.875 -0.765625 -2.015625l0 -43.015625q0 -1.15625 0.8125 -2.015625q0.828125 -0.859375 2.078125 -0.859375q1.25 0 2.0625 0.859375q0.8125 0.859375 0.8125 2.015625l0 14.40625l-1.4375 0.28125q0.28125 -3.359375 1.671875 -6.671875q1.390625 -3.3125 3.796875 -6.09375q2.40625 -2.78125 5.71875 -4.5q3.3125 -1.734375 7.4375 -1.734375q1.71875 0 3.34375 0.71875q1.640625 0.71875 1.640625 2.34375q0 1.4375 -0.765625 2.21875q-0.765625 0.765625 -1.828125 0.765625q-0.859375 0 -1.875 -0.484375q-1.0 -0.484375 -2.625 -0.484375q-2.6875 0 -5.375 1.59375q-2.6875 1.578125 -4.90625 4.265625q-2.203125 2.6875 -3.5 6.0q-1.296875 3.3125 -1.296875 6.671875l0 23.71875q0 1.140625 -0.875 2.015625q-0.859375 0.859375 -2.0 0.859375zm72.76108 -49.0625q1.25 0 2.0625 0.875q0.8125 0.859375 0.8125 2.109375l0 43.203125q0 1.140625 -0.859375 2.015625q-0.859375 0.859375 -2.015625 0.859375q-1.34375 0 -2.109375 -0.859375q-0.765625 -0.875 -0.765625 -2.015625l0 -11.421875l1.625 -0.78125q0 2.6875 -1.484375 5.484375q-1.4843445 2.78125 -4.0780945 5.1875q-2.59375 2.390625 -6.09375 3.875q-3.5 1.484375 -7.640625 1.484375q-6.421875 0 -11.5625 -3.359375q-5.140625 -3.359375 -8.078125 -9.203125q-2.921875 -5.859375 -2.921875 -13.15625q0 -7.484375 2.96875 -13.203125q2.984375 -5.71875 8.078125 -8.96875q5.09375 -3.265625 11.421875 -3.265625q4.125 0 7.71875 1.4375q3.609375 1.4375 6.296875 3.9375q2.6875 2.484375 4.2187195 5.703125q1.546875 3.21875 1.546875 6.671875l-2.015625 -1.4375l0 -12.1875q0 -1.25 0.765625 -2.109375q0.765625 -0.875 2.109375 -0.875zm-19.96872 44.640625q5.09375 0 9.03125 -2.640625q3.9375 -2.640625 6.1875 -7.296875q2.2499695 -4.65625 2.2499695 -10.40625q0 -5.671875 -2.2499695 -10.171875q-2.25 -4.515625 -6.1875 -7.203125q-3.9375 -2.6875 -9.03125 -2.6875q-4.984375 0 -8.96875 2.59375q-3.984375 2.59375 -6.25 7.109375q-2.25 4.5 -2.25 10.359375q0 5.75 2.203125 10.40625q2.21875 4.65625 6.203125 7.296875q3.984375 2.640625 9.0625 2.640625zm41.38571 4.421875q-1.25 0 -2.078125 -0.859375q-0.8125 -0.875 -0.8125 -2.015625l0 -65.28125q0 -1.15625 0.8125 -2.015625q0.828125 -0.875 2.078125 -0.875q1.234375 0 2.046875 0.875q0.828125 0.859375 0.828125 2.015625l0 65.28125q0 1.140625 -0.828125 2.015625q-0.8125 0.859375 -2.046875 0.859375zm32.640625 -49.25q1.046875 0 1.90625 0.921875q0.875 0.90625 0.875 1.953125q0 1.25 -1.0625 2.21875l-32.25 27.453125l-0.296875 -6.8125l28.796875 -24.765625q0.875 -0.96875 2.03125 -0.96875zm0.765625 49.25q-1.25 0 -2.109375 -1.0625l-21.890625 -23.21875l4.3125 -3.9375l21.703125 23.125q0.859375 0.96875 0.859375 2.21875q0 1.34375 -1.0625 2.109375q-1.046875 0.765625 -1.8125 0.765625zm34.1698 0.953125q-7.390625 0 -13.0625 -3.15625q-5.65625 -3.171875 -8.828125 -8.828125q-3.171875 -5.671875 -3.171875 -13.25q0 -8.171875 3.21875 -13.921875q3.21875 -5.765625 8.359375 -8.875q5.140625 -3.125 10.890625 -3.125q4.234375 0 8.203125 1.484375q3.984375 1.484375 7.0625 4.421875q3.078125 2.921875 4.984375 7.15625q1.921875 4.21875 2.03125 9.78125q0 1.15625 -0.875 1.96875q-0.859375 0.8125 -2.015625 0.8125l-38.484375 0l-1.15625 -5.1875l37.828125 0l-1.25 1.15625l0 -1.921875q-0.484375 -4.515625 -2.984375 -7.671875q-2.5 -3.171875 -6.0 -4.796875q-3.5 -1.640625 -7.34375 -1.640625q-2.875 0 -5.90625 1.15625q-3.015625 1.140625 -5.46875 3.59375q-2.453125 2.453125 -3.984375 6.25q-1.53125 3.78125 -1.53125 8.96875q0 5.65625 2.296875 10.265625q2.3125 4.609375 6.625 7.296875q4.328125 2.6875 10.46875 2.6875q3.265625 0 5.953125 -0.953125q2.6875 -0.96875 4.75 -2.546875q2.0625 -1.578125 3.40625 -3.3125q1.0625 -0.859375 2.015625 -0.859375q1.0625 0 1.78125 0.765625q0.71875 0.765625 0.71875 1.734375q0 1.140625 -0.96875 2.015625q-2.875 3.453125 -7.484375 6.0q-4.609375 2.53125 -10.078125 2.53125z" fill-rule="nonzero"/><path fill="#000000" d="m-1.1706036 437.22308l802.2362 0l0 50.582703l-802.2362 0z" fill-rule="evenodd"/><path stroke="#000000" stroke-width="1.0" stroke-linejoin="round" stroke-linecap="butt" d="m-1.1706036 437.22308l802.2362 0l0 50.582703l-802.2362 0z" fill-rule="evenodd"/><path fill="#000000" fill-opacity="0.0" d="m182.50656 437.22308l443.74802 0l0 50.582703l-443.74802 0z" fill-rule="evenodd"/><path fill="#ffffff" d="m209.39989 476.94308l0 -22.71875l2.25 0l0 20.734375l13.109375 0l0 1.984375l-15.359375 0zm18.218536 0l0 -16.671875l2.171875 0l0 16.671875l-2.171875 0zm0 -20.15625l0 -3.203125l2.171875 0l0 3.203125l-2.171875 0zm13.663513 20.375q-1.734375 0 -3.15625 -0.71875q-1.421875 -0.71875 -2.46875 -1.890625q-1.03125 -1.1875 -1.609375 -2.71875q-0.578125 -1.546875 -0.578125 -3.171875q0 -1.734375 0.5625 -3.3125q0.5625 -1.59375 1.578125 -2.765625q1.03125 -1.1875 2.453125 -1.890625q1.421875 -0.703125 3.15625 -0.703125q2.140625 0 3.703125 1.078125q1.5625 1.0625 2.6875 2.6875l0 -3.484375l1.953125 0l0 16.734375q0 1.734375 -0.65625 3.0625q-0.65625 1.328125 -1.765625 2.21875q-1.09375 0.890625 -2.59375 1.34375q-1.484375 0.453125 -3.140625 0.453125q-2.875 0 -4.640625 -1.03125q-1.765625 -1.015625 -2.84375 -2.75l1.34375 -1.0625q0.984375 1.609375 2.609375 2.359375q1.640625 0.75 3.53125 0.75q1.21875 0 2.296875 -0.34375q1.09375 -0.328125 1.90625 -0.984375q0.8125 -0.65625 1.296875 -1.671875q0.484375 -1.0 0.484375 -2.34375l0 -3.296875q-0.96875 1.609375 -2.640625 2.53125q-1.65625 0.921875 -3.46875 0.921875zm0.609375 -1.8125q0.953125 0 1.875 -0.34375q0.9375 -0.359375 1.6875 -0.953125q0.75 -0.59375 1.265625 -1.328125q0.515625 -0.734375 0.671875 -1.515625l0 -5.140625q-0.359375 -0.90625 -0.96875 -1.671875q-0.609375 -0.765625 -1.375 -1.3125q-0.765625 -0.546875 -1.640625 -0.859375q-0.875 -0.328125 -1.78125 -0.328125q-1.40625 0 -2.515625 0.59375q-1.09375 0.59375 -1.875 1.5625q-0.765625 0.953125 -1.171875 2.171875q-0.390625 1.21875 -0.390625 2.46875q0 1.34375 0.484375 2.5625q0.484375 1.203125 1.328125 2.125q0.84375 0.90625 1.96875 1.4375q1.125 0.53125 2.4375 0.53125zm26.494797 1.59375l-2.1875 0l0 -9.3125q0 -2.84375 -0.984375 -4.25q-0.96875 -1.40625 -2.84375 -1.40625q-0.9375 0 -1.859375 0.375q-0.90625 0.359375 -1.703125 1.0q-0.796875 0.640625 -1.390625 1.5q-0.59375 0.859375 -0.875 1.890625l0 10.203125l-2.171875 0l0 -23.359375l2.171875 0l0 10.46875q0.984375 -1.890625 2.75 -2.96875q1.765625 -1.09375 3.8125 -1.09375q1.4375 0 2.421875 0.53125q1.0 0.515625 1.640625 1.46875q0.640625 0.9375 0.921875 2.265625q0.296875 1.328125 0.296875 2.921875l0 9.765625zm12.480408 -0.796875q-0.203125 0.09375 -0.578125 0.25q-0.359375 0.15625 -0.84375 0.328125q-0.46875 0.15625 -1.078125 0.28125q-0.609375 0.125 -1.28125 0.125q-0.703125 0 -1.34375 -0.1875q-0.640625 -0.1875 -1.125 -0.578125q-0.46875 -0.40625 -0.765625 -1.015625q-0.28125 -0.609375 -0.28125 -1.421875l0 -11.921875l-2.3125 0l0 -1.734375l2.3125 0l0 -5.625l2.171875 0l0 5.625l3.84375 0l0 1.734375l-3.84375 0l0 11.328125q0.0625 0.921875 0.65625 1.359375q0.59375 0.421875 1.359375 0.421875q0.921875 0 1.625 -0.296875q0.703125 -0.3125 0.90625 -0.4375l0.578125 1.765625zm16.438782 -17.671875q-0.953125 -1.078125 -2.5625 -1.75q-1.59375 -0.671875 -3.640625 -0.671875q-3.015625 0 -4.390625 1.140625q-1.375 1.125 -1.375 3.078125q0 1.03125 0.359375 1.6875q0.375 0.640625 1.140625 1.125q0.78125 0.484375 1.96875 0.84375q1.203125 0.34375 2.84375 0.703125q1.8125 0.375 3.265625 0.859375q1.46875 0.484375 2.484375 1.203125q1.03125 0.71875 1.578125 1.75q0.546875 1.015625 0.546875 2.546875q0 1.5625 -0.609375 2.71875q-0.609375 1.15625 -1.703125 1.921875q-1.09375 0.765625 -2.59375 1.140625q-1.5 0.359375 -3.296875 0.359375q-5.28125 0 -9.109375 -3.296875l1.109375 -1.8125q0.609375 0.640625 1.453125 1.21875q0.859375 0.5625 1.890625 1.0q1.046875 0.4375 2.21875 0.671875q1.1875 0.234375 2.5 0.234375q2.71875 0 4.234375 -0.96875q1.53125 -0.984375 1.53125 -2.96875q0 -1.046875 -0.4375 -1.765625q-0.421875 -0.71875 -1.296875 -1.25q-0.859375 -0.53125 -2.140625 -0.90625q-1.28125 -0.390625 -2.96875 -0.78125q-1.796875 -0.40625 -3.140625 -0.859375q-1.34375 -0.453125 -2.28125 -1.125q-0.921875 -0.671875 -1.390625 -1.609375q-0.453125 -0.9375 -0.453125 -2.328125q0 -1.5625 0.59375 -2.796875q0.59375 -1.234375 1.671875 -2.046875q1.09375 -0.8125 2.5625 -1.234375q1.46875 -0.4375 3.265625 -0.4375q2.265625 0 4.046875 0.6875q1.78125 0.6875 3.21875 1.9375l-1.09375 1.78125zm14.205292 18.78125q-2.109375 0 -3.734375 -1.0625q-1.609375 -1.078125 -2.59375 -2.703125l0 10.265625l-2.171875 0l0 -23.484375l1.953125 0l0 3.234375q1.015625 -1.578125 2.640625 -2.546875q1.640625 -0.96875 3.5625 -0.96875q1.71875 0 3.15625 0.71875q1.453125 0.71875 2.5 1.921875q1.0625 1.1875 1.65625 2.765625q0.59375 1.5625 0.59375 3.234375q0 1.75 -0.546875 3.328125q-0.546875 1.5625 -1.5625 2.75q-1.0 1.171875 -2.390625 1.859375q-1.390625 0.6875 -3.0625 0.6875zm-0.609375 -1.90625q1.34375 0 2.453125 -0.578125q1.109375 -0.578125 1.890625 -1.515625q0.78125 -0.953125 1.1875 -2.15625q0.421875 -1.203125 0.421875 -2.46875q0 -1.34375 -0.484375 -2.5625q-0.46875 -1.21875 -1.3125 -2.140625q-0.828125 -0.9375 -1.96875 -1.484375q-1.125 -0.546875 -2.4375 -0.546875q-0.828125 0 -1.75 0.34375q-0.90625 0.328125 -1.6875 0.890625q-0.78125 0.5625 -1.34375 1.3125q-0.5625 0.75 -0.6875 1.59375l0 5.109375q0.375 0.90625 0.96875 1.671875q0.59375 0.765625 1.34375 1.328125q0.75 0.5625 1.609375 0.890625q0.875 0.3125 1.796875 0.3125zm19.040894 1.90625q-1.8125 0 -3.34375 -0.6875q-1.515625 -0.6875 -2.640625 -1.875q-1.109375 -1.203125 -1.734375 -2.765625q-0.625 -1.578125 -0.625 -3.375q0 -1.75 0.625 -3.296875q0.625 -1.5625 1.71875 -2.71875q1.109375 -1.171875 2.640625 -1.859375q1.546875 -0.6875 3.328125 -0.6875q1.828125 0 3.34375 0.6875q1.53125 0.6875 2.609375 1.875q1.09375 1.171875 1.703125 2.71875q0.609375 1.53125 0.609375 3.25q0 0.265625 0 0.53125q0 0.25 -0.03125 0.34375l-14.28125 0q0.09375 1.34375 0.625 2.484375q0.53125 1.125 1.359375 1.96875q0.84375 0.828125 1.90625 1.296875q1.078125 0.453125 2.296875 0.453125q0.796875 0 1.59375 -0.21875q0.796875 -0.234375 1.46875 -0.609375q0.671875 -0.390625 1.21875 -0.953125q0.546875 -0.5625 0.828125 -1.234375l1.890625 0.515625q-0.390625 0.9375 -1.09375 1.6875q-0.703125 0.75 -1.625 1.3125q-0.921875 0.5625 -2.046875 0.859375q-1.125 0.296875 -2.34375 0.296875zm6.15625 -9.53125q-0.109375 -1.34375 -0.640625 -2.4375q-0.515625 -1.109375 -1.34375 -1.90625q-0.8125 -0.8125 -1.890625 -1.25q-1.0625 -0.453125 -2.28125 -0.453125q-1.203125 0 -2.296875 0.453125q-1.09375 0.4375 -1.90625 1.25q-0.8125 0.796875 -1.3125 1.921875q-0.5 1.109375 -0.59375 2.421875l12.265625 0zm12.627808 9.53125q-1.8125 0 -3.34375 -0.6875q-1.515625 -0.6875 -2.640625 -1.875q-1.109375 -1.203125 -1.734375 -2.765625q-0.625 -1.578125 -0.625 -3.375q0 -1.75 0.625 -3.296875q0.625 -1.5625 1.71875 -2.71875q1.109375 -1.171875 2.640625 -1.859375q1.546875 -0.6875 3.328125 -0.6875q1.828125 0 3.34375 0.6875q1.53125 0.6875 2.609375 1.875q1.09375 1.171875 1.703125 2.71875q0.609375 1.53125 0.609375 3.25q0 0.265625 0 0.53125q0 0.25 -0.03125 0.34375l-14.28125 0q0.09375 1.34375 0.625 2.484375q0.53125 1.125 1.359375 1.96875q0.84375 0.828125 1.90625 1.296875q1.078125 0.453125 2.296875 0.453125q0.796875 0 1.59375 -0.21875q0.796875 -0.234375 1.46875 -0.609375q0.671875 -0.390625 1.21875 -0.953125q0.546875 -0.5625 0.828125 -1.234375l1.890625 0.515625q-0.390625 0.9375 -1.09375 1.6875q-0.703125 0.75 -1.625 1.3125q-0.921875 0.5625 -2.046875 0.859375q-1.125 0.296875 -2.34375 0.296875zm6.15625 -9.53125q-0.109375 -1.34375 -0.640625 -2.4375q-0.515625 -1.109375 -1.34375 -1.90625q-0.8125 -0.8125 -1.890625 -1.25q-1.0625 -0.453125 -2.28125 -0.453125q-1.203125 0 -2.296875 0.453125q-1.09375 0.4375 -1.90625 1.25q-0.8125 0.796875 -1.3125 1.921875q-0.5 1.109375 -0.59375 2.421875l12.265625 0zm12.284027 9.53125q-1.734375 0 -3.203125 -0.71875q-1.46875 -0.71875 -2.53125 -1.890625q-1.046875 -1.1875 -1.640625 -2.734375q-0.59375 -1.5625 -0.59375 -3.25q0 -1.765625 0.578125 -3.34375q0.578125 -1.59375 1.578125 -2.765625q1.015625 -1.1875 2.40625 -1.875q1.390625 -0.6875 3.046875 -0.6875q2.125 0 3.75 1.109375q1.625 1.09375 2.5625 2.65625l0 -10.171875l2.171875 0l0 20.546875q0 0.890625 0.765625 0.890625l0 1.921875q-0.484375 0.09375 -0.765625 0.09375q-0.765625 0 -1.34375 -0.484375q-0.578125 -0.5 -0.578125 -1.203125l0 -1.640625q-0.984375 1.640625 -2.6875 2.59375q-1.6875 0.953125 -3.515625 0.953125zm0.484375 -1.90625q0.796875 0 1.703125 -0.3125q0.921875 -0.328125 1.71875 -0.890625q0.796875 -0.5625 1.359375 -1.3125q0.5625 -0.75 0.6875 -1.625l0 -5.140625q-0.328125 -0.875 -0.9375 -1.625q-0.609375 -0.75 -1.390625 -1.328125q-0.78125 -0.578125 -1.6875 -0.890625q-0.890625 -0.328125 -1.75 -0.328125q-1.34375 0 -2.4375 0.578125q-1.078125 0.578125 -1.859375 1.53125q-0.78125 0.9375 -1.203125 2.15625q-0.421875 1.21875 -0.421875 2.5q0 1.34375 0.484375 2.5625q0.484375 1.203125 1.3125 2.125q0.828125 0.90625 1.96875 1.453125q1.140625 0.546875 2.453125 0.546875zm30.329681 1.75q-2.375 0 -4.34375 -0.96875q-1.953125 -0.984375 -3.375 -2.59375q-1.40625 -1.625 -2.171875 -3.703125q-0.765625 -2.078125 -0.765625 -4.25q0 -2.265625 0.8125 -4.34375q0.8125 -2.09375 2.25 -3.6875q1.453125 -1.59375 3.40625 -2.53125q1.953125 -0.953125 4.21875 -0.953125q2.375 0 4.34375 1.015625q1.96875 1.0 3.359375 2.640625q1.390625 1.625 2.15625 3.6875q0.765625 2.0625 0.765625 4.203125q0 2.265625 -0.8125 4.359375q-0.8125 2.078125 -2.25 3.65625q-1.421875 1.578125 -3.375 2.53125q-1.953125 0.9375 -4.21875 0.9375zm-8.421875 -11.515625q0 1.859375 0.609375 3.578125q0.609375 1.703125 1.734375 3.03125q1.125 1.328125 2.65625 2.109375q1.53125 0.78125 3.421875 0.78125q1.921875 0 3.484375 -0.828125q1.578125 -0.828125 2.65625 -2.171875q1.09375 -1.34375 1.6875 -3.03125q0.59375 -1.703125 0.59375 -3.46875q0 -1.859375 -0.625 -3.5625q-0.625 -1.71875 -1.75 -3.03125q-1.125 -1.3125 -2.65625 -2.09375q-1.53125 -0.78125 -3.390625 -0.78125q-1.921875 0 -3.5 0.8125q-1.5625 0.8125 -2.65625 2.15625q-1.078125 1.34375 -1.671875 3.046875q-0.59375 1.6875 -0.59375 3.453125zm31.172668 -3.390625q-2.203125 0.0625 -3.84375 1.21875q-1.625 1.140625 -2.296875 3.15625l0 10.375l-2.171875 0l0 -16.671875l2.046875 0l0 4.0q0.921875 -1.921875 2.484375 -3.0q1.578125 -1.09375 3.359375 -1.09375q0.265625 0 0.421875 0.03125l0 1.984375zm2.9195251 14.75l0 -16.671875l2.171875 0l0 16.671875l-2.171875 0zm0 -20.15625l0 -3.203125l2.171875 0l0 3.203125l-2.171875 0zm13.663513 20.375q-1.734375 0 -3.15625 -0.71875q-1.421875 -0.71875 -2.46875 -1.890625q-1.03125 -1.1875 -1.609375 -2.71875q-0.578125 -1.546875 -0.578125 -3.171875q0 -1.734375 0.5625 -3.3125q0.5625 -1.59375 1.578125 -2.765625q1.03125 -1.1875 2.453125 -1.890625q1.421875 -0.703125 3.15625 -0.703125q2.140625 0 3.703125 1.078125q1.5625 1.0625 2.6875 2.6875l0 -3.484375l1.953125 0l0 16.734375q0 1.734375 -0.65625 3.0625q-0.65625 1.328125 -1.765625 2.21875q-1.09375 0.890625 -2.59375 1.34375q-1.484375 0.453125 -3.140625 0.453125q-2.875 0 -4.640625 -1.03125q-1.765625 -1.015625 -2.84375 -2.75l1.34375 -1.0625q0.984375 1.609375 2.609375 2.359375q1.640625 0.75 3.53125 0.75q1.21875 0 2.296875 -0.34375q1.09375 -0.328125 1.90625 -0.984375q0.8125 -0.65625 1.296875 -1.671875q0.484375 -1.0 0.484375 -2.34375l0 -3.296875q-0.96875 1.609375 -2.640625 2.53125q-1.65625 0.921875 -3.46875 0.921875zm0.609375 -1.8125q0.953125 0 1.875 -0.34375q0.9375 -0.359375 1.6875 -0.953125q0.75 -0.59375 1.265625 -1.328125q0.515625 -0.734375 0.671875 -1.515625l0 -5.140625q-0.359375 -0.90625 -0.96875 -1.671875q-0.609375 -0.765625 -1.375 -1.3125q-0.765625 -0.546875 -1.640625 -0.859375q-0.875 -0.328125 -1.78125 -0.328125q-1.40625 0 -2.515625 0.59375q-1.09375 0.59375 -1.875 1.5625q-0.765625 0.953125 -1.171875 2.171875q-0.390625 1.21875 -0.390625 2.46875q0 1.34375 0.484375 2.5625q0.484375 1.203125 1.328125 2.125q0.84375 0.90625 1.96875 1.4375q1.125 0.53125 2.4375 0.53125zm12.4791565 1.59375l0 -16.671875l2.171875 0l0 16.671875l-2.171875 0zm0 -20.15625l0 -3.203125l2.171875 0l0 3.203125l-2.171875 0zm20.991638 20.15625l-2.1875 0l0 -9.3125q0 -2.96875 -0.875 -4.3125q-0.875 -1.34375 -2.703125 -1.34375q-0.953125 0 -1.921875 0.359375q-0.953125 0.34375 -1.78125 0.984375q-0.8125 0.640625 -1.453125 1.515625q-0.640625 0.875 -0.921875 1.90625l0 10.203125l-2.171875 0l0 -16.671875l1.984375 0l0 3.78125q1.015625 -1.828125 2.921875 -2.9375q1.90625 -1.125 4.140625 -1.125q1.375 0 2.328125 0.515625q0.96875 0.5 1.546875 1.4375q0.578125 0.921875 0.828125 2.265625q0.265625 1.34375 0.265625 2.96875l0 9.765625zm8.827942 0.3125q-1.1875 0 -2.203125 -0.390625q-1.0 -0.40625 -1.75 -1.109375q-0.75 -0.703125 -1.171875 -1.640625q-0.40625 -0.953125 -0.40625 -2.03125q0 -1.09375 0.5 -2.015625q0.515625 -0.9375 1.4375 -1.609375q0.9375 -0.671875 2.21875 -1.03125q1.28125 -0.375 2.8125 -0.375q1.28125 0 2.59375 0.234375q1.3125 0.21875 2.328125 0.625l0 -1.5q0 -2.203125 -1.25 -3.5q-1.234375 -1.296875 -3.453125 -1.296875q-1.28125 0 -2.625 0.515625q-1.34375 0.515625 -2.71875 1.46875l-0.765625 -1.4375q3.234375 -2.171875 6.28125 -2.171875q3.125 0 4.921875 1.765625q1.796875 1.75 1.796875 4.84375l0 7.53125q0 0.890625 0.796875 0.890625l0 1.921875q-0.546875 0.09375 -0.828125 0.09375q-0.84375 0 -1.3125 -0.40625q-0.453125 -0.421875 -0.484375 -1.15625l-0.0625 -1.3125q-1.15625 1.5 -2.90625 2.296875q-1.734375 0.796875 -3.75 0.796875zm0.515625 -1.65625q1.6875 0 3.109375 -0.640625q1.421875 -0.640625 2.171875 -1.703125q0.28125 -0.28125 0.421875 -0.609375q0.140625 -0.34375 0.140625 -0.625l0 -2.71875q-1.078125 -0.421875 -2.25 -0.640625q-1.171875 -0.234375 -2.390625 -0.234375q-2.296875 0 -3.734375 0.96875q-1.4375 0.953125 -1.4375 2.515625q0 0.78125 0.296875 1.453125q0.3125 0.671875 0.828125 1.171875q0.53125 0.484375 1.265625 0.78125q0.734375 0.28125 1.578125 0.28125zm12.830627 -22.015625l2.171875 0l0 19.578125q0 0.9375 0.515625 1.46875q0.515625 0.515625 1.4375 0.515625q0.34375 0 0.828125 -0.09375q0.484375 -0.09375 0.90625 -0.25l0.375 1.75q-0.609375 0.265625 -1.484375 0.421875q-0.875 0.15625 -1.515625 0.15625q-1.515625 0 -2.375 -0.84375q-0.859375 -0.84375 -0.859375 -2.390625l0 -20.3125zm16.12207 27.515625l0 -28.953125l1.890625 0l0 28.953125l-1.890625 0zm32.739594 -10.015625q0 1.28125 -0.515625 2.359375q-0.515625 1.0625 -1.375 1.859375q-0.859375 0.78125 -2.015625 1.21875q-1.15625 0.421875 -2.46875 0.421875l-10.71875 0l0 -22.71875l10.953125 0q1.171875 0 2.125 0.515625q0.96875 0.5 1.640625 1.328125q0.671875 0.8125 1.03125 1.859375q0.375 1.03125 0.375 2.09375q0 1.71875 -0.859375 3.140625q-0.859375 1.421875 -2.390625 2.140625q1.9375 0.5625 3.078125 2.140625q1.140625 1.5625 1.140625 3.640625zm-2.234375 -0.375q0 -0.84375 -0.296875 -1.625q-0.28125 -0.78125 -0.8125 -1.375q-0.53125 -0.59375 -1.25 -0.953125q-0.71875 -0.375 -1.546875 -0.375l-8.703125 0l0 8.609375l8.46875 0q0.875 0 1.625 -0.34375q0.75 -0.359375 1.3125 -0.953125q0.5625 -0.59375 0.875 -1.375q0.328125 -0.78125 0.328125 -1.609375zm-12.609375 -14.53125l0 8.375l7.796875 0q0.84375 0 1.5625 -0.34375q0.71875 -0.359375 1.21875 -0.921875q0.515625 -0.578125 0.796875 -1.328125q0.296875 -0.765625 0.296875 -1.59375q0 -0.859375 -0.28125 -1.625q-0.265625 -0.765625 -0.765625 -1.328125q-0.484375 -0.5625 -1.15625 -0.890625q-0.671875 -0.34375 -1.46875 -0.34375l-8.0 0zm34.327698 18.78125l0 1.984375l-15.265625 0l0 -22.71875l14.984375 0l0 1.984375l-12.734375 0l0 8.1875l11.09375 0l0 1.890625l-11.09375 0l0 8.671875l13.015625 0zm20.347412 -18.75l-8.09375 0l0 20.734375l-2.234375 0l0 -20.734375l-8.09375 0l0 -1.984375l18.421875 0l0 1.984375zm8.201904 -1.984375l1.890625 0l9.4375 22.71875l-2.375 0l-2.9375 -7.109375l-10.203125 0l-2.921875 7.109375l-2.390625 0l9.5 -22.71875zm5.5 13.859375l-4.578125 -11.234375l-4.640625 11.234375l9.21875 0z" fill-rule="nonzero"/></g></svg>