<svg version="1.1" viewBox="0.0 0.0 802.2309711286089 487.7979002624672" fill="none" stroke="none" stroke-linecap="square" stroke-miterlimit="10" xmlns:xlink="http://www.w3.org/1999/xlink" xmlns="http://www.w3.org/2000/svg"><clipPath id="p.0"><path d="m0 0l802.23096 0l0 487.7979l-802.23096 0l0 -487.7979z" clip-rule="nonzero"/></clipPath><g clip-path="url(#p.0)"><path fill="#0000ff" d="m0 0l802.23096 0l0 487.7979l-802.23096 0z" fill-rule="evenodd"/><path fill="#000000" fill-opacity="0.0" d="m-0.0131233595 141.40158l802.2362 0l0 117.98425l-802.2362 0z" fill-rule="evenodd"/><path fill="#ffffff" d="m66.5 242.56157l0 -68.15625l6.71875 0l0 62.203125l39.359375 0l0 5.953125l-46.078125 0zm54.62422 0l0 -50.015625l6.53125 0l0 50.015625l-6.53125 0zm0 -60.484375l0 -9.59375l6.53125 0l0 9.59375l-6.53125 0zm40.990494 61.15625q-5.1875 0 -9.46875 -2.15625q-4.265625 -2.15625 -7.390625 -5.703125q-3.109375 -3.5625 -4.84375 -8.171875q-1.71875 -4.609375 -1.71875 -9.5q0 -5.1875 1.671875 -9.9375q1.6875 -4.75 4.75 -8.296875q3.078125 -3.5625 7.34375 -5.671875q4.28125 -2.109375 9.46875 -2.109375q6.421875 0 11.125 3.21875q4.703125 3.203125 8.0625 8.109375l0 -10.46875l5.859375 0l0 50.203125q0 5.1875 -1.96875 9.171875q-1.96875 3.984375 -5.28125 6.6718903q-3.3125 2.6875 -7.78125 4.03125q-4.453125 1.34375 -9.453125 1.34375q-8.625 0 -13.90625 -3.078125q-5.28125 -3.0625 -8.546875 -8.250015l4.03125 -3.171875q2.96875 4.8125 7.859375 7.0625153q4.90625 2.25 10.5625 2.25q3.65625 0 6.921875 -1.015625q3.265625 -1.0 5.703125 -2.9687653q2.453125 -1.96875 3.890625 -5.0q1.4375 -3.015625 1.4375 -7.046875l0 -9.890625q-2.875 4.8125 -7.875 7.59375q-4.984375 2.78125 -10.453125 2.78125zm1.828125 -5.46875q2.875 0 5.65625 -1.046875q2.78125 -1.0625 5.03125 -2.84375q2.265625 -1.78125 3.796875 -3.984375q1.546875 -2.203125 2.015625 -4.515625l0 -15.453125q-1.046875 -2.6875 -2.875 -4.984375q-1.828125 -2.3125 -4.140625 -3.9375q-2.296875 -1.640625 -4.9375 -2.59375q-2.625 -0.96875 -5.328125 -0.96875q-4.21875 0 -7.53125 1.78125q-3.3125 1.78125 -5.625 4.65625q-2.296875 2.875 -3.5 6.53125q-1.1875 3.640625 -1.1875 7.390625q0 4.03125 1.4375 7.6875q1.4375 3.640625 3.984375 6.375q2.546875 2.734375 5.90625 4.328125q3.359375 1.578125 7.296875 1.578125zm79.48422 4.796875l-6.53125 0l0 -27.9375q0 -8.546875 -2.9375 -12.765625q-2.921875 -4.21875 -8.578125 -4.21875q-2.78125 0 -5.53125 1.109375q-2.734375 1.09375 -5.140625 3.015625q-2.390625 1.921875 -4.171875 4.515625q-1.765625 2.578125 -2.625 5.65625l0 30.625l-6.53125 0l0 -70.078125l6.53125 0l0 31.390625q2.96875 -5.671875 8.25 -8.921875q5.28125 -3.265625 11.421875 -3.265625q4.328125 0 7.296875 1.578125q2.984375 1.578125 4.890625 4.421875q1.921875 2.828125 2.78125 6.8125q0.875 3.984375 0.875 8.78125l0 29.28125zm37.4411 -2.40625q-0.578125 0.296875 -1.6875 0.78125q-1.09375 0.46875 -2.546875 0.953125q-1.4375 0.484375 -3.265625 0.859375q-1.8125 0.390625 -3.828125 0.390625q-2.109375 0 -4.03125 -0.578125q-1.921875 -0.578125 -3.359375 -1.765625q-1.4375 -1.203125 -2.3125 -3.03125q-0.859375 -1.828125 -0.859375 -4.234375l0 -35.796875l-6.90625 0l0 -5.1875l6.90625 0l0 -16.890625l6.53125 0l0 16.890625l11.515625 0l0 5.1875l-11.515625 0l0 33.984375q0.1875 2.78125 1.953125 4.078125q1.78125 1.296875 4.09375 1.296875q2.78125 0 4.890625 -0.90625q2.109375 -0.921875 2.6875 -1.3125l1.734375 5.28125zm49.347473 -52.984375q-2.890625 -3.265625 -7.6875 -5.28125q-4.796875 -2.015625 -10.9375 -2.015625q-9.03125 0 -13.15625 3.40625q-4.125 3.40625 -4.125 9.265625q0 3.078125 1.09375 5.046875q1.109375 1.953125 3.40625 3.40625q2.3125 1.4375 5.90625 2.5q3.609375 1.046875 8.5 2.109375q5.46875 1.140625 9.828125 2.59375q4.375 1.4375 7.453125 3.59375q3.078125 2.15625 4.703125 5.234375q1.640625 3.0625 1.640625 7.671875q0 4.703125 -1.828125 8.171875q-1.828125 3.453125 -5.09375 5.765625q-3.265625 2.296875 -7.78125 3.40625q-4.5 1.09375 -9.875 1.09375q-15.84375 0 -27.359375 -9.890625l3.359375 -5.46875q1.8125 1.921875 4.359375 3.65625q2.546875 1.71875 5.65625 3.015625q3.125 1.296875 6.671875 2.015625q3.5625 0.71875 7.5 0.71875q8.15625 0 12.71875 -2.921875q4.5625 -2.9375 4.5625 -8.890625q0 -3.171875 -1.296875 -5.328125q-1.296875 -2.15625 -3.890625 -3.734375q-2.59375 -1.59375 -6.4375 -2.734375q-3.828125 -1.15625 -8.921875 -2.3125q-5.375 -1.25 -9.40625 -2.59375q-4.03125 -1.34375 -6.8125 -3.359375q-2.78125 -2.015625 -4.1875 -4.84375q-1.390625 -2.828125 -1.390625 -6.96875q0 -4.703125 1.78125 -8.390625q1.78125 -3.703125 5.03125 -6.140625q3.265625 -2.453125 7.6875 -3.75q4.421875 -1.296875 9.796875 -1.296875q6.8125 0 12.140625 2.0625q5.328125 2.0625 9.640625 5.8125l-3.25 5.375zm42.615723 56.34375q-6.328125 0 -11.1875 -3.203125q-4.84375 -3.21875 -7.8125 -8.125l0 30.82814l-6.53125 0l0 -70.468765l5.859375 0l0 9.703125q3.0625 -4.71875 7.953125 -7.640625q4.90625 -2.921875 10.671875 -2.921875q5.171875 0 9.484375 2.15625q4.328125 2.15625 7.5 5.765625q3.171875 3.59375 4.9375 8.296875q1.78125 4.703125 1.78125 9.703125q0 5.265625 -1.640625 9.984375q-1.625 4.703125 -4.65625 8.25q-3.015625 3.546875 -7.1875 5.609375q-4.171875 2.0625 -9.171875 2.0625zm-1.828125 -5.75q4.03125 0 7.34375 -1.71875q3.3125 -1.734375 5.65625 -4.5625q2.359375 -2.84375 3.609375 -6.4375q1.25 -3.609375 1.25 -7.4375q0 -4.03125 -1.4375 -7.671875q-1.4375 -3.65625 -3.9375 -6.4375q-2.5 -2.796875 -5.90625 -4.421875q-3.40625 -1.640625 -7.34375 -1.640625q-2.5 0 -5.234375 1.015625q-2.734375 1.0 -5.09375 2.6875q-2.34375 1.671875 -4.03125 3.9375q-1.671875 2.25 -2.046875 4.75l0 15.359375q1.140625 2.6875 2.921875 5.0q1.78125 2.296875 4.03125 3.984375q2.25 1.671875 4.84375 2.640625q2.59375 0.953125 5.375 0.953125zm57.12262 5.75q-5.46875 0 -10.03125 -2.0625q-4.5625 -2.0625 -7.921875 -5.65625q-3.359375 -3.609375 -5.234375 -8.3125q-1.859375 -4.703125 -1.859375 -10.078125q0 -5.28125 1.859375 -9.9375q1.875 -4.65625 5.1875 -8.15625q3.3125 -3.5 7.921875 -5.5625q4.609375 -2.0625 9.984375 -2.0625q5.46875 0 10.03125 2.0625q4.5625 2.0625 7.828125 5.625q3.265625 3.546875 5.078125 8.15625q1.828125 4.59375 1.828125 9.78125q0 0.765625 0 1.546875q0 0.765625 -0.09375 1.046875l-42.8125 0q0.28125 4.03125 1.859375 7.4375q1.59375 3.40625 4.09375 5.90625q2.5 2.5 5.703125 3.890625q3.21875 1.390625 6.875 1.390625q2.390625 0 4.78125 -0.671875q2.40625 -0.671875 4.421875 -1.828125q2.015625 -1.15625 3.640625 -2.828125q1.640625 -1.6875 2.515625 -3.703125l5.65625 1.546875q-1.15625 2.78125 -3.265625 5.046875q-2.109375 2.25 -4.890625 3.9375q-2.78125 1.671875 -6.140625 2.578125q-3.359375 0.90625 -7.015625 0.90625zm18.4375 -28.59375q-0.296875 -4.046875 -1.875 -7.34375q-1.578125 -3.3125 -4.03125 -5.71875q-2.453125 -2.40625 -5.671875 -3.75q-3.203125 -1.34375 -6.859375 -1.34375q-3.640625 0 -6.90625 1.34375q-3.265625 1.34375 -5.71875 3.75q-2.4375 2.40625 -3.9375 5.765625q-1.484375 3.359375 -1.765625 7.296875l36.765625 0zm37.91449 28.59375q-5.46875 0 -10.03125 -2.0625q-4.5625 -2.0625 -7.921875 -5.65625q-3.359375 -3.609375 -5.234375 -8.3125q-1.859375 -4.703125 -1.859375 -10.078125q0 -5.28125 1.859375 -9.9375q1.875 -4.65625 5.1875 -8.15625q3.3125 -3.5 7.921875 -5.5625q4.609375 -2.0625 9.984375 -2.0625q5.46875 0 10.03125 2.0625q4.5625 2.0625 7.828125 5.625q3.265625 3.546875 5.078125 8.15625q1.828125 4.59375 1.828125 9.78125q0 0.765625 0 1.546875q0 0.765625 -0.09375 1.046875l-42.8125 0q0.28125 4.03125 1.859375 7.4375q1.59375 3.40625 4.09375 5.90625q2.5 2.5 5.703125 3.890625q3.21875 1.390625 6.875 1.390625q2.390625 0 4.78125 -0.671875q2.40625 -0.671875 4.421875 -1.828125q2.015625 -1.15625 3.640625 -2.828125q1.640625 -1.6875 2.515625 -3.703125l5.65625 1.546875q-1.15625 2.78125 -3.265625 5.046875q-2.109375 2.25 -4.890625 3.9375q-2.78125 1.671875 -6.140625 2.578125q-3.359375 0.90625 -7.015625 0.90625zm18.4375 -28.59375q-0.296875 -4.046875 -1.875 -7.34375q-1.578125 -3.3125 -4.03125 -5.71875q-2.453125 -2.40625 -5.671875 -3.75q-3.203125 -1.34375 -6.859375 -1.34375q-3.640625 0 -6.90625 1.34375q-3.265625 1.34375 -5.71875 3.75q-2.4375 2.40625 -3.9375 5.765625q-1.484375 3.359375 -1.765625 7.296875l36.765625 0zm36.867615 28.59375q-5.1875 0 -9.609375 -2.15625q-4.40625 -2.15625 -7.578125 -5.703125q-3.171875 -3.5625 -4.953125 -8.21875q-1.765625 -4.65625 -1.765625 -9.734375q0 -5.28125 1.71875 -10.03125q1.734375 -4.75 4.75 -8.296875q3.03125 -3.5625 7.203125 -5.625q4.1875 -2.0625 9.171875 -2.0625q6.34375 0 11.234375 3.3125q4.890625 3.3125 7.671875 8.015625l0 -30.53125l6.53125 0l0 61.625q0 2.6875 2.3125 2.6875l0 5.765625q-1.453125 0.28125 -2.3125 0.28125q-2.296875 0 -4.03125 -1.484375q-1.71875 -1.484375 -1.71875 -3.59375l0 -4.90625q-2.984375 4.90625 -8.078125 7.78125q-5.078125 2.875 -10.546875 2.875zm1.4375 -5.75q2.390625 0 5.125 -0.953125q2.75 -0.96875 5.140625 -2.640625q2.40625 -1.6875 4.078125 -3.9375q1.6875 -2.265625 2.0625 -4.859375l0 -15.453125q-0.953125 -2.59375 -2.78125 -4.84375q-1.828125 -2.265625 -4.1875 -3.984375q-2.34375 -1.734375 -5.03125 -2.6875q-2.6875 -0.96875 -5.28125 -0.96875q-4.03125 0 -7.296875 1.734375q-3.25 1.734375 -5.609375 4.5625q-2.34375 2.828125 -3.59375 6.484375q-1.25 3.640625 -1.25 7.484375q0 4.03125 1.4375 7.6875q1.4375 3.640625 3.9375 6.375q2.5 2.734375 5.90625 4.375q3.40625 1.625 7.34375 1.625zm63.55133 4.796875l0 -68.15625l28.21875 0q4.421875 0 8.109375 1.875q3.703125 1.859375 6.390625 4.890625q2.6875 3.015625 4.21875 6.859375q1.546875 3.84375 1.546875 7.78125q0 4.21875 -1.453125 8.109375q-1.4375 3.890625 -4.03125 6.875q-2.59375 2.96875 -6.1875 4.796875q-3.59375 1.8125 -8.015625 1.8125l-22.078125 0l0 25.15625l-6.71875 0zm6.71875 -31.109375l21.796875 0q2.96875 0 5.40625 -1.296875q2.453125 -1.296875 4.1875 -3.453125q1.734375 -2.15625 2.6875 -4.984375q0.953125 -2.84375 0.953125 -5.90625q0 -3.171875 -1.109375 -6.0q-1.09375 -2.828125 -2.96875 -4.9375q-1.859375 -2.125 -4.40625 -3.3125q-2.546875 -1.203125 -5.328125 -1.203125l-21.21875 0l0 31.09375zm76.6026 -13.140625q-6.625 0.1875 -11.515625 3.640625q-4.890625 3.453125 -6.90625 9.5l0 31.109375l-6.53125 0l0 -50.015625l6.140625 0l0 12.0q2.78125 -5.765625 7.484375 -9.015625q4.703125 -3.265625 10.078125 -3.265625q0.78125 0 1.25 0.09375l0 5.953125zm27.559326 45.203125q-5.46875 0 -9.984375 -2.0625q-4.515625 -2.0625 -7.828125 -5.609375q-3.3125 -3.546875 -5.140625 -8.25q-1.8125 -4.71875 -1.8125 -9.890625q0 -5.28125 1.859375 -9.984375q1.875 -4.703125 5.1875 -8.25q3.3125 -3.5625 7.828125 -5.671875q4.515625 -2.109375 9.890625 -2.109375q5.375 0 9.9375 2.109375q4.5625 2.109375 7.859375 5.671875q3.3125 3.546875 5.1875 8.25q1.875 4.703125 1.875 9.984375q0 5.171875 -1.828125 9.890625q-1.8125 4.703125 -5.125 8.25q-3.3125 3.546875 -7.875 5.609375q-4.5625 2.0625 -10.03125 2.0625zm-18.140625 -25.71875q0 4.21875 1.4375 7.828125q1.4375 3.59375 3.875 6.328125q2.453125 2.734375 5.765625 4.28125q3.3125 1.53125 7.0625 1.53125q3.734375 0 7.046875 -1.578125q3.3125 -1.59375 5.8125 -4.328125q2.5 -2.734375 3.9375 -6.375q1.4375 -3.65625 1.4375 -7.875q0 -4.140625 -1.4375 -7.828125q-1.4375 -3.703125 -3.9375 -6.4375q-2.5 -2.734375 -5.8125 -4.3125q-3.3125 -1.59375 -7.046875 -1.59375q-3.75 0 -7.015625 1.59375q-3.265625 1.578125 -5.765625 4.359375q-2.484375 2.78125 -3.921875 6.484375q-1.4375 3.703125 -1.4375 7.921875z" fill-rule="nonzero"/><path fill="#ffffff" d="m302.70993 347.5772q-9.515625 10.46875 -21.890625 10.46875q-6.921875 0 -12.734375 -2.96875q-5.796875 -2.984375 -10.078125 -7.875q-4.265625 -4.90625 -6.671875 -11.09375q-2.390625 -6.1875 -2.390625 -12.71875q0 -6.8125 2.34375 -13.046875q2.359375 -6.25 6.578125 -11.0q4.234375 -4.75 9.984375 -7.578125q5.765625 -2.84375 12.578125 -2.84375q5.0 0 9.125 1.109375q4.125 1.09375 7.34375 3.0625q3.21875 1.96875 5.5625 4.703125q2.359375 2.734375 3.984375 6.0l-5.171875 3.46875q-3.375 -6.34375 -8.75 -9.3125q-5.375 -2.984375 -12.1875 -2.984375q-5.65625 0 -10.21875 2.40625q-4.5625 2.390625 -7.78125 6.375q-3.21875 3.984375 -4.953125 9.125q-1.71875 5.140625 -1.71875 10.609375q0 5.765625 1.96875 10.953125q1.96875 5.171875 5.421875 9.0625q3.453125 3.890625 8.109375 6.203125q4.65625 2.296875 10.140625 2.296875q5.84375 0 11.171875 -2.734375q5.328125 -2.75 10.234375 -8.6875l0 -11.328125l-15.171875 0l0 -5.1875l20.828125 0l0 33.5l-5.65625 0l0 -9.984375zm30.720337 10.9375q-3.5625 0 -6.59375 -1.1875q-3.015625 -1.203125 -5.28125 -3.3125q-2.25 -2.109375 -3.5 -4.9375q-1.234375 -2.84375 -1.234375 -6.109375q0 -3.265625 1.53125 -6.046875q1.53125 -2.78125 4.3125 -4.796875q2.796875 -2.015625 6.625 -3.109375q3.84375 -1.109375 8.453125 -1.109375q3.84375 0 7.78125 0.671875q3.9375 0.671875 7.0 1.90625l0 -4.5q0 -6.625 -3.75 -10.515625q-3.734375 -3.890625 -10.359375 -3.890625q-3.84375 0 -7.875 1.546875q-4.03125 1.53125 -8.15625 4.40625l-2.296875 -4.328125q9.6875 -6.515625 18.8125 -6.515625q9.40625 0 14.78125 5.28125q5.375 5.28125 5.375 14.578125l0 22.5625q0 2.6875 2.40625 2.6875l0 5.765625q-1.640625 0.28125 -2.5 0.28125q-2.5 0 -3.890625 -1.234375q-1.390625 -1.25 -1.484375 -3.46875l-0.1875 -3.9375q-3.46875 4.515625 -8.703125 6.921875q-5.21875 2.390625 -11.265625 2.390625zm1.53125 -4.984375q5.09375 0 9.359375 -1.921875q4.265625 -1.921875 6.484375 -5.09375q0.859375 -0.859375 1.28125 -1.859375q0.4375 -1.015625 0.4375 -1.875l0 -8.15625q-3.265625 -1.25 -6.765625 -1.921875q-3.5 -0.671875 -7.15625 -0.671875q-6.90625 0 -11.234375 2.875q-4.3125 2.875 -4.3125 7.578125q0 2.3125 0.90625 4.328125q0.921875 2.015625 2.5 3.5q1.59375 1.484375 3.796875 2.359375q2.203125 0.859375 4.703125 0.859375zm112.60123 4.03125l-6.515625 0l0 -27.9375q0 -8.734375 -2.796875 -12.859375q-2.78125 -4.125 -8.25 -4.125q-2.875 0 -5.421875 1.0625q-2.546875 1.046875 -4.703125 2.96875q-2.15625 1.921875 -3.796875 4.5625q-1.625 2.625 -2.5 5.796875l0 30.53125l-6.515625 0l0 -27.9375q0 -8.921875 -2.6875 -12.953125q-2.6875 -4.03125 -8.265625 -4.03125q-5.65625 0 -10.078125 3.9375q-4.421875 3.921875 -6.328125 10.359375l0 30.625l-6.53125 0l0 -50.015625l5.953125 0l0 11.328125q3.0625 -5.765625 8.046875 -8.96875q5.0 -3.21875 11.046875 -3.21875q6.34375 0 10.125 3.546875q3.796875 3.546875 4.671875 9.3125q7.0 -12.859375 19.296875 -12.859375q4.21875 0 7.140625 1.53125q2.9375 1.53125 4.703125 4.375q1.78125 2.828125 2.59375 6.8125q0.8125 3.984375 0.8125 8.875l0 29.28125zm35.427063 0.953125q-5.46875 0 -10.03125 -2.0625q-4.5625 -2.0625 -7.921875 -5.65625q-3.359375 -3.609375 -5.234375 -8.3125q-1.859375 -4.703125 -1.859375 -10.078125q0 -5.28125 1.859375 -9.9375q1.875 -4.65625 5.1875 -8.15625q3.3125 -3.5 7.921875 -5.5625q4.609375 -2.0625 9.984375 -2.0625q5.46875 0 10.03125 2.0625q4.5625 2.0625 7.828125 5.625q3.265625 3.546875 5.078125 8.15625q1.828125 4.59375 1.828125 9.78125q0 0.765625 0 1.546875q0 0.765625 -0.09375 1.046875l-42.8125 0q0.28125 4.03125 1.859375 7.4375q1.59375 3.40625 4.09375 5.90625q2.5 2.5 5.703125 3.890625q3.21875 1.390625 6.875 1.390625q2.390625 0 4.78125 -0.671875q2.40625 -0.671875 4.421875 -1.828125q2.015625 -1.15625 3.640625 -2.828125q1.640625 -1.6875 2.515625 -3.703125l5.65625 1.546875q-1.15625 2.78125 -3.265625 5.046875q-2.109375 2.25 -4.890625 3.9375q-2.78125 1.671875 -6.140625 2.578125q-3.359375 0.90625 -7.015625 0.90625zm18.4375 -28.59375q-0.296875 -4.046875 -1.875 -7.34375q-1.578125 -3.3125 -4.03125 -5.71875q-2.453125 -2.40625 -5.671875 -3.75q-3.203125 -1.34375 -6.859375 -1.34375q-3.640625 0 -6.90625 1.34375q-3.265625 1.34375 -5.71875 3.75q-2.4375 2.40625 -3.9375 5.765625q-1.484375 3.359375 -1.765625 7.296875l36.765625 0zm32.930115 28.59375q-5.859375 0 -11.4375 -1.90625q-5.5625 -1.921875 -9.59375 -5.578125l2.984375 -4.40625q4.21875 3.453125 8.578125 5.1875q4.375 1.71875 9.375 1.71875q6.046875 0 9.640625 -2.4375q3.59375 -2.453125 3.59375 -6.96875q0 -2.109375 -0.953125 -3.5q-0.953125 -1.40625 -2.828125 -2.453125q-1.875 -1.0625 -4.71875 -1.875q-2.828125 -0.8125 -6.5625 -1.671875q-4.328125 -1.0625 -7.5 -2.109375q-3.15625 -1.0625 -5.21875 -2.40625q-2.0625 -1.34375 -3.078125 -3.3125q-1.0 -1.96875 -1.0 -4.953125q0 -3.734375 1.484375 -6.609375q1.484375 -2.890625 4.03125 -4.75q2.546875 -1.875 5.953125 -2.828125q3.40625 -0.96875 7.25 -0.96875q5.75 0 10.453125 1.875q4.703125 1.859375 7.59375 4.9375l-3.171875 3.84375q-2.78125 -2.890625 -6.765625 -4.328125q-3.984375 -1.4375 -8.3125 -1.4375q-2.578125 0 -4.796875 0.53125q-2.203125 0.53125 -3.890625 1.6875q-1.671875 1.140625 -2.640625 2.921875q-0.953125 1.765625 -0.953125 4.171875q0 2.015625 0.671875 3.265625q0.671875 1.25 2.203125 2.15625q1.546875 0.90625 3.890625 1.640625q2.359375 0.71875 5.71875 1.484375q4.796875 1.15625 8.4375 2.3125q3.65625 1.140625 6.09375 2.6875q2.453125 1.53125 3.703125 3.734375q1.25 2.203125 1.25 5.375q0 6.90625 -5.28125 10.9375q-5.28125 4.03125 -14.203125 4.03125z" fill-rule="nonzero"/></g></svg>