<svg version="1.1" viewBox="0.0 0.0 802.2309711286089 487.7979002624672" fill="none" stroke="none" stroke-linecap="square" stroke-miterlimit="10" xmlns:xlink="http://www.w3.org/1999/xlink" xmlns="http://www.w3.org/2000/svg"><clipPath id="p.0"><path d="m0 0l802.23096 0l0 487.7979l-802.23096 0l0 -487.7979z" clip-rule="nonzero"/></clipPath><g clip-path="url(#p.0)"><path fill="#999999" d="m0 0l802.23096 0l0 487.7979l-802.23096 0z" fill-rule="evenodd"/><path fill="#000000" fill-opacity="0.0" d="m64.784775 135.80511l672.6614 0l0 77.19685l-672.6614 0z" fill-rule="evenodd"/><path fill="#000000" d="m229.50612 236.96512l0 -68.71875l13.6875 0l16.26564 48.65625q2.25 6.796875 3.28125 10.171875q1.171875 -3.75 3.65625 -11.015625l16.453125 -47.8125l12.234375 0l0 68.71875l-8.765625 0l0 -57.515625l-19.96875 57.515625l-8.203125 0l-19.875015 -58.5l0 58.5l-8.765625 0zm111.656265 -6.140625q-4.6875 3.984375 -9.03125 5.625q-4.328125 1.640625 -9.296875 1.640625q-8.203125 0 -12.609375 -4.0q-4.40625 -4.015625 -4.40625 -10.25q0 -3.65625 1.65625 -6.671875q1.671875 -3.03125 4.359375 -4.859375q2.703125 -1.828125 6.078125 -2.765625q2.484375 -0.65625 7.5 -1.265625q10.21875 -1.21875 15.046875 -2.90625q0.046875 -1.734375 0.046875 -2.203125q0 -5.15625 -2.390625 -7.265625q-3.234375 -2.859375 -9.609375 -2.859375q-5.953125 0 -8.796875 2.09375q-2.828125 2.078125 -4.1875 7.375l-8.25 -1.125q1.125 -5.296875 3.703125 -8.546875q2.578125 -3.265625 7.453125 -5.015625q4.875 -1.765625 11.296875 -1.765625q6.375 0 10.359375 1.5q3.984375 1.5 5.859375 3.78125q1.875 2.265625 2.625 5.734375q0.421875 2.15625 0.421875 7.78125l0 11.25q0 11.765625 0.53125 14.890625q0.546875 3.109375 2.140625 5.96875l-8.8125 0q-1.3125 -2.625 -1.6875 -6.140625zm-0.703125 -18.84375q-4.59375 1.875 -13.78125 3.1875q-5.203125 0.75 -7.359375 1.6875q-2.15625 0.9375 -3.328125 2.75q-1.171875 1.796875 -1.171875 4.0q0 3.375 2.546875 5.625q2.5625 2.25 7.484375 2.25q4.875 0 8.671875 -2.125q3.796875 -2.140625 5.578125 -5.84375q1.359375 -2.859375 1.359375 -8.4375l0 -3.09375zm17.15625 24.984375l0 -6.84375l31.6875 -36.375q-5.390625 0.28125 -9.515625 0.28125l-20.296875 0l0 -6.84375l40.6875 0l0 5.578125l-26.953125 31.59375l-5.203125 5.765625q5.671875 -0.421875 10.640625 -0.421875l23.015625 0l0 7.265625l-44.0625 0zm86.53125 -16.03125l8.71875 1.078125q-2.0625 7.640625 -7.640625 11.859375q-5.578125 4.21875 -14.25 4.21875q-10.921875 0 -17.328125 -6.71875q-6.390625 -6.734375 -6.390625 -18.875q0 -12.5625 6.46875 -19.5q6.46875 -6.9375 16.78125 -6.9375q9.984375 0 16.3125 6.796875q6.328125 6.796875 6.328125 19.125q0 0.75 -0.046875 2.25l-37.125 0q0.46875 8.203125 4.640625 12.5625q4.171875 4.359375 10.40625 4.359375q4.640625 0 7.921875 -2.4375q3.28125 -2.4375 5.203125 -7.78125zm-27.703125 -13.640625l27.796875 0q-0.5625 -6.28125 -3.1875 -9.421875q-4.03125 -4.875 -10.453125 -4.875q-5.8125 0 -9.78125 3.890625q-3.953125 3.890625 -4.375 10.40625zm44.71875 11.53125l8.4375 -1.125q1.453125 7.171875 4.9375 10.34375q3.5 3.15625 8.515625 3.15625q5.953125 0 10.046875 -4.125q4.109375 -4.125 4.109375 -10.21875q0 -5.8125 -3.796875 -9.578125q-3.796875 -3.78125 -9.65625 -3.78125q-2.390625 0 -5.953125 0.9375l0.9375 -7.40625q0.84375 0.09375 1.359375 0.09375q5.390625 0 9.703125 -2.8125q4.3125 -2.8125 4.3125 -8.671875q0 -4.640625 -3.140625 -7.6875q-3.140625 -3.046875 -8.109375 -3.046875q-4.921875 0 -8.203125 3.09375q-3.28125 3.09375 -4.21875 9.28125l-8.4375 -1.5q1.546875 -8.484375 7.03125 -13.140625q5.484375 -4.671875 13.640625 -4.671875q5.625 0 10.359375 2.421875q4.734375 2.40625 7.234375 6.578125q2.515625 4.171875 2.515625 8.859375q0 4.453125 -2.390625 8.109375q-2.390625 3.65625 -7.078125 5.8125q6.09375 1.40625 9.46875 5.84375q3.375 4.421875 3.375 11.078125q0 9.0 -6.5625 15.265625q-6.5625 6.25 -16.59375 6.25q-9.046875 0 -15.03125 -5.390625q-5.96875 -5.390625 -6.8125 -13.96875zm56.765594 18.140625l0 -68.71875l23.671875 0q8.015625 0 12.234375 0.984375q5.90625 1.359375 10.078125 4.921875q5.4375 4.59375 8.125 11.75q2.703125 7.140625 2.703125 16.328125q0 7.828125 -1.828125 13.875q-1.828125 6.046875 -4.6875 10.015625q-2.859375 3.953125 -6.265625 6.234375q-3.390625 2.265625 -8.203125 3.4375q-4.796875 1.171875 -11.03125 1.171875l-24.796875 0zm9.09375 -8.109375l14.671875 0q6.796875 0 10.65625 -1.265625q3.875 -1.265625 6.171875 -3.5625q3.234375 -3.234375 5.03125 -8.6875q1.8125 -5.46875 1.8125 -13.25q0 -10.78125 -3.546875 -16.5625q-3.53125 -5.796875 -8.59375 -7.765625q-3.65625 -1.40625 -11.765625 -1.40625l-14.4375 0l0 52.5z" fill-rule="nonzero"/></g></svg>