<svg version="1.1" viewBox="0.0 0.0 802.2309711286089 487.7979002624672" fill="none" stroke="none" stroke-linecap="square" stroke-miterlimit="10" xmlns:xlink="http://www.w3.org/1999/xlink" xmlns="http://www.w3.org/2000/svg"><clipPath id="p.0"><path d="m0 0l802.23096 0l0 487.7979l-802.23096 0l0 -487.7979z" clip-rule="nonzero"/></clipPath><g clip-path="url(#p.0)"><defs><linearGradient id="p.1" gradientUnits="userSpaceOnUse" gradientTransform="matrix(22.086212992131635 0.0 0.0 22.086212992131635 0.0 0.0)" spreadMethod="pad" x1="4.759846189606251E-10" y1="-1.3148782644994443E-4" x2="-7.99513970052988E-5" y2="22.08608150416047"><stop offset="0.0" stop-color="#3177ee"/><stop offset="1.0" stop-color="#113d8a"/></linearGradient></defs><path fill="url(#p.1)" d="m0 0l802.23096 0l0 487.7979l-802.23096 0z" fill-rule="evenodd"/><path fill="#000000" fill-opacity="0.0" d="m-15.813648 150.4567l833.8583 0l0 156.78738l-833.8583 0z" fill-rule="evenodd"/><path fill="#000000" d="m45.732677 251.61668l0 -68.71875l25.921871 0q6.84375 0 10.453125 0.65625q5.0625 0.84375 8.484375 3.21875q3.421875 2.359375 5.5 6.625q2.09375 4.265625 2.09375 9.375q0 8.765625 -5.578125 14.84375q-5.578125 6.0625 -20.15625 6.0625l-17.624996 0l0 27.9375l-9.09375 0zm9.09375 -36.046875l17.765621 0q8.8125 0 12.515625 -3.28125q3.703125 -3.28125 3.703125 -9.234375q0 -4.3125 -2.1875 -7.375q-2.171875 -3.078125 -5.734375 -4.0625q-2.296875 -0.609375 -8.484375 -0.609375l-17.578121 0l0 24.5625zm50.718746 11.15625q0 -13.828125 7.6875 -20.484375q6.421875 -5.53125 15.656258 -5.53125q10.265625 0 16.78125 6.734375q6.515625 6.71875 6.515625 18.578125q0 9.609375 -2.890625 15.125q-2.875 5.5 -8.390625 8.546875q-5.5 3.046875 -12.015625 3.046875q-10.453133 0 -16.906258 -6.703125q-6.4375 -6.703125 -6.4375 -19.3125zm8.671875 0q0 9.5625 4.171875 14.328125q4.171875 4.75 10.500008 4.75q6.28125 0 10.453125 -4.78125q4.171875 -4.78125 4.171875 -14.578125q0 -9.234375 -4.203125 -13.984375q-4.1875 -4.765625 -10.421875 -4.765625q-6.3281326 0 -10.500008 4.734375q-4.171875 4.734375 -4.171875 14.296875zm47.906258 -34.125l0 -9.703125l8.4375 0l0 9.703125l-8.4375 0zm0 59.015625l0 -49.78125l8.4375 0l0 49.78125l-8.4375 0zm21.28125 0l0 -49.78125l7.59375 0l0 7.078125q5.484375 -8.203125 15.84375 -8.203125q4.5 0 8.265625 1.625q3.78125 1.609375 5.65625 4.234375q1.875 2.625 2.625 6.234375q0.46875 2.34375 0.46875 8.203125l0 30.609375l-8.4375 0l0 -30.28125q0 -5.15625 -0.984375 -7.703125q-0.984375 -2.5625 -3.5 -4.078125q-2.5 -1.53125 -5.875 -1.53125q-5.390625 0 -9.3125 3.421875q-3.90625 3.421875 -3.90625 12.984375l0 27.1875l-8.4375 0zm71.8125 -7.546875l1.2187347 7.453125q-3.5624847 0.75 -6.3749847 0.75q-4.59375 0 -7.125 -1.453125q-2.53125 -1.453125 -3.5625 -3.8125q-1.03125 -2.375 -1.03125 -9.96875l0 -28.640625l-6.1875 0l0 -6.5625l6.1875 0l0 -12.328125l8.390625 -5.0625l0 17.390625l8.484375 0l0 6.5625l-8.484375 0l0 29.109375q0 3.609375 0.4375 4.640625q0.453125 1.03125 1.453125 1.640625q1.015625 0.609375 2.890625 0.609375q1.40625 0 3.703125 -0.328125zm8.062485 7.546875l0 -68.71875l8.4375 0l0 68.71875l-8.4375 0zm55.59375 -16.03125l8.71875 1.078125q-2.0625 7.640625 -7.640625 11.859375q-5.578125 4.21875 -14.25 4.21875q-10.921875 0 -17.328125 -6.71875q-6.390625 -6.734375 -6.390625 -18.875q0 -12.5625 6.46875 -19.5q6.46875 -6.9375 16.78125 -6.9375q9.984375 0 16.3125 6.796875q6.328125 6.796875 6.328125 19.125q0 0.75 -0.046875 2.25l-37.125 0q0.46875 8.203125 4.640625 12.5625q4.171875 4.359375 10.40625 4.359375q4.640625 0 7.921875 -2.4375q3.28125 -2.4375 5.203125 -7.78125zm-27.703125 -13.640625l27.796875 0q-0.5625 -6.28125 -3.1875 -9.421875q-4.03125 -4.875 -10.453125 -4.875q-5.8125 0 -9.78125 3.890625q-3.953125 3.890625 -4.375 10.40625zm43.640625 14.8125l8.34375 -1.3125q0.703125 5.015625 3.90625 7.6875q3.21875 2.671875 8.984375 2.671875q5.8125 0 8.625 -2.359375q2.8125 -2.375 2.8125 -5.5625q0 -2.859375 -2.484375 -4.5q-1.734375 -1.125 -8.625 -2.859375q-9.28125 -2.34375 -12.875 -4.046875q-3.578125 -1.71875 -5.4375 -4.734375q-1.84375 -3.03125 -1.84375 -6.6875q0 -3.328125 1.515625 -6.15625q1.53125 -2.84375 4.15625 -4.71875q1.96875 -1.453125 5.359375 -2.453125q3.40625 -1.015625 7.296875 -1.015625q5.859375 0 10.28125 1.6875q4.4375 1.6875 6.546875 4.578125q2.109375 2.875 2.90625 7.703125l-8.25 1.125q-0.5625 -3.84375 -3.265625 -6.0q-2.6875 -2.15625 -7.609375 -2.15625q-5.8125 0 -8.296875 1.921875q-2.484375 1.921875 -2.484375 4.5q0 1.640625 1.03125 2.953125q1.03125 1.359375 3.234375 2.25q1.265625 0.46875 7.453125 2.15625q8.953125 2.390625 12.484375 3.921875q3.546875 1.515625 5.5625 4.421875q2.015625 2.90625 2.015625 7.21875q0 4.21875 -2.46875 7.953125q-2.453125 3.71875 -7.09375 5.765625q-4.640625 2.03125 -10.5 2.03125q-9.703125 0 -14.796875 -4.03125q-5.078125 -4.03125 -6.484375 -11.953125zm48.0 0l8.34375 -1.3125q0.703125 5.015625 3.90625 7.6875q3.21875 2.671875 8.984375 2.671875q5.8125 0 8.625 -2.359375q2.8125 -2.375 2.8125 -5.5625q0 -2.859375 -2.484375 -4.5q-1.734375 -1.125 -8.625 -2.859375q-9.28125 -2.34375 -12.875 -4.046875q-3.578125 -1.71875 -5.4375 -4.734375q-1.84375 -3.03125 -1.84375 -6.6875q0 -3.328125 1.515625 -6.15625q1.53125 -2.84375 4.15625 -4.71875q1.96875 -1.453125 5.359375 -2.453125q3.40625 -1.015625 7.296875 -1.015625q5.859375 0 10.28125 1.6875q4.4375 1.6875 6.546875 4.578125q2.109375 2.875 2.90625 7.703125l-8.25 1.125q-0.5625 -3.84375 -3.265625 -6.0q-2.6875 -2.15625 -7.609375 -2.15625q-5.8125 0 -8.296875 1.921875q-2.484375 1.921875 -2.484375 4.5q0 1.640625 1.03125 2.953125q1.03125 1.359375 3.234375 2.25q1.265625 0.46875 7.453125 2.15625q8.953125 2.390625 12.484375 3.921875q3.546875 1.515625 5.5625 4.421875q2.015625 2.90625 2.015625 7.21875q0 4.21875 -2.46875 7.953125q-2.453125 3.71875 -7.09375 5.765625q-4.640625 2.03125 -10.5 2.03125q-9.703125 0 -14.796875 -4.03125q-5.078125 -4.03125 -6.484375 -11.953125zm128.15625 -9.234375l9.09375 2.296875q-2.859375 11.203125 -10.296875 17.09375q-7.421875 5.875 -18.15625 5.875q-11.109375 0 -18.078125 -4.515625q-6.953125 -4.53125 -10.59375 -13.109375q-3.625 -8.578125 -3.625 -18.421875q0 -10.734375 4.09375 -18.71875q4.109375 -8.0 11.671875 -12.140625q7.578125 -4.15625 16.671875 -4.15625q10.3125 0 17.34375 5.25q7.03125 5.25 9.796875 14.765625l-8.953125 2.109375q-2.390625 -7.5 -6.9375 -10.921875q-4.546875 -3.421875 -11.4375 -3.421875q-7.921875 0 -13.25 3.796875q-5.3125 3.796875 -7.46875 10.203125q-2.15625 6.390625 -2.15625 13.1875q0 8.765625 2.546875 15.3125q2.5625 6.53125 7.953125 9.765625q5.390625 3.234375 11.671875 3.234375q7.640625 0 12.9375 -4.40625q5.296875 -4.40625 7.171875 -13.078125zm19.03125 24.09375l0 -68.71875l8.4375 0l0 68.71875l-8.4375 0zm54.0 -6.140625q-4.6875 3.984375 -9.03125 5.625q-4.328125 1.640625 -9.296875 1.640625q-8.203125 0 -12.609375 -4.0q-4.40625 -4.015625 -4.40625 -10.25q0 -3.65625 1.65625 -6.671875q1.671875 -3.03125 4.359375 -4.859375q2.703125 -1.828125 6.078125 -2.765625q2.484375 -0.65625 7.5 -1.265625q10.21875 -1.21875 15.046875 -2.90625q0.046875 -1.734375 0.046875 -2.203125q0 -5.15625 -2.390625 -7.265625q-3.234375 -2.859375 -9.609375 -2.859375q-5.953125 0 -8.796875 2.09375q-2.828125 2.078125 -4.1875 7.375l-8.25 -1.125q1.125 -5.296875 3.703125 -8.546875q2.578125 -3.265625 7.453125 -5.015625q4.875 -1.765625 11.296875 -1.765625q6.375 0 10.359375 1.5q3.984375 1.5 5.859375 3.78125q1.875 2.265625 2.625 5.734375q0.421875 2.15625 0.421875 7.78125l0 11.25q0 11.765625 0.53125 14.890625q0.546875 3.109375 2.140625 5.96875l-8.8125 0q-1.3125 -2.625 -1.6875 -6.140625zm-0.703125 -18.84375q-4.59375 1.875 -13.78125 3.1875q-5.203125 0.75 -7.359375 1.6875q-2.15625 0.9375 -3.328125 2.75q-1.171875 1.796875 -1.171875 4.0q0 3.375 2.546875 5.625q2.5625 2.25 7.484375 2.25q4.875 0 8.671875 -2.125q3.796875 -2.140625 5.578125 -5.84375q1.359375 -2.859375 1.359375 -8.4375l0 -3.09375zm18.234375 10.125l8.34375 -1.3125q0.703125 5.015625 3.90625 7.6875q3.21875 2.671875 8.984375 2.671875q5.8125 0 8.625 -2.359375q2.8125 -2.375 2.8125 -5.5625q0 -2.859375 -2.484375 -4.5q-1.734375 -1.125 -8.625 -2.859375q-9.28125 -2.34375 -12.875 -4.046875q-3.578125 -1.71875 -5.4375 -4.734375q-1.84375 -3.03125 -1.84375 -6.6875q0 -3.328125 1.515625 -6.15625q1.53125 -2.84375 4.15625 -4.71875q1.96875 -1.453125 5.359375 -2.453125q3.40625 -1.015625 7.296875 -1.015625q5.859375 0 10.28125 1.6875q4.4375 1.6875 6.546875 4.578125q2.109375 2.875 2.90625 7.703125l-8.25 1.125q-0.5625 -3.84375 -3.265625 -6.0q-2.6875 -2.15625 -7.609375 -2.15625q-5.8125 0 -8.296875 1.921875q-2.484375 1.921875 -2.484375 4.5q0 1.640625 1.03125 2.953125q1.03125 1.359375 3.234375 2.25q1.265625 0.46875 7.453125 2.15625q8.953125 2.390625 12.484375 3.921875q3.546875 1.515625 5.5625 4.421875q2.015625 2.90625 2.015625 7.21875q0 4.21875 -2.46875 7.953125q-2.453125 3.71875 -7.09375 5.765625q-4.640625 2.03125 -10.5 2.03125q-9.703125 0 -14.796875 -4.03125q-5.078125 -4.03125 -6.484375 -11.953125zm48.0 0l8.34375 -1.3125q0.703125 5.015625 3.90625 7.6875q3.21875 2.671875 8.984375 2.671875q5.8125 0 8.625 -2.359375q2.8125 -2.375 2.8125 -5.5625q0 -2.859375 -2.484375 -4.5q-1.734375 -1.125 -8.625 -2.859375q-9.28125 -2.34375 -12.875 -4.046875q-3.578125 -1.71875 -5.4375 -4.734375q-1.84375 -3.03125 -1.84375 -6.6875q0 -3.328125 1.515625 -6.15625q1.53125 -2.84375 4.15625 -4.71875q1.96875 -1.453125 5.359375 -2.453125q3.40625 -1.015625 7.296875 -1.015625q5.859375 0 10.28125 1.6875q4.4375 1.6875 6.546875 4.578125q2.109375 2.875 2.90625 7.703125l-8.25 1.125q-0.5625 -3.84375 -3.265625 -6.0q-2.6875 -2.15625 -7.609375 -2.15625q-5.8125 0 -8.296875 1.921875q-2.484375 1.921875 -2.484375 4.5q0 1.640625 1.03125 2.953125q1.03125 1.359375 3.234375 2.25q1.265625 0.46875 7.453125 2.15625q8.953125 2.390625 12.484375 3.921875q3.546875 1.515625 5.5625 4.421875q2.015625 2.90625 2.015625 7.21875q0 4.21875 -2.46875 7.953125q-2.453125 3.71875 -7.09375 5.765625q-4.640625 2.03125 -10.5 2.03125q-9.703125 0 -14.796875 -4.03125q-5.078125 -4.03125 -6.484375 -11.953125zm51.421875 -44.15625l0 -9.703125l8.4375 0l0 9.703125l-8.4375 0zm0 59.015625l0 -49.78125l8.4375 0l0 49.78125l-8.4375 0zm53.765625 -18.234375l8.296875 1.078125q-1.359375 8.578125 -6.96875 13.4375q-5.59375 4.84375 -13.75 4.84375q-10.21875 0 -16.4375 -6.671875q-6.203125 -6.6875 -6.203125 -19.15625q0 -8.0625 2.671875 -14.109375q2.671875 -6.046875 8.125 -9.0625q5.46875 -3.03125 11.890625 -3.03125q8.109375 0 13.265625 4.109375q5.15625 4.09375 6.609375 11.640625l-8.203125 1.265625q-1.171875 -5.015625 -4.15625 -7.546875q-2.96875 -2.53125 -7.1875 -2.53125q-6.375 0 -10.359375 4.578125q-3.984375 4.5625 -3.984375 14.453125q0 10.03125 3.84375 14.578125q3.84375 4.546875 10.03125 4.546875q4.96875 0 8.296875 -3.046875q3.328125 -3.046875 4.21875 -9.375z" fill-rule="nonzero"/></g></svg>