<svg version="1.1" viewBox="0.0 0.0 802.2309711286089 487.7979002624672" fill="none" stroke="none" stroke-linecap="square" stroke-miterlimit="10" xmlns:xlink="http://www.w3.org/1999/xlink" xmlns="http://www.w3.org/2000/svg"><clipPath id="p.0"><path d="m0 0l802.23096 0l0 487.7979l-802.23096 0l0 -487.7979z" clip-rule="nonzero"/></clipPath><g clip-path="url(#p.0)"><path fill="#000000" d="m0 0l802.23096 0l0 487.7979l-802.23096 0z" fill-rule="evenodd"/><path fill="#000000" fill-opacity="0.0" d="m61.98163 122.74016l678.2677 0l0 156.7874l-678.2677 0z" fill-rule="evenodd"/><path fill="#0000ff" d="m248.46704 223.90015l0 -68.71875l25.921875 0q6.84375 0 10.453125 0.65625q5.0625 0.84375 8.484375 3.21875q3.421875 2.359375 5.5 6.625q2.09375 4.265625 2.09375 9.375q0 8.765625 -5.578125 14.84375q-5.578125 6.0625 -20.15625 6.0625l-17.625 0l0 27.9375l-9.09375 0zm9.09375 -36.046875l17.765625 0q8.8125 0 12.515625 -3.28125q3.703125 -3.28125 3.703125 -9.234375q0 -4.3125 -2.1875 -7.375q-2.171875 -3.078125 -5.734375 -4.0625q-2.296875 -0.609375 -8.484375 -0.609375l-17.578125 0l0 24.5625zm86.34375 29.90625q-4.6875 3.984375 -9.03125 5.625q-4.328125 1.640625 -9.296875 1.640625q-8.203125 0 -12.609375 -4.0q-4.40625 -4.015625 -4.40625 -10.25q0 -3.65625 1.65625 -6.671875q1.671875 -3.03125 4.359375 -4.859375q2.703125 -1.828125 6.078125 -2.765625q2.484375 -0.65625 7.5 -1.265625q10.21875 -1.21875 15.046875 -2.90625q0.046875 -1.734375 0.046875 -2.203125q0 -5.15625 -2.390625 -7.265625q-3.234375 -2.859375 -9.609375 -2.859375q-5.953125 0 -8.796875 2.09375q-2.828125 2.078125 -4.1875 7.375l-8.25 -1.125q1.125 -5.296875 3.703125 -8.546875q2.578125 -3.265625 7.453125 -5.015625q4.875 -1.765625 11.296875 -1.765625q6.375 0 10.359375 1.5q3.984375 1.5 5.859375 3.78125q1.875 2.265625 2.625 5.734375q0.421875 2.15625 0.421875 7.78125l0 11.25q0 11.765625 0.53125 14.890625q0.546875 3.109375 2.140625 5.96875l-8.8125 0q-1.3125 -2.625 -1.6875 -6.140625zm-0.703125 -18.84375q-4.59375 1.875 -13.78125 3.1875q-5.203125 0.75 -7.359375 1.6875q-2.15625 0.9375 -3.328125 2.75q-1.171875 1.796875 -1.171875 4.0q0 3.375 2.546875 5.625q2.5625 2.25 7.484375 2.25q4.875 0 8.671875 -2.125q3.796875 -2.140625 5.578125 -5.84375q1.359375 -2.859375 1.359375 -8.4375l0 -3.09375zm21.515625 24.984375l0 -49.78125l7.59375 0l0 7.546875q2.90625 -5.296875 5.359375 -6.984375q2.46875 -1.6875 5.421875 -1.6875q4.265625 0 8.671875 2.71875l-2.90625 7.828125q-3.09375 -1.828125 -6.1875 -1.828125q-2.765625 0 -4.96875 1.671875q-2.203125 1.65625 -3.140625 4.609375q-1.40625 4.5 -1.40625 9.84375l0 26.0625l-8.4375 0zm50.484375 -7.546875l1.21875 7.453125q-3.5625 0.75 -6.375 0.75q-4.59375 0 -7.125 -1.453125q-2.53125 -1.453125 -3.5625 -3.8125q-1.03125 -2.375 -1.03125 -9.96875l0 -28.640625l-6.1875 0l0 -6.5625l6.1875 0l0 -12.328125l8.390625 -5.0625l0 17.390625l8.484375 0l0 6.5625l-8.484375 0l0 29.109375q0 3.609375 0.4375 4.640625q0.453125 1.03125 1.453125 1.640625q1.015625 0.609375 2.890625 0.609375q1.40625 0 3.703125 -0.328125zm8.296875 -51.46875l0 -9.703125l8.4375 0l0 9.703125l-8.4375 0zm0 59.015625l0 -49.78125l8.4375 0l0 49.78125l-8.4375 0zm53.765625 -18.234375l8.296875 1.078125q-1.359375 8.578125 -6.96875 13.4375q-5.59375 4.84375 -13.75 4.84375q-10.21875 0 -16.4375 -6.671875q-6.203125 -6.6875 -6.203125 -19.15625q0 -8.0625 2.671875 -14.109375q2.671875 -6.046875 8.125 -9.0625q5.46875 -3.03125 11.890625 -3.03125q8.109375 0 13.265625 4.109375q5.15625 4.09375 6.609375 11.640625l-8.203125 1.265625q-1.171875 -5.015625 -4.15625 -7.546875q-2.96875 -2.53125 -7.1875 -2.53125q-6.375 0 -10.359375 4.578125q-3.984375 4.5625 -3.984375 14.453125q0 10.03125 3.84375 14.578125q3.84375 4.546875 10.03125 4.546875q4.96875 0 8.296875 -3.046875q3.328125 -3.046875 4.21875 -9.375zm15.328125 18.234375l0 -68.71875l8.4375 0l0 68.71875l-8.4375 0zm55.59375 -16.03125l8.71875 1.078125q-2.0625 7.640625 -7.640625 11.859375q-5.578125 4.21875 -14.25 4.21875q-10.921875 0 -17.328125 -6.71875q-6.390625 -6.734375 -6.390625 -18.875q0 -12.5625 6.46875 -19.5q6.46875 -6.9375 16.78125 -6.9375q9.984375 0 16.3125 6.796875q6.328125 6.796875 6.328125 19.125q0 0.75 -0.046875 2.25l-37.125 0q0.46875 8.203125 4.640625 12.5625q4.171875 4.359375 10.40625 4.359375q4.640625 0 7.921875 -2.4375q3.28125 -2.4375 5.203125 -7.78125zm-27.703125 -13.640625l27.796875 0q-0.5625 -6.28125 -3.1875 -9.421875q-4.03125 -4.875 -10.453125 -4.875q-5.8125 0 -9.78125 3.890625q-3.953125 3.890625 -4.375 10.40625z" fill-rule="nonzero"/><path fill="#0000ff" d="m219.26392 338.90015l0 -68.71875l49.6875 0l0 8.109375l-40.59375 0l0 21.046875l38.015625 0l0 8.0625l-38.015625 0l0 23.390625l42.1875 0l0 8.109375l-51.28125 0zm57.140625 0l18.1875 -25.875l-16.828125 -23.90625l10.546875 0l7.640625 11.671875q2.15625 3.328125 3.46875 5.578125q2.0625 -3.09375 3.796875 -5.484375l8.390625 -11.765625l10.078125 0l-17.203125 23.4375l18.515625 26.34375l-10.359375 0l-10.21875 -15.46875l-2.71875 -4.171875l-13.078125 19.640625l-10.21875 0zm53.625 19.078125l0 -68.859375l7.6875 0l0 6.46875q2.71875 -3.796875 6.140625 -5.6875q3.421875 -1.90625 8.296875 -1.90625q6.375 0 11.25 3.28125q4.875 3.28125 7.359375 9.265625q2.484375 5.96875 2.484375 13.09375q0 7.640625 -2.75 13.765625q-2.734375 6.109375 -7.96875 9.375q-5.21875 3.25 -10.984375 3.25q-4.21875 0 -7.578125 -1.78125q-3.34375 -1.78125 -5.5 -4.5l0 24.234375l-8.4375 0zm7.640625 -43.6875q0 9.609375 3.890625 14.203125q3.890625 4.59375 9.421875 4.59375q5.625 0 9.625 -4.75q4.015625 -4.765625 4.015625 -14.75q0 -9.515625 -3.921875 -14.25q-3.90625 -4.734375 -9.34375 -4.734375q-5.390625 0 -9.546875 5.046875q-4.140625 5.03125 -4.140625 14.640625zm45.5625 24.609375l0 -68.71875l8.4375 0l0 68.71875l-8.4375 0zm18.375 -24.890625q0 -13.828125 7.6875 -20.484375q6.421875 -5.53125 15.65625 -5.53125q10.265625 0 16.78125 6.734375q6.515625 6.71875 6.515625 18.578125q0 9.609375 -2.890625 15.125q-2.875 5.5 -8.390625 8.546875q-5.5 3.046875 -12.015625 3.046875q-10.453125 0 -16.90625 -6.703125q-6.4375 -6.703125 -6.4375 -19.3125zm8.671875 0q0 9.5625 4.171875 14.328125q4.171875 4.75 10.5 4.75q6.28125 0 10.453125 -4.78125q4.171875 -4.78125 4.171875 -14.578125q0 -9.234375 -4.203125 -13.984375q-4.1875 -4.765625 -10.421875 -4.765625q-6.328125 0 -10.5 4.734375q-4.171875 4.734375 -4.171875 14.296875zm80.15625 24.890625l0 -6.28125q-4.734375 7.40625 -13.921875 7.40625q-5.953125 0 -10.953125 -3.28125q-4.984375 -3.28125 -7.734375 -9.15625q-2.734375 -5.890625 -2.734375 -13.53125q0 -7.453125 2.484375 -13.515625q2.484375 -6.078125 7.453125 -9.3125q4.96875 -3.234375 11.109375 -3.234375q4.5 0 8.015625 1.90625q3.515625 1.890625 5.71875 4.9375l0 -24.65625l8.390625 0l0 68.71875l-7.828125 0zm-26.671875 -24.84375q0 9.5625 4.03125 14.296875q4.03125 4.734375 9.515625 4.734375q5.53125 0 9.390625 -4.515625q3.875 -4.53125 3.875 -13.8125q0 -10.21875 -3.9375 -15.0q-3.9375 -4.78125 -9.703125 -4.78125q-5.625 0 -9.40625 4.59375q-3.765625 4.59375 -3.765625 14.484375zm81.84375 8.8125l8.71875 1.078125q-2.0625 7.640625 -7.640625 11.859375q-5.578125 4.21875 -14.25 4.21875q-10.921875 0 -17.328125 -6.71875q-6.390625 -6.734375 -6.390625 -18.875q0 -12.5625 6.46875 -19.5q6.46875 -6.9375 16.78125 -6.9375q9.984375 0 16.3125 6.796875q6.328125 6.796875 6.328125 19.125q0 0.75 -0.046875 2.25l-37.125 0q0.46875 8.203125 4.640625 12.5625q4.171875 4.359375 10.40625 4.359375q4.640625 0 7.921875 -2.4375q3.28125 -2.4375 5.203125 -7.78125zm-27.703125 -13.640625l27.796875 0q-0.5625 -6.28125 -3.1875 -9.421875q-4.03125 -4.875 -10.453125 -4.875q-5.8125 0 -9.78125 3.890625q-3.953125 3.890625 -4.375 10.40625zm46.921875 29.671875l0 -49.78125l7.59375 0l0 7.546875q2.90625 -5.296875 5.359375 -6.984375q2.46875 -1.6875 5.421875 -1.6875q4.265625 0 8.671875 2.71875l-2.90625 7.828125q-3.09375 -1.828125 -6.1875 -1.828125q-2.765625 0 -4.96875 1.671875q-2.203125 1.65625 -3.140625 4.609375q-1.40625 4.5 -1.40625 9.84375l0 26.0625l-8.4375 0z" fill-rule="nonzero"/></g></svg>