<svg version="1.1" viewBox="0.0 0.0 802.2309711286089 487.7979002624672" fill="none" stroke="none" stroke-linecap="square" stroke-miterlimit="10" xmlns:xlink="http://www.w3.org/1999/xlink" xmlns="http://www.w3.org/2000/svg"><clipPath id="p.0"><path d="m0 0l802.23096 0l0 487.7979l-802.23096 0l0 -487.7979z" clip-rule="nonzero"/></clipPath><g clip-path="url(#p.0)"><path fill="#000000" d="m0 0l802.23096 0l0 487.7979l-802.23096 0z" fill-rule="evenodd"/><path fill="#000000" fill-opacity="0.0" d="m164.34383 152.14174l473.54333 0l0 101.73227l-473.54333 0z" fill-rule="evenodd"/><path fill="#00ff00" d="m311.8387 238.7386q-5.125 0 -9.484375 -1.46875q-4.359375 -1.484375 -7.5625 -4.203125q-3.203125 -2.71875 -4.875 -6.328125q-0.640625 -1.28125 -0.046875 -2.359375q0.609375 -1.078125 2.046875 -1.484375q1.125 -0.3125 2.203125 0.25q1.078125 0.5625 1.640625 1.671875q1.1875 2.328125 3.5 4.171875q2.328125 1.828125 5.53125 2.828125q3.203125 1.0 7.046875 1.0q4.234375 0 7.515625 -1.390625q3.28125 -1.40625 5.15625 -4.078125q1.890625 -2.6875 1.890625 -6.53125q0 -4.875 -3.609375 -8.390625q-3.59375 -3.53125 -11.28125 -4.484375q-9.359375 -1.125 -14.640625 -5.796875q-5.28125 -4.6875 -5.28125 -11.484375q0 -4.875 2.59375 -8.46875q2.609375 -3.609375 7.171875 -5.5625q4.5625 -1.96875 10.484375 -1.96875q4.390625 0 7.984375 1.40625q3.609375 1.390625 6.28125 3.671875q2.6875 2.28125 4.375 5.0q0.796875 1.28125 0.515625 2.484375q-0.28125 1.203125 -1.40625 1.84375q-1.1875 0.5625 -2.4375 0.15625q-1.234375 -0.40625 -1.875 -1.515625q-1.203125 -1.84375 -3.0 -3.484375q-1.796875 -1.640625 -4.359375 -2.59375q-2.5625 -0.96875 -6.15625 -1.046875q-6.328125 0 -10.171875 2.6875q-3.828125 2.671875 -3.828125 7.796875q0 2.71875 1.4375 5.0q1.4375 2.28125 4.75 3.921875q3.328125 1.640625 8.921875 2.4375q10.0 1.4375 14.84375 6.125q4.84375 4.671875 4.84375 12.1875q0 4.328125 -1.5625 7.6875q-1.5625 3.359375 -4.40625 5.640625q-2.828125 2.28125 -6.640625 3.484375q-3.796875 1.1875 -8.109375 1.1875zm42.39746 -0.796875q-3.203125 0 -5.71875 -1.75q-2.515625 -1.765625 -3.921875 -4.890625q-1.40625 -3.125 -1.40625 -7.203125l0 -45.59375q0 -1.359375 0.84375 -2.203125q0.84375 -0.84375 2.203125 -0.84375q1.359375 0 2.203125 0.84375q0.84375 0.84375 0.84375 2.203125l0 45.59375q0 3.4375 1.390625 5.609375q1.40625 2.15625 3.5625 2.15625l2.0 0q1.203125 0 1.921875 0.84375q0.71875 0.828125 0.71875 2.1875q0 1.359375 -1.0 2.203125q-1.0 0.84375 -2.59375 0.84375l-1.046875 0zm30.644348 0.40625q-6.40625 0 -11.453125 -2.875q-5.03125 -2.890625 -7.921875 -7.921875q-2.875 -5.046875 -2.875 -11.453125q0 -6.46875 2.875 -11.515625q2.890625 -5.046875 7.921875 -7.921875q5.046875 -2.875 11.453125 -2.875q6.390625 0 11.390625 2.875q5.0 2.875 7.875 7.921875q2.890625 5.046875 2.96875 11.515625q0 6.40625 -2.921875 11.453125q-2.921875 5.03125 -7.921875 7.921875q-5.0 2.875 -11.390625 2.875zm0 -5.609375q4.640625 0 8.3125 -2.15625q3.6875 -2.15625 5.765625 -5.921875q2.078125 -3.765625 2.078125 -8.5625q0 -4.796875 -2.078125 -8.59375q-2.078125 -3.796875 -5.765625 -5.953125q-3.671875 -2.171875 -8.3125 -2.171875q-4.640625 0 -8.328125 2.171875q-3.671875 2.15625 -5.796875 5.953125q-2.125 3.796875 -2.125 8.59375q0 4.796875 2.125 8.5625q2.125 3.765625 5.796875 5.921875q3.6875 2.15625 8.328125 2.15625zm37.347473 23.92189q-1.4375 0 -2.2812805 -0.84376526q-0.828125 -0.828125 -0.828125 -2.28125l0 -37.75q0.078125 -6.25 3.0000305 -11.25q2.921875 -5.0 7.921875 -7.875q5.0 -2.875 11.234375 -2.875q6.40625 0 11.4375 2.921875q5.046875 2.921875 7.96875 7.96875q2.921875 5.03125 2.921875 11.421875q0 6.328125 -2.84375 11.375q-2.84375 5.03125 -7.734375 7.953125q-4.875 2.921875 -11.03125 2.921875q-5.359375 0 -9.71875 -2.28125q-4.359375 -2.28125 -7.0 -6.046875l0 23.515625q0 1.453125 -0.84375 2.28125q-0.828125 0.84376526 -2.203125 0.84376526zm19.046875 -23.92189q4.640625 0 8.3125 -2.15625q3.6875 -2.15625 5.796875 -5.953125q2.125 -3.8125 2.125 -8.53125q0 -4.796875 -2.125 -8.546875q-2.109375 -3.765625 -5.796875 -5.96875q-3.671875 -2.203125 -8.3125 -2.203125q-4.5625 0 -8.25 2.203125q-3.671875 2.203125 -5.75 5.96875q-2.078125 3.75 -2.078125 8.546875q0 4.71875 2.078125 8.53125q2.078125 3.796875 5.75 5.953125q3.6875 2.15625 8.25 2.15625zm54.247437 5.609375q-6.484375 0 -11.484375 -2.84375q-5.0 -2.84375 -7.84375 -7.875q-2.84375 -5.046875 -2.84375 -11.53125q0 -6.5625 2.671875 -11.5625q2.6875 -5.0 7.40625 -7.875q4.734375 -2.875 10.890625 -2.875q6.078125 0 10.59375 2.765625q4.515625 2.75 7.0 7.640625q2.4843445 4.875 2.4843445 11.109375q0 1.28125 -0.8125 2.046875q-0.796875 0.75 -2.0624695 0.75l-34.0 0l0 -5.109375l34.640594 0l-3.4530945 2.46875q0.078125 -4.640625 -1.6875 -8.3125q-1.75 -3.6875 -5.0 -5.765625q-3.234375 -2.078125 -7.703125 -2.078125q-4.5625 0 -8.0 2.171875q-3.4375 2.15625 -5.328125 5.953125q-1.875 3.796875 -1.875 8.671875q0 4.890625 2.109375 8.65625q2.125 3.75 5.796875 5.90625q3.6875 2.15625 8.5 2.15625q2.875 0 5.796875 -1.0q2.921875 -1.0 4.671875 -2.515625q0.890625 -0.71875 2.0 -0.75q1.125 -0.046875 1.921875 0.59375q1.046875 0.953125 1.078125 2.078125q0.046875 1.125 -0.921875 1.921875q-2.640625 2.234375 -6.71875 3.71875q-4.078125 1.484375 -7.828125 1.484375z" fill-rule="nonzero"/></g></svg>