<svg version="1.1" viewBox="0.0 0.0 802.2309711286089 487.7979002624672" fill="none" stroke="none" stroke-linecap="square" stroke-miterlimit="10" xmlns:xlink="http://www.w3.org/1999/xlink" xmlns="http://www.w3.org/2000/svg"><clipPath id="p.0"><path d="m0 0l802.23096 0l0 487.7979l-802.23096 0l0 -487.7979z" clip-rule="nonzero"/></clipPath><g clip-path="url(#p.0)"><path fill="#ff0000" d="m0 0l802.23096 0l0 487.7979l-802.23096 0z" fill-rule="evenodd"/><path fill="#000000" fill-opacity="0.0" d="m48.51706 48.774277l705.1969 0l0 147.52756l-705.1969 0z" fill-rule="evenodd"/><path fill="#ffff00" d="m94.45923 119.21428l0 -45.8125l17.1875 0q5.25 0 8.421875 1.390625q3.171875 1.390625 4.96875 4.28125q1.796875 2.890625 1.796875 6.046875q0 2.9375 -1.59375 5.53125q-1.59375 2.59375 -4.8125 4.1875q4.15625 1.21875 6.390625 4.15625q2.234375 2.9375 2.234375 6.9375q0 3.21875 -1.359375 5.984375q-1.359375 2.765625 -3.359375 4.265625q-2.0 1.5 -5.015625 2.265625q-3.015625 0.765625 -7.390625 0.765625l-17.46875 0zm6.0625 -26.5625l9.90625 0q4.03125 0 5.78125 -0.53125q2.3125 -0.6875 3.484375 -2.28125q1.171875 -1.59375 1.171875 -4.0q0 -2.28125 -1.09375 -4.015625q-1.09375 -1.734375 -3.125 -2.375q-2.03125 -0.640625 -6.96875 -0.640625l-9.15625 0l0 13.84375zm0 21.15625l11.40625 0q2.9375 0 4.125 -0.21875q2.09375 -0.375 3.5 -1.25q1.40625 -0.875 2.3125 -2.546875q0.90625 -1.671875 0.90625 -3.859375q0 -2.5625 -1.3125 -4.453125q-1.3125 -1.890625 -3.640625 -2.65625q-2.328125 -0.765625 -6.703125 -0.765625l-10.59375 0l0 15.75zm57.90625 5.40625l0 -4.875q-3.875 5.625 -10.53125 5.625q-2.9375 0 -5.484375 -1.125q-2.546875 -1.125 -3.78125 -2.828125q-1.234375 -1.703125 -1.734375 -4.171875q-0.34375 -1.65625 -0.34375 -5.25l0 -20.5625l5.625 0l0 18.40625q0 4.40625 0.34375 5.9375q0.53125 2.21875 2.25 3.484375q1.71875 1.265625 4.25 1.265625q2.53125 0 4.75 -1.296875q2.21875 -1.296875 3.140625 -3.53125q0.921875 -2.234375 0.921875 -6.484375l0 -17.78125l5.625 0l0 33.1875l-5.03125 0zm35.375 0l0 -4.1875q-3.15625 4.9375 -9.28125 4.9375q-3.96875 0 -7.296875 -2.1875q-3.328125 -2.1875 -5.15625 -6.109375q-1.828125 -3.921875 -1.828125 -9.015625q0 -4.96875 1.65625 -9.015625q1.65625 -4.046875 4.96875 -6.203125q3.3125 -2.15625 7.40625 -2.15625q3.0 0 5.34375 1.265625q2.34375 1.265625 3.8125 3.296875l0 -16.4375l5.59375 0l0 45.8125l-5.21875 0zm-17.78125 -16.5625q0 6.375 2.6875 9.53125q2.6875 3.15625 6.34375 3.15625q3.6875 0 6.265625 -3.015625q2.578125 -3.015625 2.578125 -9.203125q0 -6.8125 -2.625 -10.0q-2.625 -3.1875 -6.46875 -3.1875q-3.75 0 -6.265625 3.0625q-2.515625 3.0625 -2.515625 9.65625zm53.375 16.5625l0 -4.1875q-3.15625 4.9375 -9.28125 4.9375q-3.96875 0 -7.296875 -2.1875q-3.328125 -2.1875 -5.15625 -6.109375q-1.828125 -3.921875 -1.828125 -9.015625q0 -4.96875 1.65625 -9.015625q1.65625 -4.046875 4.96875 -6.203125q3.3125 -2.15625 7.40625 -2.15625q3.0 0 5.34375 1.265625q2.34375 1.265625 3.8125 3.296875l0 -16.4375l5.59375 0l0 45.8125l-5.21875 0zm-17.78125 -16.5625q0 6.375 2.6875 9.53125q2.6875 3.15625 6.34375 3.15625q3.6875 0 6.265625 -3.015625q2.578125 -3.015625 2.578125 -9.203125q0 -6.8125 -2.625 -10.0q-2.625 -3.1875 -6.46875 -3.1875q-3.75 0 -6.265625 3.0625q-2.515625 3.0625 -2.515625 9.65625zm53.5 12.46875q-3.125 2.65625 -6.015625 3.75q-2.890625 1.09375 -6.203125 1.09375q-5.46875 0 -8.40625 -2.671875q-2.9375 -2.671875 -2.9375 -6.828125q0 -2.4375 1.109375 -4.453125q1.109375 -2.015625 2.90625 -3.234375q1.796875 -1.21875 4.046875 -1.84375q1.65625 -0.4375 5.0 -0.84375q6.8125 -0.8125 10.03125 -1.9375q0.03125 -1.15625 0.03125 -1.46875q0 -3.4375 -1.59375 -4.84375q-2.15625 -1.90625 -6.40625 -1.90625q-3.96875 0 -5.859375 1.390625q-1.890625 1.390625 -2.796875 4.921875l-5.5 -0.75q0.75 -3.53125 2.46875 -5.703125q1.71875 -2.171875 4.96875 -3.34375q3.25 -1.171875 7.53125 -1.171875q4.25 0 6.90625 1.0q2.65625 1.0 3.90625 2.515625q1.25 1.515625 1.75 3.828125q0.28125 1.4375 0.28125 5.1875l0 7.5q0 7.84375 0.359375 9.921875q0.359375 2.078125 1.421875 3.984375l-5.875 0q-0.875 -1.75 -1.125 -4.09375zm-0.46875 -12.5625q-3.0625 1.25 -9.1875 2.125q-3.46875 0.5 -4.90625 1.125q-1.4375 0.625 -2.21875 1.828125q-0.78125 1.203125 -0.78125 2.671875q0 2.25 1.703125 3.75q1.703125 1.5 4.984375 1.5q3.25 0 5.78125 -1.421875q2.53125 -1.421875 3.71875 -3.890625q0.90625 -1.90625 0.90625 -5.625l0 -2.0625zm32.65625 16.65625l0 -45.8125l17.1875 0q5.25 0 8.421875 1.390625q3.171875 1.390625 4.96875 4.28125q1.796875 2.890625 1.796875 6.046875q0 2.9375 -1.59375 5.53125q-1.59375 2.59375 -4.8125 4.1875q4.15625 1.21875 6.390625 4.15625q2.234375 2.9375 2.234375 6.9375q0 3.21875 -1.359375 5.984375q-1.359375 2.765625 -3.359375 4.265625q-2.0 1.5 -5.015625 2.265625q-3.015625 0.765625 -7.390625 0.765625l-17.46875 0zm6.0625 -26.5625l9.90625 0q4.03125 0 5.78125 -0.53125q2.3125 -0.6875 3.484375 -2.28125q1.171875 -1.59375 1.171875 -4.0q0 -2.28125 -1.09375 -4.015625q-1.09375 -1.734375 -3.125 -2.375q-2.03125 -0.640625 -6.96875 -0.640625l-9.15625 0l0 13.84375zm0 21.15625l11.40625 0q2.9375 0 4.125 -0.21875q2.09375 -0.375 3.5 -1.25q1.40625 -0.875 2.3125 -2.546875q0.90625 -1.671875 0.90625 -3.859375q0 -2.5625 -1.3125 -4.453125q-1.3125 -1.890625 -3.640625 -2.65625q-2.328125 -0.765625 -6.703125 -0.765625l-10.59375 0l0 15.75zm57.90625 5.40625l0 -4.875q-3.875 5.625 -10.53125 5.625q-2.9375 0 -5.484375 -1.125q-2.546875 -1.125 -3.78125 -2.828125q-1.234375 -1.703125 -1.734375 -4.171875q-0.34375 -1.65625 -0.34375 -5.25l0 -20.5625l5.625 0l0 18.40625q0 4.40625 0.34375 5.9375q0.53125 2.21875 2.25 3.484375q1.71875 1.265625 4.25 1.265625q2.53125 0 4.75 -1.296875q2.21875 -1.296875 3.140625 -3.53125q0.921875 -2.234375 0.921875 -6.484375l0 -17.78125l5.625 0l0 33.1875l-5.03125 0zm35.375 0l0 -4.1875q-3.15625 4.9375 -9.28125 4.9375q-3.96875 0 -7.296875 -2.1875q-3.328125 -2.1875 -5.15625 -6.109375q-1.828125 -3.921875 -1.828125 -9.015625q0 -4.96875 1.65625 -9.015625q1.65625 -4.046875 4.96875 -6.203125q3.3125 -2.15625 7.40625 -2.15625q3.0 0 5.34375 1.265625q2.34375 1.265625 3.8125 3.296875l0 -16.4375l5.59375 0l0 45.8125l-5.21875 0zm-17.78125 -16.5625q0 6.375 2.6875 9.53125q2.6875 3.15625 6.34375 3.15625q3.6875 0 6.265625 -3.015625q2.578125 -3.015625 2.578125 -9.203125q0 -6.8125 -2.625 -10.0q-2.625 -3.1875 -6.46875 -3.1875q-3.75 0 -6.265625 3.0625q-2.515625 3.0625 -2.515625 9.65625zm53.375 16.5625l0 -4.1875q-3.15625 4.9375 -9.28125 4.9375q-3.96875 0 -7.296875 -2.1875q-3.328125 -2.1875 -5.15625 -6.109375q-1.828125 -3.921875 -1.828125 -9.015625q0 -4.96875 1.65625 -9.015625q1.65625 -4.046875 4.96875 -6.203125q3.3125 -2.15625 7.40625 -2.15625q3.0 0 5.34375 1.265625q2.34375 1.265625 3.8125 3.296875l0 -16.4375l5.59375 0l0 45.8125l-5.21875 0zm-17.78125 -16.5625q0 6.375 2.6875 9.53125q2.6875 3.15625 6.34375 3.15625q3.6875 0 6.265625 -3.015625q2.578125 -3.015625 2.578125 -9.203125q0 -6.8125 -2.625 -10.0q-2.625 -3.1875 -6.46875 -3.1875q-3.75 0 -6.265625 3.0625q-2.515625 3.0625 -2.515625 9.65625zm50.34375 16.5625l0 -45.8125l15.78125 0q5.34375 0 8.15625 0.65625q3.9375 0.90625 6.71875 3.28125q3.625 3.0625 5.421875 7.828125q1.796875 4.765625 1.796875 10.890625q0 5.21875 -1.21875 9.25q-1.21875 4.03125 -3.125 6.671875q-1.90625 2.640625 -4.171875 4.15625q-2.265625 1.515625 -5.46875 2.296875q-3.203125 0.78125 -7.359375 0.78125l-16.53125 0zm6.0625 -5.40625l9.78125 0q4.53125 0 7.109375 -0.84375q2.578125 -0.84375 4.109375 -2.375q2.15625 -2.15625 3.359375 -5.796875q1.203125 -3.640625 1.203125 -8.828125q0 -7.1875 -2.359375 -11.046875q-2.359375 -3.859375 -5.734375 -5.171875q-2.4375 -0.9375 -7.84375 -0.9375l-9.625 0l0 35.0zm61.09375 1.3125q-3.125 2.65625 -6.015625 3.75q-2.890625 1.09375 -6.203125 1.09375q-5.46875 0 -8.40625 -2.671875q-2.9375 -2.671875 -2.9375 -6.828125q0 -2.4375 1.109375 -4.453125q1.109375 -2.015625 2.90625 -3.234375q1.796875 -1.21875 4.046875 -1.84375q1.65625 -0.4375 5.0 -0.84375q6.8125 -0.8125 10.03125 -1.9375q0.03125 -1.15625 0.03125 -1.46875q0 -3.4375 -1.59375 -4.84375q-2.15625 -1.90625 -6.40625 -1.90625q-3.96875 0 -5.859375 1.390625q-1.890625 1.390625 -2.796875 4.921875l-5.5 -0.75q0.75 -3.53125 2.46875 -5.703125q1.71875 -2.171875 4.96875 -3.34375q3.25 -1.171875 7.53125 -1.171875q4.25 0 6.90625 1.0q2.65625 1.0 3.90625 2.515625q1.25 1.515625 1.75 3.828125q0.28125 1.4375 0.28125 5.1875l0 7.5q0 7.84375 0.359375 9.921875q0.359375 2.078125 1.421875 3.984375l-5.875 0q-0.875 -1.75 -1.125 -4.09375zm-0.46875 -12.5625q-3.0625 1.25 -9.1875 2.125q-3.46875 0.5 -4.90625 1.125q-1.4375 0.625 -2.21875 1.828125q-0.78125 1.203125 -0.78125 2.671875q0 2.25 1.703125 3.75q1.703125 1.5 4.984375 1.5q3.25 0 5.78125 -1.421875q2.53125 -1.421875 3.71875 -3.890625q0.90625 -1.90625 0.90625 -5.625l0 -2.0625zm32.90625 16.65625l0 -45.8125l15.78125 0q5.34375 0 8.15625 0.65625q3.9375 0.90625 6.71875 3.28125q3.625 3.0625 5.421875 7.828125q1.796875 4.765625 1.796875 10.890625q0 5.21875 -1.21875 9.25q-1.21875 4.03125 -3.125 6.671875q-1.90625 2.640625 -4.171875 4.15625q-2.265625 1.515625 -5.46875 2.296875q-3.203125 0.78125 -7.359375 0.78125l-16.53125 0zm6.0625 -5.40625l9.78125 0q4.53125 0 7.109375 -0.84375q2.578125 -0.84375 4.109375 -2.375q2.15625 -2.15625 3.359375 -5.796875q1.203125 -3.640625 1.203125 -8.828125q0 -7.1875 -2.359375 -11.046875q-2.359375 -3.859375 -5.734375 -5.171875q-2.4375 -0.9375 -7.84375 -0.9375l-9.625 0l0 35.0zm61.1875 5.40625l0 -4.875q-3.875 5.625 -10.53125 5.625q-2.9375 0 -5.484375 -1.125q-2.546875 -1.125 -3.78125 -2.828125q-1.234375 -1.703125 -1.734375 -4.171875q-0.34375 -1.65625 -0.34375 -5.25l0 -20.5625l5.625 0l0 18.40625q0 4.40625 0.34375 5.9375q0.53125 2.21875 2.25 3.484375q1.71875 1.265625 4.25 1.265625q2.53125 0 4.75 -1.296875q2.21875 -1.296875 3.140625 -3.53125q0.921875 -2.234375 0.921875 -6.484375l0 -17.78125l5.625 0l0 33.1875l-5.03125 0zm13.84375 0l0 -45.8125l5.625 0l0 16.4375q3.9375 -4.5625 9.9375 -4.5625q3.6875 0 6.40625 1.453125q2.71875 1.453125 3.890625 4.015625q1.171875 2.5625 1.171875 7.4375l0 21.03125l-5.625 0l0 -21.03125q0 -4.21875 -1.828125 -6.140625q-1.828125 -1.921875 -5.171875 -1.921875q-2.5 0 -4.703125 1.296875q-2.203125 1.296875 -3.140625 3.515625q-0.9375 2.21875 -0.9375 6.125l0 18.15625l-5.625 0zm35.59375 0l0 -45.8125l5.625 0l0 16.4375q3.9375 -4.5625 9.9375 -4.5625q3.6875 0 6.40625 1.453125q2.71875 1.453125 3.890625 4.015625q1.171875 2.5625 1.171875 7.4375l0 21.03125l-5.625 0l0 -21.03125q0 -4.21875 -1.828125 -6.140625q-1.828125 -1.921875 -5.171875 -1.921875q-2.5 0 -4.703125 1.296875q-2.203125 1.296875 -3.140625 3.515625q-0.9375 2.21875 -0.9375 6.125l0 18.15625l-5.625 0z" fill-rule="nonzero"/><path fill="#ffff00" d="m279.32446 242.67427l3.703125 -0.3125q0.40625 2.6875 1.890625 4.046875q1.5 1.359375 3.609375 1.359375q2.546875 0 4.296875 -1.90625q1.765625 -1.921875 1.765625 -5.078125q0 -3.015625 -1.703125 -4.75q-1.6875 -1.734375 -4.421875 -1.734375q-1.6875 0 -3.0625 0.765625q-1.359375 0.765625 -2.140625 2.0l-3.3125 -0.421875l2.78125 -14.71875l14.234375 0l0 3.359375l-11.421875 0l-1.546875 7.703125q2.578125 -1.796875 5.40625 -1.796875q3.75 0 6.328125 2.59375q2.578125 2.59375 2.578125 6.6875q0 3.875 -2.265625 6.71875q-2.75 3.46875 -7.515625 3.46875q-3.90625 0 -6.375 -2.1875q-2.46875 -2.1875 -2.828125 -5.796875zm27.667969 -8.03125q-2.1875 -0.796875 -3.25 -2.28125q-1.046875 -1.484375 -1.046875 -3.5625q0 -3.125 2.234375 -5.25q2.25 -2.125 5.984375 -2.125q3.75 0 6.03125 2.1875q2.28125 2.171875 2.28125 5.296875q0 1.984375 -1.046875 3.46875q-1.03125 1.46875 -3.171875 2.265625q2.640625 0.859375 4.015625 2.78125q1.375 1.90625 1.375 4.5625q0 3.671875 -2.59375 6.171875q-2.59375 2.5 -6.828125 2.5q-4.25 0 -6.84375 -2.5q-2.59375 -2.515625 -2.59375 -6.265625q0 -2.796875 1.40625 -4.671875q1.421875 -1.890625 4.046875 -2.578125zm-0.703125 -5.953125q0 2.03125 1.296875 3.328125q1.3125 1.28125 3.40625 1.28125q2.03125 0 3.328125 -1.28125q1.296875 -1.28125 1.296875 -3.140625q0 -1.921875 -1.34375 -3.234375q-1.328125 -1.328125 -3.328125 -1.328125q-2.0 0 -3.328125 1.296875q-1.328125 1.28125 -1.328125 3.078125zm-1.140625 13.21875q0 1.5 0.703125 2.90625q0.71875 1.40625 2.125 2.1875q1.40625 0.765625 3.03125 0.765625q2.515625 0 4.15625 -1.609375q1.640625 -1.625 1.640625 -4.125q0 -2.546875 -1.6875 -4.203125q-1.6875 -1.65625 -4.21875 -1.65625q-2.484375 0 -4.125 1.640625q-1.625 1.640625 -1.625 4.09375zm18.667969 -5.859375q0 -5.078125 1.046875 -8.171875q1.046875 -3.09375 3.109375 -4.765625q2.0625 -1.6875 5.1875 -1.6875q2.296875 0 4.03125 0.9375q1.75 0.921875 2.875 2.671875q1.140625 1.734375 1.78125 4.25q0.640625 2.515625 0.640625 6.765625q0 5.046875 -1.03125 8.140625q-1.03125 3.09375 -3.09375 4.78125q-2.0625 1.6875 -5.203125 1.6875q-4.140625 0 -6.5 -2.96875q-2.84375 -3.578125 -2.84375 -11.640625zm3.625 0q0 7.046875 1.640625 9.390625q1.65625 2.328125 4.078125 2.328125q2.421875 0 4.0625 -2.34375q1.65625 -2.34375 1.65625 -9.375q0 -7.0625 -1.65625 -9.390625q-1.640625 -2.328125 -4.109375 -2.328125q-2.421875 0 -3.859375 2.046875q-1.8125 2.625 -1.8125 9.671875zm48.21875 10.75l0 3.375l-18.921875 0q-0.046875 -1.265625 0.40625 -2.4375q0.71875 -1.9375 2.3125 -3.8125q1.59375 -1.875 4.59375 -4.34375q4.671875 -3.828125 6.3125 -6.0625q1.640625 -2.234375 1.640625 -4.21875q0 -2.09375 -1.5 -3.53125q-1.484375 -1.4375 -3.890625 -1.4375q-2.53125 0 -4.0625 1.53125q-1.515625 1.515625 -1.546875 4.21875l-3.609375 -0.375q0.375 -4.046875 2.796875 -6.15625q2.421875 -2.125 6.5 -2.125q4.125 0 6.515625 2.28125q2.40625 2.28125 2.40625 5.671875q0 1.71875 -0.703125 3.375q-0.703125 1.65625 -2.328125 3.5q-1.625 1.828125 -5.421875 5.03125q-3.15625 2.65625 -4.0625 3.609375q-0.890625 0.9375 -1.484375 1.90625l14.046875 0zm3.7929688 -4.1875l3.515625 -0.46875q0.59375 2.984375 2.046875 4.3125q1.46875 1.3125 3.546875 1.3125q2.484375 0 4.1875 -1.71875q1.71875 -1.71875 1.71875 -4.25q0 -2.421875 -1.59375 -4.0q-1.578125 -1.578125 -4.015625 -1.578125q-1.0 0 -2.484375 0.390625l0.390625 -3.078125q0.359375 0.03125 0.578125 0.03125q2.234375 0 4.03125 -1.171875q1.796875 -1.171875 1.796875 -3.609375q0 -1.9375 -1.3125 -3.203125q-1.296875 -1.265625 -3.375 -1.265625q-2.046875 0 -3.421875 1.296875q-1.359375 1.28125 -1.75 3.859375l-3.515625 -0.625q0.640625 -3.53125 2.921875 -5.46875q2.296875 -1.953125 5.6875 -1.953125q2.34375 0 4.3125 1.015625q1.984375 1.0 3.03125 2.734375q1.046875 1.734375 1.046875 3.6875q0 1.859375 -1.0 3.390625q-1.0 1.515625 -2.953125 2.40625q2.546875 0.59375 3.953125 2.4375q1.40625 1.84375 1.40625 4.625q0 3.75 -2.734375 6.359375q-2.734375 2.609375 -6.921875 2.609375q-3.765625 0 -6.265625 -2.25q-2.484375 -2.25 -2.828125 -5.828125zm22.246094 0l3.515625 -0.46875q0.59375 2.984375 2.046875 4.3125q1.46875 1.3125 3.546875 1.3125q2.484375 0 4.1875 -1.71875q1.71875 -1.71875 1.71875 -4.25q0 -2.421875 -1.59375 -4.0q-1.578125 -1.578125 -4.015625 -1.578125q-1.0 0 -2.484375 0.390625l0.390625 -3.078125q0.359375 0.03125 0.578125 0.03125q2.234375 0 4.03125 -1.171875q1.796875 -1.171875 1.796875 -3.609375q0 -1.9375 -1.3125 -3.203125q-1.296875 -1.265625 -3.375 -1.265625q-2.046875 0 -3.421875 1.296875q-1.359375 1.28125 -1.75 3.859375l-3.515625 -0.625q0.640625 -3.53125 2.921875 -5.46875q2.296875 -1.953125 5.6875 -1.953125q2.34375 0 4.3125 1.015625q1.984375 1.0 3.03125 2.734375q1.046875 1.734375 1.046875 3.6875q0 1.859375 -1.0 3.390625q-1.0 1.515625 -2.953125 2.40625q2.546875 0.59375 3.953125 2.4375q1.40625 1.84375 1.40625 4.625q0 3.75 -2.734375 6.359375q-2.734375 2.609375 -6.921875 2.609375q-3.765625 0 -6.265625 -2.25q-2.484375 -2.25 -2.828125 -5.828125zm21.824219 -1.03125l0 -3.53125l10.8125 0l0 3.53125l-10.8125 0zm24.992188 8.59375l0 -6.859375l-12.421875 0l0 -3.21875l13.0625 -18.5625l2.875 0l0 18.5625l3.859375 0l0 3.21875l-3.859375 0l0 6.859375l-3.515625 0zm0 -10.078125l0 -12.90625l-8.96875 12.90625l8.96875 0zm10.964844 2.578125l3.703125 -0.3125q0.40625 2.6875 1.890625 4.046875q1.5 1.359375 3.609375 1.359375q2.546875 0 4.296875 -1.90625q1.765625 -1.921875 1.765625 -5.078125q0 -3.015625 -1.703125 -4.75q-1.6875 -1.734375 -4.421875 -1.734375q-1.6875 0 -3.0625 0.765625q-1.359375 0.765625 -2.140625 2.0l-3.3125 -0.421875l2.78125 -14.71875l14.234375 0l0 3.359375l-11.421875 0l-1.546875 7.703125q2.578125 -1.796875 5.40625 -1.796875q3.75 0 6.328125 2.59375q2.578125 2.59375 2.578125 6.6875q0 3.875 -2.265625 6.71875q-2.75 3.46875 -7.515625 3.46875q-3.90625 0 -6.375 -2.1875q-2.46875 -2.1875 -2.828125 -5.796875zm22.246094 -6.625q0 -5.078125 1.046875 -8.171875q1.046875 -3.09375 3.109375 -4.765625q2.0625 -1.6875 5.1875 -1.6875q2.296875 0 4.03125 0.9375q1.75 0.921875 2.875 2.671875q1.140625 1.734375 1.78125 4.25q0.640625 2.515625 0.640625 6.765625q0 5.046875 -1.03125 8.140625q-1.03125 3.09375 -3.09375 4.78125q-2.0625 1.6875 -5.203125 1.6875q-4.140625 0 -6.5 -2.96875q-2.84375 -3.578125 -2.84375 -11.640625zm3.625 0q0 7.046875 1.640625 9.390625q1.65625 2.328125 4.078125 2.328125q2.421875 0 4.0625 -2.34375q1.65625 -2.34375 1.65625 -9.375q0 -7.0625 -1.65625 -9.390625q-1.640625 -2.328125 -4.109375 -2.328125q-2.421875 0 -3.859375 2.046875q-1.8125 2.625 -1.8125 9.671875zm18.621094 0q0 -5.078125 1.046875 -8.171875q1.046875 -3.09375 3.109375 -4.765625q2.0625 -1.6875 5.1875 -1.6875q2.296875 0 4.03125 0.9375q1.75 0.921875 2.875 2.671875q1.140625 1.734375 1.78125 4.25q0.640625 2.515625 0.640625 6.765625q0 5.046875 -1.03125 8.140625q-1.03125 3.09375 -3.09375 4.78125q-2.0625 1.6875 -5.203125 1.6875q-4.140625 0 -6.5 -2.96875q-2.84375 -3.578125 -2.84375 -11.640625zm3.625 0q0 7.046875 1.640625 9.390625q1.65625 2.328125 4.078125 2.328125q2.421875 0 4.0625 -2.34375q1.65625 -2.34375 1.65625 -9.375q0 -7.0625 -1.65625 -9.390625q-1.640625 -2.328125 -4.109375 -2.328125q-2.421875 0 -3.859375 2.046875q-1.8125 2.625 -1.8125 9.671875z" fill-rule="nonzero"/><path fill="#ffff00" d="m139.98267 382.6543l0 -91.625l40.625 0q12.25 0 18.625 2.46875q6.375 2.46875 10.1875 8.71875q3.8125 6.25 3.8125 13.8125q0 9.75 -6.3125 16.4375q-6.3125 6.6875 -19.5 8.5q4.8125 2.3125 7.3125 4.5625q5.3125 4.875 10.0625 12.1875l15.9375 24.9375l-15.25 0l-12.125 -19.0625q-5.3125 -8.25 -8.75 -12.625q-3.4375 -4.375 -6.15625 -6.125q-2.71875 -1.75 -5.53125 -2.4375q-2.0625 -0.4375 -6.75 -0.4375l-14.0625 0l0 40.6875l-12.125 0zm12.125 -51.1875l26.0625 0q8.3125 0 13.0 -1.71875q4.6875 -1.71875 7.125 -5.5q2.4375 -3.78125 2.4375 -8.21875q0 -6.5 -4.71875 -10.6875q-4.71875 -4.1875 -14.90625 -4.1875l-29.0 0l0 30.3125zm78.75 -27.5l0 -12.9375l11.25 0l0 12.9375l-11.25 0zm0 78.6875l0 -66.375l11.25 0l0 66.375l-11.25 0zm71.6875 -24.3125l11.0625 1.4375q-1.8125 11.4375 -9.28125 17.90625q-7.46875 6.46875 -18.34375 6.46875q-13.625 0 -21.90625 -8.90625q-8.28125 -8.90625 -8.28125 -25.53125q0 -10.75 3.5625 -18.8125q3.5625 -8.0625 10.84375 -12.09375q7.28125 -4.03125 15.84375 -4.03125q10.8125 0 17.6875 5.46875q6.875 5.46875 8.8125 15.53125l-10.9375 1.6875q-1.5625 -6.6875 -5.53125 -10.0625q-3.96875 -3.375 -9.59375 -3.375q-8.5 0 -13.8125 6.09375q-5.3125 6.09375 -5.3125 19.28125q0 13.375 5.125 19.4375q5.125 6.0625 13.375 6.0625q6.625 0 11.0625 -4.0625q4.4375 -4.0625 5.625 -12.5zm20.75 24.3125l0 -91.625l11.25 0l0 52.25l26.625 -27.0l14.5625 0l-25.375 24.625l27.9375 41.75l-13.875 0l-21.9375 -33.9375l-7.9375 7.625l0 26.3125l-11.25 0z" fill-rule="nonzero"/><path fill="#ffff00" d="m384.96704 382.6543l0 -57.265625l19.734375 0q6.671875 0 10.1875 0.8125q4.921875 1.140625 8.40625 4.109375q4.53125 3.828125 6.765625 9.78125q2.25 5.953125 2.25 13.609375q0 6.53125 -1.53125 11.578125q-1.515625 5.03125 -3.90625 8.328125q-2.375 3.296875 -5.203125 5.203125q-2.828125 1.890625 -6.84375 2.875q-4.0 0.96875 -9.1875 0.96875l-20.671875 0zm7.578125 -6.765625l12.234375 0q5.65625 0 8.875 -1.046875q3.234375 -1.0625 5.140625 -2.96875q2.703125 -2.703125 4.203125 -7.25q1.5 -4.546875 1.5 -11.03125q0 -8.984375 -2.953125 -13.8125q-2.9375 -4.828125 -7.15625 -6.46875q-3.046875 -1.171875 -9.8125 -1.171875l-12.03125 0l0 43.75zm46.679688 -13.984375q0 -11.515625 6.40625 -17.0625q5.359375 -4.609375 13.046875 -4.609375q8.5625 0 13.984375 5.609375q5.4375 5.59375 5.4375 15.484375q0 8.0 -2.40625 12.59375q-2.40625 4.59375 -7.0 7.140625q-4.578125 2.53125 -10.015625 2.53125q-8.703125 0 -14.078125 -5.578125q-5.375 -5.59375 -5.375 -16.109375zm7.234375 0q0 7.96875 3.46875 11.9375q3.484375 3.96875 8.75 3.96875q5.234375 0 8.703125 -3.984375q3.484375 -3.984375 3.484375 -12.15625q0 -7.6875 -3.5 -11.65625q-3.484375 -3.96875 -8.6875 -3.96875q-5.265625 0 -8.75 3.953125q-3.46875 3.9375 -3.46875 11.90625zm39.882812 20.75l0 -41.484375l6.328125 0l0 5.890625q4.5625 -6.828125 13.203125 -6.828125q3.75 0 6.890625 1.34375q3.140625 1.34375 4.703125 3.53125q1.5625 2.1875 2.1875 5.203125q0.390625 1.953125 0.390625 6.828125l0 25.515625l-7.03125 0l0 -25.234375q0 -4.296875 -0.828125 -6.421875q-0.8125 -2.140625 -2.90625 -3.40625q-2.078125 -1.265625 -4.890625 -1.265625q-4.5 0 -7.765625 2.859375q-3.25 2.84375 -3.25 10.8125l0 22.65625l-7.03125 0zm71.55469 -5.125q-3.90625 3.328125 -7.515625 4.703125q-3.609375 1.359375 -7.75 1.359375q-6.84375 0 -10.515625 -3.34375q-3.671875 -3.34375 -3.671875 -8.53125q0 -3.046875 1.390625 -5.5625q1.390625 -2.53125 3.625 -4.046875q2.25 -1.53125 5.0625 -2.3125q2.078125 -0.546875 6.25 -1.046875q8.515625 -1.015625 12.546875 -2.421875q0.03125 -1.453125 0.03125 -1.84375q0 -4.296875 -1.984375 -6.046875q-2.703125 -2.390625 -8.015625 -2.390625q-4.953125 0 -7.328125 1.75q-2.359375 1.734375 -3.484375 6.140625l-6.875 -0.9375q0.9375 -4.40625 3.078125 -7.125q2.15625 -2.71875 6.21875 -4.171875q4.0625 -1.46875 9.40625 -1.46875q5.3125 0 8.625 1.25q3.328125 1.25 4.890625 3.140625q1.5625 1.890625 2.1875 4.78125q0.359375 1.796875 0.359375 6.484375l0 9.375q0 9.8125 0.4375 12.40625q0.453125 2.59375 1.78125 4.984375l-7.34375 0q-1.09375 -2.1875 -1.40625 -5.125zm-0.578125 -15.703125q-3.828125 1.5625 -11.484375 2.65625q-4.34375 0.625 -6.140625 1.40625q-1.796875 0.78125 -2.78125 2.296875q-0.96875 1.5 -0.96875 3.328125q0 2.8125 2.125 4.6875q2.140625 1.875 6.234375 1.875q4.0625 0 7.21875 -1.765625q3.171875 -1.78125 4.65625 -4.875q1.140625 -2.375 1.140625 -7.03125l0 -2.578125zm17.851562 20.828125l0 -57.265625l7.03125 0l0 57.265625l-7.03125 0zm44.835938 0l0 -5.234375q-3.9375 6.171875 -11.59375 6.171875q-4.96875 0 -9.125 -2.734375q-4.15625 -2.734375 -6.453125 -7.640625q-2.28125 -4.90625 -2.28125 -11.265625q0 -6.21875 2.0625 -11.265625q2.078125 -5.0625 6.21875 -7.75q4.140625 -2.703125 9.265625 -2.703125q3.75 0 6.671875 1.578125q2.9375 1.578125 4.765625 4.125l0 -20.546875l7.0 0l0 57.265625l-6.53125 0zm-22.21875 -20.703125q0 7.96875 3.359375 11.921875q3.359375 3.9375 7.921875 3.9375q4.609375 0 7.828125 -3.765625q3.234375 -3.78125 3.234375 -11.515625q0 -8.515625 -3.28125 -12.5q-3.28125 -3.984375 -8.09375 -3.984375q-4.6875 0 -7.828125 3.828125q-3.140625 3.828125 -3.140625 12.078125zm36.992188 8.3125l6.953125 -1.09375q0.578125 4.1875 3.25 6.421875q2.6875 2.21875 7.484375 2.21875q4.84375 0 7.1875 -1.96875q2.34375 -1.984375 2.34375 -4.640625q0 -2.375 -2.0625 -3.75q-1.453125 -0.9375 -7.1875 -2.375q-7.734375 -1.953125 -10.734375 -3.375q-2.984375 -1.4375 -4.53125 -3.953125q-1.53125 -2.515625 -1.53125 -5.5625q0 -2.78125 1.265625 -5.140625q1.265625 -2.359375 3.453125 -3.921875q1.640625 -1.21875 4.46875 -2.046875q2.84375 -0.84375 6.078125 -0.84375q4.890625 0 8.578125 1.40625q3.6875 1.40625 5.4375 3.8125q1.765625 2.390625 2.4375 6.421875l-6.875 0.9375q-0.46875 -3.203125 -2.71875 -5.0q-2.25 -1.796875 -6.34375 -1.796875q-4.84375 0 -6.921875 1.609375q-2.0625 1.59375 -2.0625 3.734375q0 1.375 0.859375 2.46875q0.859375 1.125 2.6875 1.875q1.0625 0.390625 6.21875 1.796875q7.453125 1.984375 10.40625 3.265625q2.953125 1.265625 4.625 3.6875q1.6875 2.421875 1.6875 6.015625q0 3.515625 -2.0625 6.625q-2.046875 3.09375 -5.921875 4.796875q-3.859375 1.703125 -8.734375 1.703125q-8.09375 0 -12.328125 -3.359375q-4.234375 -3.359375 -5.40625 -9.96875z" fill-rule="nonzero"/></g></svg>