<svg version="1.1" viewBox="0.0 0.0 849.8057742782153 193.85826771653544" fill="none" stroke="none" stroke-linecap="square" stroke-miterlimit="10" xmlns:xlink="http://www.w3.org/1999/xlink" xmlns="http://www.w3.org/2000/svg"><clipPath id="p.0"><path d="m0 0l849.8058 0l0 193.85826l-849.8058 0l0 -193.85826z" clip-rule="nonzero"/></clipPath><g clip-path="url(#p.0)"><path fill="#000000" d="m0 0l849.8058 0l0 193.85826l-849.8058 0z" fill-rule="evenodd"/><path fill="#000000" fill-opacity="0.0" d="m98.33596 30.304462l653.13385 0l0 39.968502l-653.13385 0z" fill-rule="evenodd"/><path fill="#ff0000" d="m288.44977 68.27571q0 3.09375 -1.078125 5.734375q-1.078125 2.640625 -3.015625 4.578125q-2.40625 2.40625 -5.6875 3.609375q-3.28125 1.203125 -8.28125 1.203125l-6.1875 0l0 17.34375l-6.1875 0l0 -46.531246l12.625 0q4.1875 0 7.09375 0.703125q2.90625 0.703125 5.15625 2.203125q2.65625 1.78125 4.109375 4.4375q1.453125 2.6562462 1.453125 6.718746zm-6.4375 0.15625q0 -2.40625 -0.84375 -4.1875q-0.84375 -1.7812462 -2.5625 -2.9062462q-1.5 -0.96875 -3.421875 -1.390625q-1.921875 -0.421875 -4.859375 -0.421875l-6.125 0l0 18.593746l5.21875 0q3.75 0 6.09375 -0.671875q2.34375 -0.671875 3.8125 -2.140625q1.46875 -1.5 2.078125 -3.15625q0.609375 -1.65625 0.609375 -3.71875zm43.875 14.875q0 8.53125 -4.375 13.46875q-4.375 4.9375 -11.71875 4.9375q-7.40625 0 -11.765625 -4.9375q-4.359375 -4.9375 -4.359375 -13.46875q0 -8.53125 4.359375 -13.484375q4.359375 -4.953125 11.765625 -4.953125q7.34375 0 11.71875 4.953125q4.375 4.953125 4.375 13.484375zm-6.0625 0q0 -6.78125 -2.65625 -10.078125q-2.65625 -3.296875 -7.375 -3.296875q-4.78125 0 -7.421875 3.296875q-2.640625 3.296875 -2.640625 10.078125q0 6.5625 2.65625 9.953125q2.65625 3.390625 7.40625 3.390625q4.6875 0 7.359375 -3.359375q2.671875 -3.359375 2.671875 -9.984375zm21.46875 -23.312496l-6.625 0l0 -6.09375l6.625 0l0 6.09375zm-0.375 40.749996l-5.875 0l0 -34.90625l5.875 0l0 34.90625zm40.8125 0l-5.875 0l0 -19.875q0 -2.40625 -0.28125 -4.515625q-0.28125 -2.109375 -1.03125 -3.296875q-0.78125 -1.3125 -2.25 -1.953125q-1.46875 -0.640625 -3.8125 -0.640625q-2.40625 0 -5.03125 1.1875q-2.625 1.1875 -5.03125 3.03125l0 26.0625l-5.875 0l0 -34.90625l5.875 0l0 3.875q2.75 -2.28125 5.6875 -3.5625q2.9375 -1.28125 6.03125 -1.28125q5.65625 0 8.625 3.40625q2.96875 3.40625 2.96875 9.8125l0 22.65625zm29.4375 -0.3125q-1.65625 0.4375 -3.609375 0.71875q-1.953125 0.28125 -3.484375 0.28125q-5.34375 0 -8.125 -2.875q-2.78125 -2.875 -2.78125 -9.21875l0 -18.5625l-3.96875 0l0 -4.9375l3.96875 0l0 -10.031246l5.875 0l0 10.031246l12.125 0l0 4.9375l-12.125 0l0 15.90625q0 2.75 0.125 4.296875q0.125 1.546875 0.875 2.890625q0.6875 1.25 1.890625 1.828125q1.203125 0.578125 3.671875 0.578125q1.4375 0 3.0 -0.421875q1.5625 -0.421875 2.25 -0.703125l0.3125 0l0 5.28125zm13.03125 0.3125l-5.875 0l0 -48.624996l5.875 0l0 48.624996zm40.84375 -16.84375l-25.71875 0q0 3.21875 0.96875 5.609375q0.96875 2.390625 2.65625 3.921875q1.625 1.5 3.859375 2.25q2.234375 0.75 4.921875 0.75q3.5625 0 7.171875 -1.421875q3.609375 -1.421875 5.140625 -2.796875l0.3125 0l0 6.40625q-2.96875 1.25 -6.0625 2.09375q-3.09375 0.84375 -6.5 0.84375q-8.6875 0 -13.5625 -4.703125q-4.875 -4.703125 -4.875 -13.359375q0 -8.5625 4.671875 -13.59375q4.671875 -5.03125 12.296875 -5.03125q7.0625 0 10.890625 4.125q3.828125 4.125 3.828125 11.71875l0 3.1875zm-5.71875 -4.5q-0.03125 -4.625 -2.328125 -7.15625q-2.296875 -2.53125 -6.984375 -2.53125q-4.71875 0 -7.515625 2.78125q-2.796875 2.78125 -3.171875 6.90625l20.0 0zm39.5625 11.28125q0 4.78125 -3.953125 7.84375q-3.953125 3.0625 -10.796875 3.0625q-3.875 0 -7.109375 -0.921875q-3.234375 -0.921875 -5.421875 -2.015625l0 -6.59375l0.3125 0q2.78125 2.09375 6.1875 3.328125q3.40625 1.234375 6.53125 1.234375q3.875 0 6.0625 -1.25q2.1875 -1.25 2.1875 -3.9375q0 -2.0625 -1.1875 -3.125q-1.1875 -1.0625 -4.5625 -1.8125q-1.25 -0.28125 -3.265625 -0.65625q-2.015625 -0.375 -3.671875 -0.8125q-4.59375 -1.21875 -6.515625 -3.578125q-1.921875 -2.359375 -1.921875 -5.796875q0 -2.15625 0.890625 -4.0625q0.890625 -1.90625 2.703125 -3.40625q1.75 -1.46875 4.453125 -2.328125q2.703125 -0.859375 6.046875 -0.859375q3.125 0 6.328125 0.765625q3.203125 0.765625 5.328125 1.859375l0 6.28125l-0.3125 0q-2.25 -1.65625 -5.46875 -2.796875q-3.21875 -1.140625 -6.3125 -1.140625q-3.21875 0 -5.4375 1.234375q-2.21875 1.234375 -2.21875 3.671875q0 2.15625 1.34375 3.25q1.3125 1.09375 4.25 1.78125q1.625 0.375 3.640625 0.75q2.015625 0.375 3.359375 0.6875q4.09375 0.9375 6.3125 3.21875q2.21875 2.3125 2.21875 6.125zm33.34375 0q0 4.78125 -3.953125 7.84375q-3.953125 3.0625 -10.796875 3.0625q-3.875 0 -7.109375 -0.921875q-3.234375 -0.921875 -5.421875 -2.015625l0 -6.59375l0.3125 0q2.78125 2.09375 6.1875 3.328125q3.40625 1.234375 6.53125 1.234375q3.875 0 6.0625 -1.25q2.1875 -1.25 2.1875 -3.9375q0 -2.0625 -1.1875 -3.125q-1.1875 -1.0625 -4.5625 -1.8125q-1.25 -0.28125 -3.265625 -0.65625q-2.015625 -0.375 -3.671875 -0.8125q-4.59375 -1.21875 -6.515625 -3.578125q-1.921875 -2.359375 -1.921875 -5.796875q0 -2.15625 0.890625 -4.0625q0.890625 -1.90625 2.703125 -3.40625q1.75 -1.46875 4.453125 -2.328125q2.703125 -0.859375 6.046875 -0.859375q3.125 0 6.328125 0.765625q3.203125 0.765625 5.328125 1.859375l0 6.28125l-0.3125 0q-2.25 -1.65625 -5.46875 -2.796875q-3.21875 -1.140625 -6.3125 -1.140625q-3.21875 0 -5.4375 1.234375q-2.21875 1.234375 -2.21875 3.671875q0 2.15625 1.34375 3.25q1.3125 1.09375 4.25 1.78125q1.625 0.375 3.640625 0.75q2.015625 0.375 3.359375 0.6875q4.09375 0.9375 6.3125 3.21875q2.21875 2.3125 2.21875 6.125zm61.65625 10.0625l-31.5 0l0 -6.53125q3.28125 -2.8125 6.578125 -5.625q3.296875 -2.8125 6.140625 -5.59375q6.0 -5.8125 8.21875 -9.234375q2.21875 -3.421875 2.21875 -7.390625q0 -3.6249962 -2.390625 -5.671871q-2.390625 -2.046875 -6.671875 -2.046875q-2.84375 0 -6.15625 1.0q-3.3125 1.0 -6.46875 3.0625l-0.3125 0l0 -6.5625q2.21875 -1.09375 5.921875 -2.0q3.703125 -0.90625 7.171875 -0.90625q7.15625 0 11.21875 3.453125q4.0625 3.453125 4.0625 9.359371q0 2.65625 -0.671875 4.953125q-0.671875 2.296875 -1.984375 4.359375q-1.21875 1.9375 -2.859375 3.8125q-1.640625 1.875 -3.984375 4.15625q-3.34375 3.28125 -6.90625 6.359375q-3.5625 3.078125 -6.65625 5.703125l25.03125 0l0 5.34375z" fill-rule="nonzero"/></g></svg>