<svg version="1.1" viewBox="0.0 0.0 802.2309711286089 487.7979002624672" fill="none" stroke="none" stroke-linecap="square" stroke-miterlimit="10" xmlns:xlink="http://www.w3.org/1999/xlink" xmlns="http://www.w3.org/2000/svg"><clipPath id="p.0"><path d="m0 0l802.23096 0l0 487.7979l-802.23096 0l0 -487.7979z" clip-rule="nonzero"/></clipPath><g clip-path="url(#p.0)"><path fill="#ff0000" d="m0 0l802.23096 0l0 487.7979l-802.23096 0z" fill-rule="evenodd"/><path fill="#000000" fill-opacity="0.0" d="m48.51706 48.774277l705.1969 0l0 147.52756l-705.1969 0z" fill-rule="evenodd"/><path fill="#ffff00" d="m199.7561 119.21428l0 -45.8125l17.28125 0q4.5625 0 6.96875 0.4375q3.375 0.5625 5.65625 2.140625q2.28125 1.578125 3.671875 4.421875q1.390625 2.84375 1.390625 6.25q0 5.84375 -3.71875 9.890625q-3.71875 4.046875 -13.4375 4.046875l-11.75 0l0 18.625l-6.0625 0zm6.0625 -24.03125l11.84375 0q5.875 0 8.34375 -2.1875q2.46875 -2.1875 2.46875 -6.15625q0 -2.875 -1.453125 -4.921875q-1.453125 -2.046875 -3.828125 -2.703125q-1.53125 -0.40625 -5.65625 -0.40625l-11.71875 0l0 16.375zm34.78125 1.71875q0 -11.40625 6.125 -17.859375q6.125 -6.453125 15.8125 -6.453125q6.34375 0 11.4375 3.03125q5.09375 3.03125 7.765625 8.453125q2.671875 5.421875 2.671875 12.296875q0 6.96875 -2.8125 12.46875q-2.8125 5.5 -7.96875 8.328125q-5.15625 2.828125 -11.125 2.828125q-6.46875 0 -11.5625 -3.125q-5.09375 -3.125 -7.71875 -8.53125q-2.625 -5.40625 -2.625 -11.4375zm6.25 0.09375q0 8.28125 4.453125 13.046875q4.453125 4.765625 11.171875 4.765625q6.84375 0 11.265625 -4.8125q4.421875 -4.8125 4.421875 -13.65625q0 -5.59375 -1.890625 -9.765625q-1.890625 -4.171875 -5.53125 -6.46875q-3.640625 -2.296875 -8.171875 -2.296875q-6.4375 0 -11.078125 4.421875q-4.640625 4.421875 -4.640625 14.765625zm46.40625 22.21875l0 -45.8125l6.0625 0l0 45.8125l-6.0625 0zm16.6875 0l0 -45.8125l6.21875 0l24.0625 35.96875l0 -35.96875l5.8125 0l0 45.8125l-6.21875 0l-24.0625 -36.0l0 36.0l-5.8125 0zm57.9375 0l0 -40.40625l-15.09375 0l0 -5.40625l36.3125 0l0 5.40625l-15.15625 0l0 40.40625l-6.0625 0zm27.1875 0l0 -45.8125l6.0625 0l0 40.40625l22.5625 0l0 5.40625l-28.625 0zm35.96875 0l0 -45.8125l33.125 0l0 5.40625l-27.0625 0l0 14.03125l25.34375 0l0 5.375l-25.34375 0l0 15.59375l28.125 0l0 5.40625l-34.1875 0zm40.5 -14.71875l5.71875 -0.5q0.40625 3.4375 1.890625 5.640625q1.484375 2.203125 4.609375 3.5625q3.125 1.359375 7.03125 1.359375q3.46875 0 6.125 -1.03125q2.65625 -1.03125 3.953125 -2.828125q1.296875 -1.796875 1.296875 -3.921875q0 -2.15625 -1.25 -3.765625q-1.25 -1.609375 -4.125 -2.703125q-1.84375 -0.71875 -8.15625 -2.234375q-6.3125 -1.515625 -8.84375 -2.859375q-3.28125 -1.71875 -4.890625 -4.265625q-1.609375 -2.546875 -1.609375 -5.703125q0 -3.46875 1.96875 -6.484375q1.96875 -3.015625 5.75 -4.578125q3.78125 -1.5625 8.40625 -1.5625q5.09375 0 8.984375 1.640625q3.890625 1.640625 5.984375 4.828125q2.09375 3.1875 2.25 7.21875l-5.8125 0.4375q-0.46875 -4.34375 -3.171875 -6.5625q-2.703125 -2.21875 -7.984375 -2.21875q-5.5 0 -8.015625 2.015625q-2.515625 2.015625 -2.515625 4.859375q0 2.46875 1.78125 4.0625q1.75 1.59375 9.140625 3.265625q7.390625 1.671875 10.140625 2.921875q4.0 1.84375 5.90625 4.671875q1.90625 2.828125 1.90625 6.515625q0 3.65625 -2.09375 6.890625q-2.09375 3.234375 -6.015625 5.03125q-3.921875 1.796875 -8.828125 1.796875q-6.21875 0 -10.421875 -1.8125q-4.203125 -1.8125 -6.59375 -5.453125q-2.390625 -3.640625 -2.515625 -8.234375zm42.6875 0l5.71875 -0.5q0.40625 3.4375 1.890625 5.640625q1.484375 2.203125 4.609375 3.5625q3.125 1.359375 7.03125 1.359375q3.46875 0 6.125 -1.03125q2.65625 -1.03125 3.953125 -2.828125q1.296875 -1.796875 1.296875 -3.921875q0 -2.15625 -1.25 -3.765625q-1.25 -1.609375 -4.125 -2.703125q-1.84375 -0.71875 -8.15625 -2.234375q-6.3125 -1.515625 -8.84375 -2.859375q-3.28125 -1.71875 -4.890625 -4.265625q-1.609375 -2.546875 -1.609375 -5.703125q0 -3.46875 1.96875 -6.484375q1.96875 -3.015625 5.75 -4.578125q3.78125 -1.5625 8.40625 -1.5625q5.09375 0 8.984375 1.640625q3.890625 1.640625 5.984375 4.828125q2.09375 3.1875 2.25 7.21875l-5.8125 0.4375q-0.46875 -4.34375 -3.171875 -6.5625q-2.703125 -2.21875 -7.984375 -2.21875q-5.5 0 -8.015625 2.015625q-2.515625 2.015625 -2.515625 4.859375q0 2.46875 1.78125 4.0625q1.75 1.59375 9.140625 3.265625q7.390625 1.671875 10.140625 2.921875q4.0 1.84375 5.90625 4.671875q1.90625 2.828125 1.90625 6.515625q0 3.65625 -2.09375 6.890625q-2.09375 3.234375 -6.015625 5.03125q-3.921875 1.796875 -8.828125 1.796875q-6.21875 0 -10.421875 -1.8125q-4.203125 -1.8125 -6.59375 -5.453125q-2.390625 -3.640625 -2.515625 -8.234375zm60.28125 2.625l5.625 -0.75q0.96875 4.78125 3.296875 6.890625q2.328125 2.109375 5.671875 2.109375q3.96875 0 6.703125 -2.75q2.734375 -2.75 2.734375 -6.8125q0 -3.875 -2.53125 -6.390625q-2.53125 -2.515625 -6.4375 -2.515625q-1.59375 0 -3.96875 0.625l0.625 -4.9375q0.5625 0.0625 0.90625 0.0625q3.59375 0 6.46875 -1.875q2.875 -1.875 2.875 -5.78125q0 -3.09375 -2.09375 -5.125q-2.09375 -2.03125 -5.40625 -2.03125q-3.28125 0 -5.46875 2.0625q-2.1875 2.0625 -2.8125 6.1875l-5.625 -1.0q1.03125 -5.65625 4.6875 -8.765625q3.65625 -3.109375 9.09375 -3.109375q3.75 0 6.90625 1.609375q3.15625 1.609375 4.828125 4.390625q1.671875 2.78125 1.671875 5.90625q0 2.96875 -1.59375 5.40625q-1.59375 2.4375 -4.71875 3.875q4.0625 0.9375 6.3125 3.890625q2.25 2.953125 2.25 7.390625q0 6.0 -4.375 10.171875q-4.375 4.171875 -11.0625 4.171875q-6.03125 0 -10.015625 -3.59375q-3.984375 -3.59375 -4.546875 -9.3125z" fill-rule="nonzero"/><path fill="#ffff00" d="m270.6311 196.21428l0 -45.8125l6.0625 0l0 40.40625l22.5625 0l0 5.40625l-28.625 0zm35.96875 0l0 -45.8125l33.125 0l0 5.40625l-27.0625 0l0 14.03125l25.34375 0l0 5.375l-25.34375 0l0 15.59375l28.125 0l0 5.40625l-34.1875 0zm37.53125 0l17.59375 -45.8125l6.53125 0l18.75 45.8125l-6.90625 0l-5.34375 -13.875l-19.15625 0l-5.03125 13.875l-6.4375 0zm13.21875 -18.8125l15.53125 0l-4.78125 -12.6875q-2.1875 -5.78125 -3.25 -9.5q-0.875 4.40625 -2.46875 8.75l-5.03125 13.4375zm34.25 18.8125l0 -45.8125l6.0625 0l0 22.71875l22.75 -22.71875l8.21875 0l-19.21875 18.5625l20.0625 27.25l-8.0 0l-16.3125 -23.1875l-7.5 7.3125l0 15.875l-6.0625 0zm43.0625 0l0 -45.8125l33.125 0l0 5.40625l-27.0625 0l0 14.03125l25.34375 0l0 5.375l-25.34375 0l0 15.59375l28.125 0l0 5.40625l-34.1875 0zm42.5625 0l0 -45.8125l15.78125 0q5.34375 0 8.15625 0.65625q3.9375 0.90625 6.71875 3.28125q3.625 3.0625 5.421875 7.828125q1.796875 4.765625 1.796875 10.890625q0 5.21875 -1.21875 9.25q-1.21875 4.03125 -3.125 6.671875q-1.90625 2.640625 -4.171875 4.15625q-2.265625 1.515625 -5.46875 2.296875q-3.203125 0.78125 -7.359375 0.78125l-16.53125 0zm6.0625 -5.40625l9.78125 0q4.53125 0 7.109375 -0.84375q2.578125 -0.84375 4.109375 -2.375q2.15625 -2.15625 3.359375 -5.796875q1.203125 -3.640625 1.203125 -8.828125q0 -7.1875 -2.359375 -11.046875q-2.359375 -3.859375 -5.734375 -5.171875q-2.4375 -0.9375 -7.84375 -0.9375l-9.625 0l0 35.0zm42.4375 -5.96875l-1.71875 -24.28125l0 -10.15625l6.96875 0l0 10.15625l-1.625 24.28125l-3.625 0zm-1.46875 11.375l0 -6.40625l6.46875 0l0 6.40625l-6.46875 0z" fill-rule="nonzero"/><path fill="#ffff00" d="m246.6936 334.1518l6.0625 1.53125q-1.90625 7.46875 -6.859375 11.390625q-4.953125 3.921875 -12.109375 3.921875q-7.40625 0 -12.046875 -3.015625q-4.640625 -3.015625 -7.0625 -8.734375q-2.421875 -5.71875 -2.421875 -12.28125q0 -7.15625 2.734375 -12.484375q2.734375 -5.328125 7.78125 -8.09375q5.046875 -2.765625 11.109375 -2.765625q6.875 0 11.5625 3.5q4.6875 3.5 6.53125 9.84375l-5.96875 1.40625q-1.59375 -5.0 -4.625 -7.28125q-3.03125 -2.28125 -7.625 -2.28125q-5.28125 0 -8.828125 2.53125q-3.546875 2.53125 -4.984375 6.796875q-1.4375 4.265625 -1.4375 8.796875q0 5.84375 1.703125 10.203125q1.703125 4.359375 5.296875 6.515625q3.59375 2.15625 7.78125 2.15625q5.09375 0 8.625 -2.9375q3.53125 -2.9375 4.78125 -8.71875zm13.28125 16.0625l0 -45.8125l6.0625 0l0 40.40625l22.5625 0l0 5.40625l-28.625 0zm36.875 0l0 -45.8125l6.0625 0l0 45.8125l-6.0625 0zm49.4375 -16.0625l6.0625 1.53125q-1.90625 7.46875 -6.859375 11.390625q-4.953125 3.921875 -12.109375 3.921875q-7.40625 0 -12.046875 -3.015625q-4.640625 -3.015625 -7.0625 -8.734375q-2.421875 -5.71875 -2.421875 -12.28125q0 -7.15625 2.734375 -12.484375q2.734375 -5.328125 7.78125 -8.09375q5.046875 -2.765625 11.109375 -2.765625q6.875 0 11.5625 3.5q4.6875 3.5 6.53125 9.84375l-5.96875 1.40625q-1.59375 -5.0 -4.625 -7.28125q-3.03125 -2.28125 -7.625 -2.28125q-5.28125 0 -8.828125 2.53125q-3.546875 2.53125 -4.984375 6.796875q-1.4375 4.265625 -1.4375 8.796875q0 5.84375 1.703125 10.203125q1.703125 4.359375 5.296875 6.515625q3.59375 2.15625 7.78125 2.15625q5.09375 0 8.625 -2.9375q3.53125 -2.9375 4.78125 -8.71875zm13.28125 16.0625l0 -45.8125l6.0625 0l0 22.71875l22.75 -22.71875l8.21875 0l-19.21875 18.5625l20.0625 27.25l-8.0 0l-16.3125 -23.1875l-7.5 7.3125l0 15.875l-6.0625 0zm60.90625 0l0 -45.8125l6.0625 0l0 18.8125l23.8125 0l0 -18.8125l6.0625 0l0 45.8125l-6.0625 0l0 -21.59375l-23.8125 0l0 21.59375l-6.0625 0zm46.15625 0l0 -45.8125l33.125 0l0 5.40625l-27.0625 0l0 14.03125l25.34375 0l0 5.375l-25.34375 0l0 15.59375l28.125 0l0 5.40625l-34.1875 0zm42.65625 0l0 -45.8125l20.3125 0q6.125 0 9.3125 1.234375q3.1875 1.234375 5.09375 4.359375q1.90625 3.125 1.90625 6.90625q0 4.875 -3.15625 8.21875q-3.15625 3.34375 -9.75 4.25q2.40625 1.15625 3.65625 2.28125q2.65625 2.4375 5.03125 6.09375l7.96875 12.46875l-7.625 0l-6.0625 -9.53125q-2.65625 -4.125 -4.375 -6.3125q-1.71875 -2.1875 -3.078125 -3.0625q-1.359375 -0.875 -2.765625 -1.21875q-1.03125 -0.21875 -3.375 -0.21875l-7.03125 0l0 20.34375l-6.0625 0zm6.0625 -25.59375l13.03125 0q4.15625 0 6.5 -0.859375q2.34375 -0.859375 3.5625 -2.75q1.21875 -1.890625 1.21875 -4.109375q0 -3.25 -2.359375 -5.34375q-2.359375 -2.09375 -7.453125 -2.09375l-14.5 0l0 15.15625zm40.1875 25.59375l0 -45.8125l33.125 0l0 5.40625l-27.0625 0l0 14.03125l25.34375 0l0 5.375l-25.34375 0l0 15.59375l28.125 0l0 5.40625l-34.1875 0z" fill-rule="nonzero"/></g></svg>