<svg version="1.1" viewBox="0.0 0.0 1228.3385826771653 692.5459317585302" fill="none" stroke="none" stroke-linecap="square" stroke-miterlimit="10" xmlns:xlink="http://www.w3.org/1999/xlink" xmlns="http://www.w3.org/2000/svg"><clipPath id="p.0"><path d="m0 0l1228.3386 0l0 692.54596l-1228.3386 0l0 -692.54596z" clip-rule="nonzero"/></clipPath><g clip-path="url(#p.0)"><path fill="#000000" d="m0 0l1228.3386 0l0 692.54596l-1228.3386 0z" fill-rule="evenodd"/><path fill="#000000" fill-opacity="0.0" d="m215.08267 168.66405l798.1732 0l0 230.51967l-798.1732 0z" fill-rule="evenodd"/><path fill="#d90000" d="m369.57437 297.98404l0 -89.718735l33.84375 0q8.921875 0 13.640625 0.859375q6.609375 1.109375 11.078125 4.203125q4.46875 3.078125 7.1875 8.65625q2.71875 5.5625 2.71875 12.234375q0 11.4375 -7.28125 19.375q-7.28125 7.9218597 -26.3125 7.9218597l-23.0 0l0 36.46875l-11.875 0zm11.875 -47.062485l23.1875 0q11.5 0 16.328125 -4.28125q4.84375 -4.28125 4.84375 -12.046875q0 -5.640625 -2.84375 -9.640625q-2.84375 -4.015625 -7.5 -5.296875q-3.0 -0.796875 -11.078125 -0.796875l-22.9375 0l0 32.0625zm66.20224 14.562485q0 -18.04686 10.046875 -26.73436q8.375 -7.21875 20.4375 -7.21875q13.390625 0 21.890625 8.78125q8.515625 8.78125 8.515625 24.26561q0 12.53125 -3.765625 19.734375q-3.75 7.1875 -10.953125 11.171875q-7.1875 3.96875 -15.6875 3.96875q-13.65625 0 -22.078125 -8.75q-8.40625 -8.75 -8.40625 -25.21875zm11.328125 0q0 12.484375 5.4375 18.703125q5.453125 6.203125 13.71875 6.203125q8.203125 0 13.640625 -6.234375q5.453125 -6.25 5.453125 -19.03125q0 -12.062485 -5.484375 -18.26561q-5.46875 -6.21875 -13.609375 -6.21875q-8.265625 0 -13.71875 6.1875q-5.4375 6.171875 -5.4375 18.656235zm62.545288 -44.54686l0 -12.671875l11.015625 0l0 12.671875l-11.015625 0zm0 77.04686l0 -64.98436l11.015625 0l0 64.98436l-11.015625 0zm27.781433 0l0 -64.98436l9.90625 0l0 9.234375q7.15625 -10.703125 20.6875 -10.703125q5.875 0 10.796875 2.109375q4.9375 2.109375 7.375 5.546875q2.453125 3.421875 3.4375 8.125q0.609375 3.0625 0.609375 10.718735l0 39.953125l-11.015625 0l0 -39.53125q0 -6.7343597 -1.296875 -10.062485q-1.28125 -3.34375 -4.5625 -5.328125q-3.265625 -1.984375 -7.671875 -1.984375q-7.03125 0 -12.140625 4.46875q-5.109375 4.453125 -5.109375 16.937485l0 35.5l-11.015625 0zm93.74841 -9.859375l1.59375 9.734375q-4.65625 0.984375 -8.328125 0.984375q-6.0 0 -9.3125 -1.890625q-3.296875 -1.90625 -4.640625 -5.0q-1.34375 -3.09375 -1.34375 -13.0l0 -37.39061l-8.078125 0l0 -8.5625l8.078125 0l0 -16.09375l10.953125 -6.609375l0 22.703125l11.078125 0l0 8.5625l-11.078125 0l0 37.999985q0 4.71875 0.578125 6.0625q0.578125 1.34375 1.890625 2.140625q1.328125 0.796875 3.78125 0.796875q1.828125 0 4.828125 -0.4375zm10.523315 9.859375l0 -89.718735l11.015625 0l0 89.718735l-11.015625 0zm72.57825 -20.921875l11.375 1.40625q-2.6875 9.96875 -9.96875 15.484375q-7.28125 5.5 -18.609375 5.5q-14.25 0 -22.609375 -8.78125q-8.34375 -8.78125 -8.34375 -24.625q0 -16.406235 8.4375 -25.45311q8.453125 -9.0625 21.90625 -9.0625q13.046875 0 21.296875 8.875q8.265625 8.859375 8.265625 24.968735q0 0.96875 -0.0625 2.921875l-48.46875 0q0.609375 10.71875 6.0625 16.40625q5.453125 5.6875 13.578125 5.6875q6.0625 0 10.34375 -3.171875q4.28125 -3.1875 6.796875 -10.15625zm-36.171875 -17.8125l36.296875 0q-0.734375 -8.20311 -4.15625 -12.29686q-5.265625 -6.375 -13.65625 -6.375q-7.578125 0 -12.75 5.078125q-5.171875 5.078125 -5.734375 13.593735zm56.982788 19.328125l10.890625 -1.703125q0.921875 6.546875 5.109375 10.03125q4.1875 3.484375 11.71875 3.484375q7.59375 0 11.265625 -3.078125q3.671875 -3.09375 3.671875 -7.265625q0 -3.71875 -3.25 -5.875q-2.265625 -1.46875 -11.265625 -3.71875q-12.109375 -3.0625 -16.796875 -5.296875q-4.671875 -2.234375 -7.09375 -6.171875q-2.421875 -3.9531097 -2.421875 -8.73436q0 -4.34375 1.984375 -8.046875q2.0 -3.703125 5.421875 -6.15625q2.578125 -1.890625 7.015625 -3.203125q4.4375 -1.3125 9.515625 -1.3125q7.640625 0 13.421875 2.203125q5.78125 2.203125 8.53125 5.96875q2.765625 3.75 3.796875 10.0625l-10.765625 1.46875q-0.734375 -5.015625 -4.25 -7.828125q-3.515625 -2.828125 -9.9375 -2.828125q-7.59375 0 -10.84375 2.515625q-3.234375 2.5 -3.234375 5.875q0 2.140625 1.34375 3.859375q1.34375 1.765625 4.21875 2.9375q1.65625 0.60935974 9.734375 2.8124847q11.6875 3.125 16.296875 5.109375q4.625 1.984375 7.25 5.78125q2.640625 3.796875 2.640625 9.421875q0 5.515625 -3.21875 10.375q-3.203125 4.859375 -9.265625 7.53125q-6.0625 2.65625 -13.703125 2.65625q-12.671875 0 -19.3125 -5.265625q-6.640625 -5.265625 -8.46875 -15.609375zm62.664062 0l10.890625 -1.703125q0.921875 6.546875 5.109375 10.03125q4.1875 3.484375 11.71875 3.484375q7.59375 0 11.265625 -3.078125q3.671875 -3.09375 3.671875 -7.265625q0 -3.71875 -3.25 -5.875q-2.265625 -1.46875 -11.265625 -3.71875q-12.109375 -3.0625 -16.796875 -5.296875q-4.671875 -2.234375 -7.09375 -6.171875q-2.421875 -3.9531097 -2.421875 -8.73436q0 -4.34375 1.984375 -8.046875q2.0 -3.703125 5.421875 -6.15625q2.578125 -1.890625 7.015625 -3.203125q4.4375 -1.3125 9.515625 -1.3125q7.640625 0 13.421875 2.203125q5.78125 2.203125 8.53125 5.96875q2.765625 3.75 3.796875 10.0625l-10.765625 1.46875q-0.734375 -5.015625 -4.25 -7.828125q-3.515625 -2.828125 -9.9375 -2.828125q-7.59375 0 -10.84375 2.515625q-3.234375 2.5 -3.234375 5.875q0 2.140625 1.34375 3.859375q1.34375 1.765625 4.21875 2.9375q1.65625 0.60935974 9.734375 2.8124847q11.6875 3.125 16.296875 5.109375q4.625 1.984375 7.25 5.78125q2.640625 3.796875 2.640625 9.421875q0 5.515625 -3.21875 10.375q-3.203125 4.859375 -9.265625 7.53125q-6.0625 2.65625 -13.703125 2.65625q-12.671875 0 -19.3125 -5.265625q-6.640625 -5.265625 -8.46875 -15.609375z" fill-rule="nonzero"/><path fill="#000000" fill-opacity="0.0" d="m327.10367 389.8058l597.98425 0l0 85.19684l-597.98425 0z" fill-rule="evenodd"/><path fill="#ff0000" d="m513.28564 439.76578l0 -30.53125l13.53125 0q4.078125 0 6.203125 0.828125q2.125 0.8125 3.390625 2.90625q1.28125 2.078125 1.28125 4.59375q0 3.25 -2.109375 5.484375q-2.09375 2.21875 -6.5 2.828125q1.609375 0.765625 2.4375 1.515625q1.78125 1.625 3.359375 4.0625l5.3125 8.3125l-5.078125 0l-4.046875 -6.359375q-1.765625 -2.75 -2.921875 -4.203125q-1.140625 -1.453125 -2.046875 -2.03125q-0.90625 -0.59375 -1.84375 -0.8125q-0.6875 -0.15625 -2.25 -0.15625l-4.6875 0l0 13.5625l-4.03125 0zm4.03125 -17.0625l8.6875 0q2.765625 0 4.328125 -0.5625q1.5625 -0.578125 2.375 -1.828125q0.8125 -1.265625 0.8125 -2.75q0 -2.171875 -1.578125 -3.5625q-1.5625 -1.390625 -4.953125 -1.390625l-9.671875 0l0 10.09375zm41.36743 9.9375l3.875 0.484375q-0.921875 3.390625 -3.40625 5.265625q-2.46875 1.875 -6.328125 1.875q-4.84375 0 -7.6875 -2.984375q-2.84375 -3.0 -2.84375 -8.390625q0 -5.578125 2.875 -8.65625q2.875 -3.09375 7.453125 -3.09375q4.4375 0 7.25 3.03125q2.8125 3.015625 2.8125 8.5q0 0.328125 -0.015625 0.984375l-16.5 0q0.203125 3.65625 2.0625 5.59375q1.859375 1.9375 4.625 1.9375q2.0625 0 3.515625 -1.078125q1.453125 -1.09375 2.3125 -3.46875zm-12.3125 -6.0625l12.359375 0q-0.25 -2.78125 -1.421875 -4.1875q-1.796875 -2.15625 -4.640625 -2.15625q-2.578125 0 -4.34375 1.734375q-1.765625 1.71875 -1.953125 4.609375zm20.895264 13.1875l0 -22.125l3.359375 0l0 3.109375q1.03125 -1.625 2.765625 -2.609375q1.734375 -1.0 3.9375 -1.0q2.453125 0 4.015625 1.03125q1.578125 1.015625 2.234375 2.84375q2.625 -3.875 6.828125 -3.875q3.296875 0 5.0625 1.828125q1.765625 1.828125 1.765625 5.609375l0 15.1875l-3.71875 0l0 -13.9375q0 -2.25 -0.375 -3.234375q-0.359375 -0.984375 -1.328125 -1.59375q-0.953125 -0.609375 -2.234375 -0.609375q-2.34375 0 -3.890625 1.5625q-1.53125 1.546875 -1.53125 4.96875l0 12.84375l-3.75 0l0 -14.375q0 -2.5 -0.921875 -3.75q-0.90625 -1.25 -3.0 -1.25q-1.578125 0 -2.921875 0.84375q-1.34375 0.828125 -1.953125 2.4375q-0.59375 1.59375 -0.59375 4.625l0 11.46875l-3.75 0zm49.97052 -2.734375q-2.09375 1.78125 -4.015625 2.515625q-1.921875 0.71875 -4.125 0.71875q-3.65625 0 -5.609375 -1.78125q-1.953125 -1.78125 -1.953125 -4.546875q0 -1.625 0.734375 -2.96875q0.734375 -1.34375 1.9375 -2.15625q1.203125 -0.8125 2.703125 -1.234375q1.09375 -0.28125 3.328125 -0.5625q4.53125 -0.53125 6.6875 -1.28125q0.015625 -0.78125 0.015625 -0.984375q0 -2.296875 -1.0625 -3.234375q-1.4375 -1.265625 -4.265625 -1.265625q-2.640625 0 -3.90625 0.9375q-1.265625 0.921875 -1.859375 3.265625l-3.671875 -0.5q0.5 -2.34375 1.640625 -3.796875q1.15625 -1.453125 3.3125 -2.234375q2.171875 -0.78125 5.015625 -0.78125q2.84375 0 4.609375 0.671875q1.765625 0.671875 2.59375 1.6875q0.84375 1.0 1.171875 2.546875q0.1875 0.953125 0.1875 3.453125l0 5.0q0 5.21875 0.234375 6.609375q0.25 1.390625 0.953125 2.65625l-3.90625 0q-0.59375 -1.171875 -0.75 -2.734375zm-0.3125 -8.359375q-2.046875 0.828125 -6.125 1.40625q-2.3125 0.328125 -3.28125 0.75q-0.953125 0.421875 -1.46875 1.21875q-0.515625 0.796875 -0.515625 1.78125q0 1.5 1.125 2.5q1.140625 1.0 3.328125 1.0q2.15625 0 3.84375 -0.9375q1.6875 -0.953125 2.484375 -2.609375q0.609375 -1.265625 0.609375 -3.75l0 -1.359375zm8.098389 4.484375l3.703125 -0.578125q0.3125 2.234375 1.734375 3.421875q1.4375 1.1875 4.0 1.1875q2.578125 0 3.828125 -1.046875q1.25 -1.0625 1.25 -2.484375q0 -1.265625 -1.109375 -2.0q-0.765625 -0.5 -3.828125 -1.265625q-4.125 -1.046875 -5.71875 -1.796875q-1.59375 -0.765625 -2.421875 -2.109375q-0.8125 -1.34375 -0.8125 -2.96875q0 -1.46875 0.671875 -2.734375q0.6875 -1.265625 1.84375 -2.09375q0.875 -0.640625 2.390625 -1.09375q1.515625 -0.453125 3.234375 -0.453125q2.609375 0 4.578125 0.75q1.96875 0.75 2.90625 2.03125q0.9375 1.28125 1.28125 3.4375l-3.65625 0.5q-0.25 -1.71875 -1.453125 -2.671875q-1.203125 -0.953125 -3.375 -0.953125q-2.59375 0 -3.703125 0.859375q-1.09375 0.84375 -1.09375 1.984375q0 0.734375 0.453125 1.3125q0.46875 0.609375 1.4375 1.0q0.5625 0.21875 3.3125 0.96875q3.984375 1.0625 5.546875 1.734375q1.578125 0.671875 2.46875 1.96875q0.90625 1.28125 0.90625 3.203125q0 1.875 -1.09375 3.53125q-1.09375 1.65625 -3.15625 2.5625q-2.0625 0.90625 -4.671875 0.90625q-4.3125 0 -6.578125 -1.78125q-2.25 -1.796875 -2.875 -5.328125zm31.015625 3.25l0.53125 3.3125q-1.578125 0.34375 -2.828125 0.34375q-2.03125 0 -3.15625 -0.640625q-1.125 -0.65625 -1.59375 -1.703125q-0.453125 -1.0625 -0.453125 -4.4375l0 -12.71875l-2.75 0l0 -2.921875l2.75 0l0 -5.46875l3.734375 -2.25l0 7.71875l3.765625 0l0 2.921875l-3.765625 0l0 12.9375q0 1.59375 0.1875 2.0625q0.203125 0.453125 0.640625 0.734375q0.453125 0.265625 1.296875 0.265625q0.625 0 1.640625 -0.15625zm18.804382 -3.765625l3.875 0.484375q-0.921875 3.390625 -3.40625 5.265625q-2.46875 1.875 -6.328125 1.875q-4.84375 0 -7.6875 -2.984375q-2.84375 -3.0 -2.84375 -8.390625q0 -5.578125 2.875 -8.65625q2.875 -3.09375 7.453125 -3.09375q4.4375 0 7.25 3.03125q2.8125 3.015625 2.8125 8.5q0 0.328125 -0.015625 0.984375l-16.5 0q0.203125 3.65625 2.0625 5.59375q1.859375 1.9375 4.625 1.9375q2.0625 0 3.515625 -1.078125q1.453125 -1.09375 2.3125 -3.46875zm-12.3125 -6.0625l12.359375 0q-0.25 -2.78125 -1.421875 -4.1875q-1.796875 -2.15625 -4.640625 -2.15625q-2.578125 0 -4.34375 1.734375q-1.765625 1.71875 -1.953125 4.609375zm20.848389 13.1875l0 -22.125l3.375 0l0 3.359375q1.296875 -2.359375 2.390625 -3.109375q1.09375 -0.75 2.40625 -0.75q1.890625 0 3.84375 1.21875l-1.28125 3.46875q-1.375 -0.8125 -2.75 -0.8125q-1.234375 0 -2.21875 0.75q-0.96875 0.734375 -1.390625 2.046875q-0.625 2.0 -0.625 4.375l0 11.578125l-3.75 0zm29.392334 -7.125l3.875 0.484375q-0.921875 3.390625 -3.40625 5.265625q-2.46875 1.875 -6.328125 1.875q-4.84375 0 -7.6875 -2.984375q-2.84375 -3.0 -2.84375 -8.390625q0 -5.578125 2.875 -8.65625q2.875 -3.09375 7.453125 -3.09375q4.4375 0 7.25 3.03125q2.8125 3.015625 2.8125 8.5q0 0.328125 -0.015625 0.984375l-16.5 0q0.203125 3.65625 2.0625 5.59375q1.859375 1.9375 4.625 1.9375q2.0625 0 3.515625 -1.078125q1.453125 -1.09375 2.3125 -3.46875zm-12.3125 -6.0625l12.359375 0q-0.25 -2.78125 -1.421875 -4.1875q-1.796875 -2.15625 -4.640625 -2.15625q-2.578125 0 -4.34375 1.734375q-1.765625 1.71875 -1.953125 4.609375zm35.239014 13.1875l0 -2.796875q-2.09375 3.296875 -6.1875 3.296875q-2.640625 0 -4.859375 -1.453125q-2.21875 -1.46875 -3.4375 -4.078125q-1.21875 -2.609375 -1.21875 -6.0q0 -3.3125 1.109375 -6.015625q1.109375 -2.703125 3.3125 -4.140625q2.203125 -1.4375 4.9375 -1.4375q2.0 0 3.5625 0.84375q1.5625 0.84375 2.53125 2.203125l0 -10.953125l3.734375 0l0 30.53125l-3.484375 0zm-11.84375 -11.03125q0 4.234375 1.78125 6.34375q1.796875 2.109375 4.234375 2.109375q2.453125 0 4.171875 -2.015625q1.71875 -2.015625 1.71875 -6.125q0 -4.546875 -1.75 -6.671875q-1.75 -2.125 -4.3125 -2.125q-2.484375 0 -4.171875 2.046875q-1.671875 2.03125 -1.671875 6.4375z" fill-rule="nonzero"/><path fill="#000000" fill-opacity="0.0" d="m555.27655 91.67716l141.63776 0l0 246.17325l-141.63776 0z" fill-rule="evenodd"/><path fill="#ff0000" d="m684.4172 309.6409l0 20.15625l-112.921875 0q-0.234375 -7.578125 2.453125 -14.5625q4.3125 -11.546875 13.8125 -22.734375q9.5 -11.1875 27.4375 -25.859375q27.859375 -22.843735 37.640625 -36.187485q9.796875 -13.34375 9.796875 -25.234375q0 -12.46875 -8.921875 -21.03125q-8.921875 -8.5625 -23.25 -8.5625q-15.140625 0 -24.234375 9.09375q-9.09375 9.09375 -9.203125 25.171875l-21.5625 -2.21875q2.21875 -24.125 16.65625 -36.765625q14.453125 -12.640625 38.8125 -12.640625q24.59375 0 38.921875 13.640625q14.328125 13.625 14.328125 33.78125q0 10.265625 -4.203125 20.171875q-4.1875 9.890625 -13.921875 20.84375q-9.71875 10.95311 -32.328125 30.07811q-18.875 15.84375 -24.234375 21.5q-5.359375 5.640625 -8.859375 11.359375l83.78125 0z" fill-rule="nonzero"/><path fill="#000000" fill-opacity="0.0" d="m373.10236 632.9239l505.98425 0l0 59.62207l-505.98425 0z" fill-rule="evenodd"/><path fill="#ff0000" d="m513.94507 667.52386l0 -19.078125l2.53125 0l0 16.828125l9.390625 0l0 2.25l-11.921875 0zm14.637451 -16.390625l0 -2.6875l2.34375 0l0 2.6875l-2.34375 0zm0 16.390625l0 -13.828125l2.34375 0l0 13.828125l-2.34375 0zm5.48468 1.140625l2.28125 0.34375q0.140625 1.046875 0.796875 1.53125q0.859375 0.65625 2.375 0.65625q1.625 0 2.5 -0.65625q0.890625 -0.640625 1.203125 -1.8125q0.1875 -0.71875 0.171875 -3.015625q-1.53125 1.8125 -3.828125 1.8125q-2.84375 0 -4.40625 -2.046875q-1.5625 -2.0625 -1.5625 -4.9375q0 -1.984375 0.71875 -3.65625q0.71875 -1.671875 2.078125 -2.578125q1.359375 -0.921875 3.1875 -0.921875q2.453125 0 4.03125 1.984375l0 -1.671875l2.171875 0l0 11.953125q0 3.234375 -0.65625 4.578125q-0.65625 1.34375 -2.09375 2.125q-1.421875 0.78125 -3.5 0.78125q-2.46875 0 -4.0 -1.109375q-1.515625 -1.109375 -1.46875 -3.359375zm1.9375 -8.296875q0 2.71875 1.078125 3.96875q1.078125 1.25 2.703125 1.25q1.625 0 2.71875 -1.234375q1.09375 -1.25 1.09375 -3.90625q0 -2.546875 -1.125 -3.828125q-1.125 -1.296875 -2.71875 -1.296875q-1.5625 0 -2.65625 1.28125q-1.09375 1.265625 -1.09375 3.765625zm13.309265 7.15625l0 -19.078125l2.34375 0l0 6.84375q1.640625 -1.90625 4.140625 -1.90625q1.546875 0 2.671875 0.609375q1.140625 0.609375 1.625 1.671875q0.484375 1.0625 0.484375 3.09375l0 8.765625l-2.34375 0l0 -8.765625q0 -1.75 -0.765625 -2.546875q-0.75 -0.8125 -2.15625 -0.8125q-1.03125 0 -1.953125 0.546875q-0.921875 0.546875 -1.3125 1.46875q-0.390625 0.921875 -0.390625 2.546875l0 7.5625l-2.34375 0zm19.949951 -2.09375l0.328125 2.0625q-0.984375 0.21875 -1.765625 0.21875q-1.265625 0 -1.96875 -0.40625q-0.703125 -0.40625 -1.0 -1.0625q-0.28125 -0.65625 -0.28125 -2.765625l0 -7.953125l-1.71875 0l0 -1.828125l1.71875 0l0 -3.421875l2.328125 -1.40625l0 4.828125l2.359375 0l0 1.828125l-2.359375 0l0 8.078125q0 1.0 0.125 1.296875q0.125 0.28125 0.40625 0.453125q0.28125 0.171875 0.796875 0.171875q0.390625 0 1.03125 -0.09375zm1.7340698 -4.03125l2.375 -0.21875q0.171875 1.4375 0.78125 2.359375q0.625 0.90625 1.921875 1.484375q1.3125 0.5625 2.9375 0.5625q1.4375 0 2.546875 -0.421875q1.109375 -0.4375 1.640625 -1.1875q0.546875 -0.75 0.546875 -1.640625q0 -0.890625 -0.53125 -1.5625q-0.515625 -0.671875 -1.703125 -1.125q-0.765625 -0.296875 -3.40625 -0.921875q-2.625 -0.640625 -3.671875 -1.203125q-1.375 -0.71875 -2.046875 -1.765625q-0.671875 -1.0625 -0.671875 -2.375q0 -1.453125 0.8125 -2.703125q0.828125 -1.265625 2.40625 -1.90625q1.578125 -0.65625 3.5 -0.65625q2.125 0 3.734375 0.6875q1.625 0.671875 2.5 2.0q0.875 1.328125 0.9375 3.015625l-2.421875 0.1875q-0.1875 -1.8125 -1.3125 -2.734375q-1.125 -0.9375 -3.328125 -0.9375q-2.296875 0 -3.34375 0.84375q-1.046875 0.84375 -1.046875 2.03125q0 1.015625 0.75 1.6875q0.71875 0.65625 3.796875 1.359375q3.078125 0.703125 4.234375 1.21875q1.65625 0.765625 2.453125 1.953125q0.796875 1.171875 0.796875 2.703125q0 1.53125 -0.875 2.875q-0.875 1.34375 -2.515625 2.09375q-1.625 0.75 -3.671875 0.75q-2.59375 0 -4.34375 -0.75q-1.75 -0.765625 -2.75 -2.28125q-0.984375 -1.515625 -1.03125 -3.421875zm18.326416 11.421875l0 -19.125l2.140625 0l0 1.796875q0.75 -1.046875 1.703125 -1.578125q0.953125 -0.53125 2.3125 -0.53125q1.765625 0 3.109375 0.921875q1.359375 0.90625 2.046875 2.5625q0.6875 1.65625 0.6875 3.640625q0 2.125 -0.765625 3.828125q-0.75 1.6875 -2.203125 2.59375q-1.453125 0.90625 -3.046875 0.90625q-1.171875 0 -2.109375 -0.484375q-0.921875 -0.5 -1.53125 -1.265625l0 6.734375l-2.34375 0zm2.125 -12.125q0 2.65625 1.078125 3.9375q1.09375 1.28125 2.625 1.28125q1.5625 0 2.671875 -1.3125q1.109375 -1.328125 1.109375 -4.109375q0 -2.640625 -1.09375 -3.953125q-1.078125 -1.3125 -2.59375 -1.3125q-1.484375 0 -2.640625 1.40625q-1.15625 1.390625 -1.15625 4.0625zm22.168701 2.375l2.421875 0.296875q-0.578125 2.125 -2.125 3.296875q-1.546875 1.171875 -3.953125 1.171875q-3.03125 0 -4.8125 -1.859375q-1.78125 -1.875 -1.78125 -5.25q0 -3.484375 1.796875 -5.40625q1.796875 -1.9375 4.671875 -1.9375q2.765625 0 4.515625 1.890625q1.765625 1.890625 1.765625 5.3125q0 0.203125 -0.015625 0.625l-10.3125 0q0.140625 2.28125 1.296875 3.5q1.15625 1.203125 2.890625 1.203125q1.28125 0 2.1875 -0.671875q0.921875 -0.6875 1.453125 -2.171875zm-7.6875 -3.78125l7.71875 0q-0.15625 -1.75 -0.890625 -2.625q-1.125 -1.34375 -2.90625 -1.34375q-1.609375 0 -2.71875 1.078125q-1.09375 1.078125 -1.203125 2.890625zm22.51239 3.78125l2.421875 0.296875q-0.578125 2.125 -2.125 3.296875q-1.546875 1.171875 -3.953125 1.171875q-3.03125 0 -4.8125 -1.859375q-1.78125 -1.875 -1.78125 -5.25q0 -3.484375 1.796875 -5.40625q1.796875 -1.9375 4.671875 -1.9375q2.765625 0 4.515625 1.890625q1.765625 1.890625 1.765625 5.3125q0 0.203125 -0.015625 0.625l-10.3125 0q0.140625 2.28125 1.296875 3.5q1.15625 1.203125 2.890625 1.203125q1.28125 0 2.1875 -0.671875q0.921875 -0.6875 1.453125 -2.171875zm-7.6875 -3.78125l7.71875 0q-0.15625 -1.75 -0.890625 -2.625q-1.125 -1.34375 -2.90625 -1.34375q-1.609375 0 -2.71875 1.078125q-1.09375 1.078125 -1.203125 2.890625zm22.012451 8.234375l0 -1.75q-1.3125 2.0625 -3.859375 2.0625q-1.65625 0 -3.046875 -0.90625q-1.375 -0.921875 -2.140625 -2.546875q-0.765625 -1.640625 -0.765625 -3.75q0 -2.078125 0.6875 -3.765625q0.703125 -1.6875 2.078125 -2.578125q1.375 -0.90625 3.078125 -0.90625q1.25 0 2.21875 0.53125q0.984375 0.53125 1.59375 1.375l0 -6.84375l2.34375 0l0 19.078125l-2.1875 0zm-7.40625 -6.890625q0 2.640625 1.125 3.96875q1.125 1.3125 2.640625 1.3125q1.53125 0 2.609375 -1.25q1.078125 -1.265625 1.078125 -3.84375q0 -2.84375 -1.09375 -4.171875q-1.09375 -1.328125 -2.703125 -1.328125q-1.546875 0 -2.609375 1.28125q-1.046875 1.28125 -1.046875 4.03125zm29.902771 -0.59375l0 -2.234375l8.078125 -0.015625l0 7.078125q-1.859375 1.484375 -3.84375 2.234375q-1.96875 0.75 -4.046875 0.75q-2.8125 0 -5.109375 -1.203125q-2.296875 -1.203125 -3.46875 -3.484375q-1.171875 -2.28125 -1.171875 -5.09375q0 -2.78125 1.15625 -5.1875q1.171875 -2.421875 3.359375 -3.59375q2.1875 -1.171875 5.03125 -1.171875q2.078125 0 3.75 0.671875q1.671875 0.671875 2.609375 1.875q0.953125 1.1875 1.453125 3.109375l-2.28125 0.625q-0.421875 -1.453125 -1.0625 -2.28125q-0.640625 -0.84375 -1.828125 -1.34375q-1.171875 -0.5 -2.625 -0.5q-1.734375 0 -3.0 0.53125q-1.25 0.53125 -2.03125 1.390625q-0.765625 0.859375 -1.203125 1.890625q-0.734375 1.765625 -0.734375 3.828125q0 2.5625 0.875 4.28125q0.890625 1.703125 2.5625 2.546875q1.6875 0.828125 3.578125 0.828125q1.640625 0 3.1875 -0.625q1.5625 -0.640625 2.375 -1.359375l0 -3.546875l-5.609375 0zm20.530945 5.78125q-1.3125 1.109375 -2.515625 1.5625q-1.203125 0.453125 -2.578125 0.453125q-2.28125 0 -3.5 -1.109375q-1.21875 -1.109375 -1.21875 -2.84375q0 -1.015625 0.453125 -1.859375q0.46875 -0.84375 1.21875 -1.34375q0.75 -0.515625 1.6875 -0.765625q0.6875 -0.1875 2.078125 -0.359375q2.828125 -0.328125 4.171875 -0.796875q0.015625 -0.484375 0.015625 -0.625q0 -1.421875 -0.65625 -2.015625q-0.90625 -0.796875 -2.671875 -0.796875q-1.65625 0 -2.453125 0.59375q-0.78125 0.578125 -1.15625 2.046875l-2.296875 -0.3125q0.3125 -1.46875 1.03125 -2.375q0.71875 -0.90625 2.0625 -1.390625q1.359375 -0.5 3.140625 -0.5q1.78125 0 2.875 0.421875q1.109375 0.421875 1.625 1.046875q0.53125 0.625 0.734375 1.59375q0.125 0.59375 0.125 2.15625l0 3.125q0 3.265625 0.140625 4.140625q0.15625 0.859375 0.59375 1.65625l-2.4375 0q-0.375 -0.734375 -0.46875 -1.703125zm-0.203125 -5.234375q-1.265625 0.515625 -3.828125 0.890625q-1.4375 0.203125 -2.046875 0.46875q-0.59375 0.25 -0.921875 0.75q-0.3125 0.5 -0.3125 1.125q0 0.9375 0.703125 1.5625q0.703125 0.625 2.078125 0.625q1.34375 0 2.390625 -0.59375q1.0625 -0.59375 1.5625 -1.625q0.375 -0.796875 0.375 -2.34375l0 -0.859375zm5.996826 6.9375l0 -13.828125l2.109375 0l0 1.9375q0.640625 -1.015625 1.71875 -1.625q1.09375 -0.625 2.46875 -0.625q1.53125 0 2.515625 0.640625q0.984375 0.640625 1.390625 1.78125q1.640625 -2.421875 4.265625 -2.421875q2.0625 0 3.15625 1.140625q1.109375 1.140625 1.109375 3.515625l0 9.484375l-2.328125 0l0 -8.703125q0 -1.40625 -0.234375 -2.015625q-0.21875 -0.625 -0.828125 -1.0q-0.59375 -0.390625 -1.390625 -0.390625q-1.46875 0 -2.4375 0.96875q-0.953125 0.96875 -0.953125 3.109375l0 8.03125l-2.34375 0l0 -8.984375q0 -1.5625 -0.578125 -2.34375q-0.5625 -0.78125 -1.875 -0.78125q-0.984375 0 -1.828125 0.53125q-0.828125 0.515625 -1.21875 1.515625q-0.375 1.0 -0.375 2.890625l0 7.171875l-2.34375 0zm31.673645 -4.453125l2.421875 0.296875q-0.578125 2.125 -2.125 3.296875q-1.546875 1.171875 -3.953125 1.171875q-3.03125 0 -4.8125 -1.859375q-1.78125 -1.875 -1.78125 -5.25q0 -3.484375 1.796875 -5.40625q1.796875 -1.9375 4.671875 -1.9375q2.765625 0 4.515625 1.890625q1.765625 1.890625 1.765625 5.3125q0 0.203125 -0.015625 0.625l-10.3125 0q0.140625 2.28125 1.296875 3.5q1.15625 1.203125 2.890625 1.203125q1.28125 0 2.1875 -0.671875q0.921875 -0.6875 1.453125 -2.171875zm-7.6875 -3.78125l7.71875 0q-0.15625 -1.75 -0.890625 -2.625q-1.125 -1.34375 -2.90625 -1.34375q-1.609375 0 -2.71875 1.078125q-1.09375 1.078125 -1.203125 2.890625zm12.10614 4.109375l2.328125 -0.359375q0.1875 1.390625 1.078125 2.140625q0.890625 0.734375 2.5 0.734375q1.609375 0 2.390625 -0.65625q0.78125 -0.65625 0.78125 -1.546875q0 -0.796875 -0.6875 -1.25q-0.484375 -0.3125 -2.390625 -0.796875q-2.578125 -0.65625 -3.578125 -1.125q-1.0 -0.46875 -1.515625 -1.3125q-0.515625 -0.84375 -0.515625 -1.859375q0 -0.921875 0.421875 -1.703125q0.4375 -0.796875 1.15625 -1.3125q0.546875 -0.40625 1.484375 -0.6875q0.953125 -0.28125 2.03125 -0.28125q1.625 0 2.859375 0.46875q1.234375 0.46875 1.8125 1.28125q0.59375 0.796875 0.8125 2.140625l-2.296875 0.3125q-0.15625 -1.078125 -0.90625 -1.671875q-0.75 -0.59375 -2.109375 -0.59375q-1.609375 0 -2.3125 0.53125q-0.6875 0.53125 -0.6875 1.25q0 0.453125 0.296875 0.8125q0.28125 0.375 0.890625 0.625q0.359375 0.140625 2.078125 0.609375q2.484375 0.65625 3.46875 1.078125q0.984375 0.421875 1.53125 1.234375q0.5625 0.796875 0.5625 2.0q0 1.171875 -0.6875 2.21875q-0.671875 1.03125 -1.96875 1.59375q-1.28125 0.5625 -2.90625 0.5625q-2.703125 0 -4.125 -1.109375q-1.40625 -1.125 -1.796875 -3.328125z" fill-rule="nonzero"/></g></svg>